<svg width="24" height="24" viewBox="0 0 24 24" fill="none" xmlns="http://www.w3.org/2000/svg">
<path fill-rule="evenodd" clip-rule="evenodd" d="M15 8.99682C15 8.44442 15.4477 7.99661 16 7.99661C17.0898 7.99661 18.1017 8.36307 18.8464 9.0878C19.5954 9.81667 20 10.8362 20 11.9975C20 12.5499 19.5523 12.9977 19 12.9977C18.4477 12.9977 18 12.5499 18 11.9975C18 11.3122 17.77 10.8314 17.4517 10.5216C17.1291 10.2076 16.641 9.99703 16 9.99703C15.4477 9.99703 15 9.54922 15 8.99682Z" fill="black"/>
<path fill-rule="evenodd" clip-rule="evenodd" d="M12.1155 1.11072C11.2539 1.97251 10.982 3.24203 11.0009 4.42443C10.1663 4.14643 9.27277 3.99581 8.33333 3.99581C3.52065 3.99581 0 7.42699 0 12.1975C0 14.4988 0.823744 17.3747 2.2039 19.6867C3.55943 21.9576 5.65452 24 8.33333 24C9.6595 24 10.8942 23.6998 12.0001 23.1653C13.1064 23.7 14.3405 24 15.6666 24C18.3455 24 20.4406 21.9576 21.7961 19.6867C23.1763 17.3747 24 14.4988 24 12.1975C24 7.70575 20.8788 4.40138 16.4967 4.03054C16.8071 3.42305 16.9259 2.78079 16.9718 2.28973C17.0397 1.56461 16.9487 0.867069 16.8445 0.150453C16.1272 0.0488683 15.4314 -0.0448068 14.7057 0.0230994C13.973 0.0916645 12.9036 0.322524 12.1155 1.11072ZM8.33333 5.99622C4.59046 5.99622 2 8.56624 2 12.1975C2 14.0971 2.70403 16.6224 3.9211 18.6613C5.16279 20.7413 6.73437 21.9996 8.33333 21.9996C9.39476 21.9996 10.3695 21.7505 11.2381 21.3106C11.7164 21.0683 12.2835 21.0683 12.762 21.3106C13.6312 21.7507 14.6053 21.9996 15.6667 21.9996C17.2656 21.9996 18.8372 20.7413 20.0789 18.6613C21.296 16.6224 22 14.0971 22 12.1975C22 8.56624 19.4095 5.99622 15.6667 5.99622C14.6172 5.99622 13.6309 6.2454 12.7639 6.6852C12.2853 6.92795 11.7177 6.92823 11.2388 6.68564C10.3694 6.24522 9.39469 5.99622 8.33333 5.99622ZM13.0115 3.98424C13.5171 3.94834 14.0978 3.83843 14.4702 3.4659C14.8427 3.09338 14.9526 2.51257 14.9885 2.00689C14.4829 2.04279 13.9022 2.1527 13.5298 2.52523C13.1573 2.89775 13.0474 3.47857 13.0115 3.98424Z" fill="black"/>
<path fill-rule="evenodd" clip-rule="evenodd" d="M16 7.99661C15.4477 7.99661 15 8.44442 15 8.99682C15 9.54922 15.4477 9.99703 16 9.99703C16.641 9.99703 17.1291 10.2076 17.4517 10.5216C17.77 10.8314 18 11.3122 18 11.9975C18 12.5499 18.4477 12.9977 19 12.9977C19.5523 12.9977 20 12.5499 20 11.9975C20 10.8362 19.5954 9.81667 18.8464 9.0878C18.1017 8.36307 17.0898 7.99661 16 7.99661Z" fill="black"/>
</svg>
