<svg width="32" height="32" viewBox="0 0 32 32" fill="none" xmlns="http://www.w3.org/2000/svg">
<g clip-path="url(#clip0_540_36258)">
<path d="M16 32C24.8366 32 32 24.8366 32 16C32 7.16344 24.8366 0 16 0C7.16344 0 0 7.16344 0 16C0 24.8366 7.16344 32 16 32Z" fill="#0052B4"/>
<path d="M16 6.26099L16.5181 7.8553H18.1944L16.8382 8.84061L17.3562 10.4349L16 9.44955L14.6438 10.4349L15.1619 8.84061L13.8057 7.8553H15.482L16 6.26099Z" fill="#FFDA44"/>
<path d="M9.1134 9.11346L10.6071 9.87446L11.7925 8.68921L11.5301 10.3448L13.0238 11.1059L11.3681 11.3681L11.1059 13.0239L10.3448 11.5302L8.68921 11.7925L9.87452 10.6072L9.1134 9.11346Z" fill="#FFDA44"/>
<path d="M6.26099 16L7.8553 15.482V13.8057L8.84055 15.1619L10.4349 14.6439L9.44949 16L10.4349 17.3562L8.84055 16.8382L7.8553 18.1944V16.5181L6.26099 16Z" fill="#FFDA44"/>
<path d="M9.1134 22.8867L9.87446 21.3929L8.68921 20.2076L10.3449 20.47L11.1058 18.9763L11.3681 20.632L13.0238 20.8943L11.5303 21.6553L11.7925 23.3109L10.6071 22.1256L9.1134 22.8867Z" fill="#FFDA44"/>
<path d="M16 25.7392L15.4819 24.1449H13.8057L15.1619 23.1596L14.6438 21.5654L16 22.5507L17.3562 21.5654L16.8382 23.1596L18.1944 24.1449H16.518L16 25.7392Z" fill="#FFDA44"/>
<path d="M22.8866 22.8867L21.3929 22.1257L20.2076 23.311L20.4699 21.6553L18.9763 20.8943L20.6319 20.632L20.8942 18.9763L21.6552 20.47L23.3108 20.2076L22.1255 21.3931L22.8866 22.8867Z" fill="#FFDA44"/>
<path d="M25.7392 16L24.1449 16.5181V18.1944L23.1596 16.8382L21.5654 17.3562L22.5507 16L21.5654 14.6439L23.1597 15.1619L24.1449 13.8057V15.482L25.7392 16Z" fill="#FFDA44"/>
<path d="M22.8866 9.1134L22.1256 10.6071L23.3109 11.7925L21.6551 11.5301L20.8942 13.0238L20.6319 11.3681L18.9763 11.1058L20.4699 10.3448L20.2076 8.68921L21.393 9.87446L22.8866 9.1134Z" fill="#FFDA44"/>
</g>
<defs>
<clipPath id="clip0_540_36258">
<rect width="32" height="32" fill="white"/>
</clipPath>
</defs>
</svg>
