<svg width="14" height="20" viewBox="0 0 14 20" fill="none" xmlns="http://www.w3.org/2000/svg">
<path d="M9.6129 10.2097L9.70711 10.2929L13.7071 14.2929C14.0676 14.6534 14.0953 15.2206 13.7903 15.6129L13.7071 15.7071L9.70711 19.7071C9.31658 20.0976 8.68342 20.0976 8.29289 19.7071C7.93241 19.3466 7.90468 18.7794 8.2097 18.3871L8.29289 18.2929L10.585 16H1C0.447715 16 4.12327e-08 15.5523 4.12327e-08 15C4.12327e-08 14.4872 0.38604 14.0645 0.883379 14.0067L1 14H10.585L8.29289 11.7071C7.93241 11.3466 7.90468 10.7794 8.2097 10.3871L8.29289 10.2929C8.65338 9.93241 9.22061 9.90468 9.6129 10.2097ZM5.70711 0.292893C6.06759 0.653377 6.09532 1.22061 5.7903 1.6129L5.70711 1.70711L3.414 4H13C13.5523 4 14 4.44772 14 5C14 5.51284 13.614 5.93551 13.1166 5.99327L13 6H3.414L5.70711 8.29289C6.06759 8.65338 6.09532 9.22061 5.7903 9.6129L5.70711 9.70711C5.34662 10.0676 4.77939 10.0953 4.3871 9.7903L4.29289 9.70711L0.292893 5.70711C-0.0675905 5.34662 -0.0953204 4.77939 0.209704 4.3871L0.292893 4.29289L4.29289 0.292893C4.68342 -0.0976311 5.31658 -0.0976311 5.70711 0.292893Z" fill="black"/>
</svg>
