<svg width="24" height="20" viewBox="0 0 24 20" fill="none" xmlns="http://www.w3.org/2000/svg">
<path fill-rule="evenodd" clip-rule="evenodd" d="M10.8005 -2.74002e-05L11.0001 7.64734e-06H13.0001L13.1997 -2.74002e-05C14.8687 -0.000470143 15.948 -0.000756621 16.8542 0.293669C18.6808 0.887176 20.1129 2.31928 20.7064 4.14591C20.8791 4.67722 20.9504 5.2681 20.9798 6.00247C21.1988 6.00723 21.3992 6.02061 21.5854 6.05764C22.7754 6.29436 23.7057 7.22466 23.9424 8.41473C24.0007 8.70758 24.0004 9.0354 24.0001 9.41609V9.41613L24.0001 9.5V12V12.2V12.2413C24.0001 13.0463 24.0001 13.7106 23.9559 14.2518C23.91 14.8139 23.8114 15.3306 23.5641 15.816C23.1806 16.5686 22.5687 17.1805 21.816 17.564C21.5539 17.6976 21.2827 17.7877 21.0001 17.8497V18.2L21.0001 18.2232C21.0002 18.3423 21.0002 18.4845 20.99 18.6098C20.9781 18.7551 20.9477 18.9631 20.8366 19.181C20.6928 19.4632 20.4633 19.6927 20.1811 19.8365C19.9631 19.9476 19.7551 19.978 19.6099 19.9899C19.4846 20.0001 19.3424 20.0001 19.2233 20H19.2232L19.2001 20H18.8001L18.777 20H18.7768C18.6578 20.0001 18.5155 20.0001 18.3903 19.9899C18.2451 19.978 18.0371 19.9476 17.8191 19.8365C17.5369 19.6927 17.3074 19.4632 17.1636 19.181C17.0525 18.9631 17.0221 18.7551 17.0102 18.6098C17 18.4845 17 18.3423 17.0001 18.2232L17.0001 18.2V18H7.0001V18.2L7.00011 18.2232C7.00015 18.3423 7.00021 18.4845 6.98997 18.6098C6.9781 18.7551 6.94766 18.9631 6.83661 19.181C6.6928 19.4632 6.46333 19.6927 6.18109 19.8365C5.96314 19.9476 5.75515 19.978 5.60993 19.9899C5.48465 20.0001 5.34244 20.0001 5.22334 20H5.22324L5.2001 20H4.8001L4.77695 20H4.77685C4.65776 20.0001 4.51555 20.0001 4.39027 19.9899C4.24505 19.978 4.03706 19.9476 3.81911 19.8365C3.53687 19.6927 3.3074 19.4632 3.16359 19.181C3.05254 18.9631 3.0221 18.7551 3.01023 18.6098C2.99999 18.4845 3.00005 18.3423 3.00009 18.2232L3.0001 18.2V17.8497C2.71749 17.7878 2.44623 17.6976 2.18413 17.564C1.43148 17.1805 0.819555 16.5686 0.436061 15.816L1.315 15.3681L0.436061 15.816C0.18877 15.3306 0.0902061 14.8139 0.0442809 14.2518C6.35833e-05 13.7106 7.40724e-05 13.0463 8.68277e-05 12.2413L8.73046e-05 12.2V12V9.5L4.29587e-05 9.41612C-0.000259952 9.03542 -0.0005209 8.70758 0.0577314 8.41473C0.294451 7.22466 1.22474 6.29436 2.41482 6.05764C2.60102 6.02061 2.80136 6.00722 3.02044 6.00247C3.04981 5.2681 3.12112 4.67722 3.29376 4.14591C3.88726 2.31928 5.31937 0.887176 7.14599 0.293669C8.05214 -0.000756621 9.13152 -0.000470143 10.8005 -2.74002e-05ZM5.01644 6.1773C5.99608 6.52975 6.73516 7.37265 6.94244 8.41473C7.0007 8.70758 7.00043 9.03542 7.00013 9.41611L7.00009 9.5V11H17.0001V9.5L17 9.41611C16.9997 9.03542 16.9995 8.70758 17.0577 8.41473C17.265 7.37264 18.0041 6.52975 18.9837 6.17729C18.9624 5.49851 18.9139 5.10127 18.8043 4.76394C18.4086 3.54619 17.4539 2.59145 16.2362 2.19578C15.6716 2.01234 14.9392 2.00001 13.0001 2.00001H11.0001C9.06098 2.00001 8.32859 2.01234 7.76403 2.19578C6.54628 2.59145 5.59154 3.54619 5.19587 4.76394C5.08626 5.10127 5.03774 5.49852 5.01644 6.1773ZM21.0001 8.57446V8.00386L21.0001 8.19957L21.0001 8.57446ZM3.00009 8.00386V8.57483L3.00006 8.19958L3.00009 8.00386ZM3.00009 8.00386C2.89051 8.00683 2.8426 8.01173 2.805 8.01921C2.40831 8.09812 2.09821 8.40822 2.0193 8.80491C2.00493 8.87716 2.00009 8.98741 2.00009 9.5V12V12.2C2.00009 13.0566 2.00086 13.6389 2.03764 14.089C2.07346 14.5274 2.13838 14.7516 2.21807 14.908C2.40982 15.2843 2.71578 15.5903 3.09211 15.782C3.24851 15.8617 3.47271 15.9266 3.91112 15.9624C4.36121 15.9992 4.94351 16 5.80009 16H18.2001C19.0567 16 19.639 15.9992 20.0891 15.9624C20.5275 15.9266 20.7517 15.8617 20.9081 15.782C21.2844 15.5903 21.5904 15.2843 21.7821 14.908C21.8618 14.7516 21.9267 14.5274 21.9625 14.089C21.9993 13.6389 22.0001 13.0566 22.0001 12.2V12V9.5C22.0001 8.98741 21.9952 8.87716 21.9809 8.80491C21.902 8.40822 21.5919 8.09812 21.1952 8.01921C21.1576 8.01173 21.1097 8.00684 21.0001 8.00386C20.8992 8.00111 20.7459 8 20.5001 8C19.9875 8 19.8772 8.00484 19.805 8.01921C19.4083 8.09812 19.0982 8.40822 19.0193 8.80491C19.0049 8.87716 19.0001 8.98741 19.0001 9.5V12C19.0001 12.5523 18.5524 13 18.0001 13H6.00009C5.4478 13 5.00009 12.5523 5.00009 12V9.5C5.00009 8.98741 4.99524 8.87716 4.98087 8.80491C4.90197 8.40822 4.59187 8.09812 4.19518 8.01921C4.12293 8.00484 4.01267 8 3.50009 8C3.25432 8 3.10104 8.00111 3.00009 8.00386Z" fill="black"/>
</svg>
