<svg width="19" height="21" viewBox="0 0 19 21" fill="none" xmlns="http://www.w3.org/2000/svg">
<path d="M12.5 5.5C12.5 3.56603 10.934 2 9 2C7.06603 2 5.5 3.56603 5.5 5.5C5.5 7.43397 7.06603 9 9 9C10.934 9 12.5 7.43397 12.5 5.5ZM14.5 5.5C14.5 8.53853 12.0385 11 9 11C5.96147 11 3.5 8.53853 3.5 5.5C3.5 2.46147 5.96147 0 9 0C12.0385 0 14.5 2.46147 14.5 5.5ZM2 17.6429C2 18.5862 1.91987 18.5 2.45588 18.5H16.0441C16.5801 18.5 16.5 18.5862 16.5 17.6429C16.5 15.3547 13.196 14 9.25 14C5.30402 14 2 15.3547 2 17.6429ZM0 17.6429C0 13.7626 4.29892 12 9.25 12C14.2011 12 18.5 13.7626 18.5 17.6429C18.5 19.6593 17.7189 20.5 16.0441 20.5H2.45588C0.781109 20.5 0 19.6593 0 17.6429Z" fill="black"/>
</svg>
