<svg width="26" height="18" viewBox="0 0 26 18" fill="none" xmlns="http://www.w3.org/2000/svg">
<path d="M17 0C23.3714 0 26 4.96513 26 11C26 15.4811 24.7404 18 22 18C20.8591 18 20.1032 17.5189 19.2418 16.5066L19.0789 16.3106C18.987 16.1975 18.627 15.7421 18.5364 15.6306L18.3798 15.4421C17.5017 14.4108 16.7721 14 15.5 14H10.5C9.22788 14 8.49826 14.4108 7.62024 15.4421L7.46361 15.6306C7.37298 15.7421 7.01296 16.1975 6.92108 16.3106L6.75821 16.5066C5.89678 17.5189 5.14092 18 4 18C1.25929 18 0 15.4814 0 11C0 4.96513 2.6286 0 9 0H17ZM17 2H9C4.07728 2 2 5.92376 2 11C2 14.5186 2.74071 16 4 16C4.42046 16 4.73067 15.8059 5.23779 15.2076L5.79499 14.5146L6.08767 14.1572C7.32064 12.7074 8.54425 12 10.5 12H15.5C17.4558 12 18.6794 12.7074 19.9123 14.1572L20.0886 14.3694L20.7622 15.2076C21.2693 15.8059 21.5795 16 22 16C23.2591 16 24 14.5183 24 11C24 5.92376 21.9227 2 17 2ZM8.51227 4.5C8.70349 4.5 8.86037 4.53713 8.99074 4.60685C9.12111 4.67658 9.22342 4.77889 9.29315 4.90926C9.36287 5.03963 9.4 5.19651 9.4 5.38773L9.399 6.599L10.6123 6.6C10.8035 6.6 10.9604 6.63713 11.0907 6.70685C11.2211 6.77658 11.3234 6.87889 11.3931 7.00926C11.4629 7.13963 11.5 7.29651 11.5 7.48773V7.51227C11.5 7.70349 11.4629 7.86037 11.3931 7.99074C11.3234 8.12111 11.2211 8.22342 11.0907 8.29315C10.9604 8.36287 10.8035 8.4 10.6123 8.4L9.399 8.399L9.4 9.61227C9.4 9.80349 9.36287 9.96037 9.29315 10.0907C9.22342 10.2211 9.12111 10.3234 8.99074 10.3931C8.86037 10.4629 8.70349 10.5 8.51227 10.5H8.48773C8.29651 10.5 8.13963 10.4629 8.00926 10.3931C7.87889 10.3234 7.77658 10.2211 7.70685 10.0907C7.63713 9.96037 7.6 9.80349 7.6 9.61227L7.599 8.399L6.38773 8.4C6.19651 8.4 6.03963 8.36287 5.90926 8.29315C5.77889 8.22342 5.67658 8.12111 5.60685 7.99074C5.53713 7.86037 5.5 7.70349 5.5 7.51227V7.48773C5.5 7.29651 5.53713 7.13963 5.60685 7.00926C5.67658 6.87889 5.77889 6.77658 5.90926 6.70685C6.03963 6.63713 6.19651 6.6 6.38773 6.6L7.599 6.599L7.6 5.38773C7.6 5.19651 7.63713 5.03963 7.70685 4.90926C7.77658 4.77889 7.87889 4.67658 8.00926 4.60685C8.13963 4.53713 8.29651 4.5 8.48773 4.5H8.51227ZM17.5736 8.5C17.8112 8.5 17.9604 8.53713 18.0907 8.60685C18.2211 8.67658 18.3234 8.77889 18.3931 8.90926C18.4629 9.03963 18.5 9.18878 18.5 9.42638V9.57362C18.5 9.81122 18.4629 9.96037 18.3931 10.0907C18.3234 10.2211 18.2211 10.3234 18.0907 10.3931C17.9604 10.4629 17.8112 10.5 17.5736 10.5H17.4264C17.1888 10.5 17.0396 10.4629 16.9093 10.3931C16.7789 10.3234 16.6766 10.2211 16.6069 10.0907C16.5371 9.96037 16.5 9.81122 16.5 9.57362V9.42638C16.5 9.18878 16.5371 9.03963 16.6069 8.90926C16.6766 8.77889 16.7789 8.67658 16.9093 8.60685C17.0396 8.53713 17.1888 8.5 17.4264 8.5H17.5736ZM15.5736 6.5C15.8112 6.5 15.9604 6.53713 16.0907 6.60685C16.2211 6.67658 16.3234 6.77889 16.3931 6.90926C16.4629 7.03963 16.5 7.18878 16.5 7.42638V7.57362C16.5 7.81122 16.4629 7.96037 16.3931 8.09074C16.3234 8.22111 16.2211 8.32342 16.0907 8.39315C15.9604 8.46287 15.8112 8.5 15.5736 8.5H15.4264C15.1888 8.5 15.0396 8.46287 14.9093 8.39315C14.7789 8.32342 14.6766 8.22111 14.6069 8.09074C14.5371 7.96037 14.5 7.81122 14.5 7.57362V7.42638C14.5 7.18878 14.5371 7.03963 14.6069 6.90926C14.6766 6.77889 14.7789 6.67658 14.9093 6.60685C15.0396 6.53713 15.1888 6.5 15.4264 6.5H15.5736ZM19.5736 6.5C19.8112 6.5 19.9604 6.53713 20.0907 6.60685C20.2211 6.67658 20.3234 6.77889 20.3931 6.90926C20.4629 7.03963 20.5 7.18878 20.5 7.42638V7.57362C20.5 7.81122 20.4629 7.96037 20.3931 8.09074C20.3234 8.22111 20.2211 8.32342 20.0907 8.39315C19.9604 8.46287 19.8112 8.5 19.5736 8.5H19.4264C19.1888 8.5 19.0396 8.46287 18.9093 8.39315C18.7789 8.32342 18.6766 8.22111 18.6069 8.09074C18.5371 7.96037 18.5 7.81122 18.5 7.57362V7.42638C18.5 7.18878 18.5371 7.03963 18.6069 6.90926C18.6766 6.77889 18.7789 6.67658 18.9093 6.60685C19.0396 6.53713 19.1888 6.5 19.4264 6.5H19.5736ZM17.5736 4.5C17.8112 4.5 17.9604 4.53713 18.0907 4.60685C18.2211 4.67658 18.3234 4.77889 18.3931 4.90926C18.4629 5.03963 18.5 5.18878 18.5 5.42638V5.57362C18.5 5.81122 18.4629 5.96037 18.3931 6.09074C18.3234 6.22111 18.2211 6.32342 18.0907 6.39315C17.9604 6.46287 17.8112 6.5 17.5736 6.5H17.4264C17.1888 6.5 17.0396 6.46287 16.9093 6.39315C16.7789 6.32342 16.6766 6.22111 16.6069 6.09074C16.5371 5.96037 16.5 5.81122 16.5 5.57362V5.42638C16.5 5.18878 16.5371 5.03963 16.6069 4.90926C16.6766 4.77889 16.7789 4.67658 16.9093 4.60685C17.0396 4.53713 17.1888 4.5 17.4264 4.5H17.5736Z" fill="black"/>
</svg>
