<svg width="32" height="32" viewBox="0 0 32 32" fill="none" xmlns="http://www.w3.org/2000/svg">
<g clip-path="url(#clip0_540_36416)">
<path d="M16 32C24.8366 32 32 24.8366 32 16C32 7.16344 24.8366 0 16 0C7.16344 0 0 7.16344 0 16C0 24.8366 7.16344 32 16 32Z" fill="#F0F0F0"/>
<path d="M31.0048 10.4348H0.995188C0.352 12.1681 0 14.0429 0 16C0 17.9571 0.352 19.8319 0.995188 21.5652H31.0049C31.648 19.8319 32 17.9571 32 16C32 14.0429 31.648 12.1681 31.0048 10.4348Z" fill="#0052B4"/>
<path d="M15.9999 0C11.1505 0 6.80528 2.15775 3.87109 5.56519H28.1287C25.1945 2.15775 20.8493 0 15.9999 0Z" fill="#D80027"/>
<path d="M28.1287 26.4348H3.87109C6.80528 29.8423 11.1505 32 15.9999 32C20.8493 32 25.1945 29.8423 28.1287 26.4348Z" fill="#D80027"/>
</g>
<defs>
<clipPath id="clip0_540_36416">
<rect width="32" height="32" fill="white"/>
</clipPath>
</defs>
</svg>
