<svg width="24" height="17" viewBox="0 0 24 17" fill="none" xmlns="http://www.w3.org/2000/svg">
<path fill-rule="evenodd" clip-rule="evenodd" d="M12 0C13.8075 0 15.2727 1.49728 15.2727 3.34426C15.2727 4.49211 14.5294 5.57841 13.0909 6.69817L13.0909 6.89741L22.1658 11.0223C23.2828 11.5301 24 12.6439 24 13.8709C24 15.5991 22.5991 17 20.8709 17H3.12907C1.40093 17 0 15.5991 0 13.8709C0 12.6439 0.717191 11.5301 1.83425 11.0223L10.9091 6.89742V6.69815C10.9091 6.00225 11.2271 5.34625 11.7688 4.9246C12.6598 4.23106 13.0909 3.65385 13.0909 3.34426C13.0909 2.7286 12.6025 2.22951 12 2.22951C11.3975 2.22951 10.9091 2.7286 10.9091 3.34426C10.9091 3.95992 10.4207 4.45902 9.81817 4.45902C9.21568 4.45902 8.72726 3.95992 8.72726 3.34426C8.72726 1.49728 10.1925 0 12 0ZM2.66186 12.8431L12 8.59847L21.3381 12.8431C21.7412 13.0263 22 13.4282 22 13.8709C22 14.4945 21.4945 15 20.8709 15H3.12907C2.5055 15 2 14.4945 2 13.8709C2 13.4282 2.25879 13.0263 2.66186 12.8431Z" fill="black"/>
</svg>
