<svg width="22" height="22" viewBox="0 0 22 22" fill="none" xmlns="http://www.w3.org/2000/svg">
<path fill-rule="evenodd" clip-rule="evenodd" d="M3.51628 18.4873L4.98642 20.7593C5.65933 21.7992 6.95059 22.2522 8.12569 21.8605C9.37099 21.4454 10.1412 20.1991 9.9556 18.8997L9.72547 17.2888C10.1423 17.0034 10.5741 16.6865 11.0155 16.3425L13.2145 19.484C14.0678 20.7031 15.6854 21.113 17.0163 20.4476C18.2272 19.8422 18.883 18.5013 18.6175 17.1738L17.2769 10.4705L18.9495 8.7979C20.0897 7.6577 21.0048 6.37805 21.5235 5.16769C21.7805 4.56801 21.9827 3.88707 22.0021 3.1913C22.0217 2.48972 21.8515 1.58294 21.136 0.867512C20.4206 0.152085 19.5138 -0.0180926 18.8123 0.00148453C18.1165 0.0208996 17.4356 0.223055 16.8359 0.480063C15.6255 0.998787 14.3459 1.91387 13.2057 3.05406L11.533 4.72672L4.82978 3.38612C3.50243 3.12066 2.1616 3.77638 1.55615 4.98706C0.890553 6.31801 1.30047 7.93569 2.51957 8.78906L5.66103 10.9881C5.31707 11.4295 5.00013 11.8613 4.71477 12.2781L3.10391 12.048C1.80444 11.8623 0.558152 12.6326 0.14305 13.8779C-0.248653 15.053 0.204306 16.3442 1.24425 17.0171L3.51628 18.4873ZM4.67475 16.8547C4.7822 16.9242 4.83593 16.959 4.88439 16.9999C4.92744 17.0362 4.96734 17.0761 5.00366 17.1192C5.04456 17.1676 5.07933 17.2214 5.14886 17.3288L6.66556 19.6728C6.84298 19.947 7.18342 20.0664 7.49324 19.9631C7.82157 19.8537 8.02464 19.5251 7.9757 19.1825L7.71611 17.3654C7.66074 16.9778 7.63306 16.784 7.66574 16.6177C7.6965 16.4611 7.75045 16.3396 7.84596 16.2118C7.94745 16.076 8.12524 15.9562 8.48082 15.7165C8.96848 15.3877 9.48982 15.0032 10.0332 14.5702C10.543 14.1641 10.7979 13.961 11.0436 13.9155C11.2668 13.8742 11.4763 13.9045 11.6786 14.0073C11.9014 14.1206 12.0796 14.3751 12.4359 14.8841L14.853 18.3371C15.1378 18.744 15.6777 18.8808 16.1219 18.6587C16.5261 18.4567 16.745 18.0091 16.6564 17.566L15.2737 10.6528C15.2123 10.3459 15.1816 10.1924 15.1961 10.0446C15.2089 9.91372 15.2473 9.78669 15.3093 9.67073C15.3792 9.53975 15.4899 9.42906 15.7113 9.20768L17.5353 7.38368C19.5479 5.37102 20.5269 3.08679 19.7218 2.28173C18.9168 1.47666 16.6325 2.45561 14.6199 4.46828L12.7958 6.29231C12.5745 6.51368 12.4638 6.62437 12.3328 6.69433C12.2168 6.75626 12.0898 6.79472 11.959 6.80751C11.8112 6.82196 11.6577 6.79126 11.3507 6.72987L4.43756 5.34728C3.99453 5.25868 3.54702 5.47754 3.34494 5.88162C3.12278 6.32585 3.2596 6.86577 3.66649 7.15059L7.11944 9.56766C7.62846 9.92397 7.88296 10.1021 7.99621 10.3249C8.09903 10.5272 8.12933 10.7368 8.08805 10.9599C8.04259 11.2057 7.8395 11.4606 7.43333 11.9703C7.00035 12.5137 6.6158 13.0351 6.28707 13.5228C6.04737 13.8783 5.92752 14.0561 5.79172 14.1576C5.66391 14.2531 5.54241 14.3071 5.38584 14.3378C5.21949 14.3705 5.02571 14.3428 4.63814 14.2875L2.82105 14.0279C2.47844 13.9789 2.14986 14.182 2.04042 14.5103C1.93714 14.8201 2.05657 15.1606 2.33075 15.338L4.67475 16.8547Z" fill="black"/>
</svg>
