<svg width="24" height="26" viewBox="0 0 24 26" fill="none" xmlns="http://www.w3.org/2000/svg">
<path fill-rule="evenodd" clip-rule="evenodd" d="M15.3163 1.05133C14.7923 0.876678 14.226 1.15984 14.0513 1.68378L13.9049 2.12312C13.5947 3.05386 13.6668 4.06972 14.1056 4.94722C14.3071 5.3503 14.3403 5.81692 14.1978 6.24444L14.0513 6.68378C13.8767 7.20772 14.1599 7.77404 14.6838 7.94869C15.2077 8.12334 15.7741 7.84018 15.9487 7.31624L16.0952 6.8769C16.4054 5.94616 16.3332 4.9303 15.8945 4.0528C15.6929 3.64972 15.6598 3.1831 15.8023 2.75558L15.9487 2.31624C16.1234 1.79229 15.8402 1.22597 15.3163 1.05133Z" fill="black"/>
<path fill-rule="evenodd" clip-rule="evenodd" d="M5.31626 1.05133C4.79231 0.876678 4.22599 1.15984 4.05135 1.68378L3.9049 2.12312C3.59465 3.05386 3.66685 4.06972 4.1056 4.94722C4.30714 5.3503 4.3403 5.81692 4.19779 6.24444L4.05134 6.68378C3.8767 7.20772 4.15986 7.77404 4.6838 7.94869C5.20774 8.12334 5.77406 7.84018 5.94871 7.31624L6.09516 6.8769C6.4054 5.94616 6.33321 4.9303 5.89446 4.0528C5.69292 3.64972 5.65976 3.1831 5.80227 2.75558L5.94871 2.31624C6.12336 1.79229 5.8402 1.22597 5.31626 1.05133Z" fill="black"/>
<path fill-rule="evenodd" clip-rule="evenodd" d="M10.2677 0.0364915C9.73554 -0.111324 9.18433 0.200229 9.03651 0.732366L8.81411 1.533C8.57432 2.39626 8.63128 3.31502 8.97587 4.14204L9.17803 4.62721C9.35032 5.04072 9.37881 5.5001 9.25891 5.93173L9.03651 6.73237C8.88869 7.2645 9.20025 7.81571 9.73238 7.96353C10.2645 8.11134 10.8157 7.79979 10.9635 7.26765L11.1859 6.46702C11.4257 5.60376 11.3688 4.685 11.0242 3.85798L10.822 3.37281C10.6497 2.9593 10.6213 2.49992 10.7411 2.06829L10.9635 1.26765C11.1114 0.735517 10.7998 0.184307 10.2677 0.0364915Z" fill="black"/>
<path fill-rule="evenodd" clip-rule="evenodd" d="M17.2182 10.0354C16.8042 9.99997 16.2967 9.99999 15.7037 10H4.29654C3.70352 9.99999 3.19601 9.99997 2.782 10.0354C2.34836 10.0725 1.9158 10.1546 1.51032 10.3812C0.911423 10.7159 0.44533 11.2457 0.189744 11.8824C0.0167051 12.3135 -0.00951942 12.753 0.00895039 13.1878C0.0265842 13.6029 0.0913111 14.1063 0.166945 14.6945L0.551873 17.6887L0.576591 17.8811C0.819435 19.7729 0.97097 20.9533 1.41995 21.9282C2.2475 23.7251 3.79673 25.0879 5.68446 25.6796C6.70864 26.0006 7.89877 26.0004 9.80604 26L10.0001 26L10.1941 26C12.1014 26.0004 13.2915 26.0006 14.3156 25.6796C16.2034 25.0879 17.7526 23.7251 18.5801 21.9283C18.6724 21.7281 18.752 21.5192 18.8225 21.2973L21.2443 20.5708C22.8799 20.0801 24 18.5746 24 16.8669C24 14.7313 22.2687 13 20.1331 13H19.9962C19.9992 12.6268 19.9586 12.2515 19.8105 11.8824C19.5549 11.2457 19.0888 10.7159 18.4899 10.3812C18.0844 10.1546 17.6519 10.0725 17.2182 10.0354ZM19.4483 17.6888L19.4235 17.8813C19.3679 18.3149 19.317 18.7111 19.2663 19.0761L20.6696 18.6551C21.4592 18.4182 22 17.6914 22 16.8669C22 15.8359 21.1642 15 20.1331 15H19.794L19.4483 17.6888ZM2.95261 12.0281C2.64421 12.0545 2.53523 12.0995 2.48597 12.1271C2.28634 12.2386 2.13098 12.4152 2.04578 12.6275C2.02476 12.6798 1.99401 12.7937 2.00715 13.1029C2.02071 13.4222 2.07355 13.8399 2.1559 14.4805L2.53555 17.4337C2.81169 19.5816 2.93231 20.431 3.23655 21.0916C3.82766 22.3751 4.93425 23.3485 6.28263 23.7711C6.97664 23.9887 7.83444 24 10.0001 24C12.1657 24 13.0235 23.9887 13.7175 23.7711C15.0659 23.3485 16.1724 22.3751 16.7636 21.0916C17.0678 20.431 17.1884 19.5817 17.4646 17.4338L17.8443 14.4806C17.9267 13.8399 17.9795 13.4222 17.9931 13.1029C18.0062 12.7937 17.9755 12.6798 17.9544 12.6275C17.8692 12.4153 17.7139 12.2386 17.5142 12.1271C17.465 12.0995 17.356 12.0545 17.0476 12.0281C16.7292 12.0009 16.3081 12 15.6623 12H4.33794C3.69206 12 3.27103 12.0009 2.95261 12.0281Z" fill="black"/>
</svg>
