<svg width="32" height="32" viewBox="0 0 32 32" fill="none" xmlns="http://www.w3.org/2000/svg">
<g clip-path="url(#clip0_540_36222)">
<path d="M32 15.9999C32 14.0428 31.6479 12.168 31.0048 10.4347L16 9.73901L0.995188 10.4346C0.352063 12.168 0 14.0428 0 15.9999C0 17.957 0.352063 19.8318 0.995188 21.5651L16 22.2608L31.0048 21.5651C31.6479 19.8318 32 17.957 32 15.9999Z" fill="#F0F0F0"/>
<path d="M15.9999 32C22.8794 32 28.7441 27.658 31.0047 21.5652H0.995117C3.2558 27.658 9.12049 32 15.9999 32Z" fill="#0052B4"/>
<path d="M0.995117 10.4348H31.0048C28.7441 4.342 22.8794 0 15.9999 0C9.12049 0 3.2558 4.342 0.995117 10.4348Z" fill="#D80027"/>
<path d="M20.174 11.1306H17.3914L17.8552 7.6523L19.7102 6.26099L21.5652 7.6523V10.4349L20.174 11.1306Z" fill="#338AF3"/>
<path d="M11.8261 11.1306H14.6087L14.1449 7.6523L12.2898 6.26099L10.4348 7.6523V10.4349L11.8261 11.1306Z" fill="#338AF3"/>
<path d="M17.855 11.1306H14.1448V7.6523L15.9999 6.26099L17.855 7.6523V11.1306Z" fill="#0052B4"/>
<path d="M10.4348 10.4348V18.0869C10.4348 19.909 11.3149 21.5294 12.6724 22.5452L13.6464 22.3015L14.8754 23.5379C15.2388 23.6128 15.6149 23.6522 16.0001 23.6522C16.3832 23.6522 16.7574 23.6133 17.1189 23.5391L18.5218 22.371L19.3276 22.5429C20.6845 21.5272 21.5653 19.9085 21.5653 18.0869V10.4348H10.4348Z" fill="#F0F0F0"/>
<path d="M10.4348 10.4348H12.6609V12.6609H10.4348V10.4348Z" fill="#D80027"/>
<path d="M14.887 10.4348H17.113V12.6609H14.887V10.4348Z" fill="#D80027"/>
<path d="M19.3391 10.4348H21.5652V12.6609H19.3391V10.4348Z" fill="#D80027"/>
<path d="M12.6609 12.6609H14.887V14.887H12.6609V12.6609Z" fill="#D80027"/>
<path d="M17.113 12.6609H19.3391V14.887H17.113V12.6609Z" fill="#D80027"/>
<path d="M10.4348 14.8862H12.6609V17.1123H10.4348V14.8862Z" fill="#D80027"/>
<path d="M12.6609 17.1123H14.887V19.3384H12.6609V17.1123Z" fill="#D80027"/>
<path d="M14.887 14.8862H17.113V17.1123H14.887V14.8862Z" fill="#D80027"/>
<path d="M19.3391 14.8862H21.5652V17.1123H19.3391V14.8862Z" fill="#D80027"/>
<path d="M17.113 17.1123H19.3391V19.3384H17.113V17.1123Z" fill="#D80027"/>
<path d="M14.887 19.3384H17.113V21.5644H14.887V19.3384Z" fill="#D80027"/>
<path d="M12.6608 19.3386H10.5784C10.7694 20.1661 11.1449 20.9233 11.6597 21.5647H12.6608V19.3386Z" fill="#D80027"/>
<path d="M19.3391 21.5647H20.3401C20.8551 20.9233 21.2305 20.1661 21.4215 19.3386H19.3391V21.5647Z" fill="#D80027"/>
<path d="M12.6609 21.5647V22.536C13.3083 23.0232 14.065 23.3725 14.887 23.5401V21.5647H12.6609Z" fill="#D80027"/>
<path d="M17.113 21.5647V23.5401C17.9351 23.3726 18.6917 23.0232 19.3391 22.536V21.5647H17.113Z" fill="#D80027"/>
</g>
<defs>
<clipPath id="clip0_540_36222">
<rect width="32" height="32" fill="white"/>
</clipPath>
</defs>
</svg>
