<svg width="18" height="16" viewBox="0 0 18 16" fill="none" xmlns="http://www.w3.org/2000/svg">
<path d="M17.7071 7.29289L10.7071 0.292893C10.3166 -0.0976311 9.68342 -0.0976311 9.29289 0.292893C8.93241 0.653377 8.90468 1.22061 9.2097 1.6129L9.29289 1.70711L14.586 7H1C0.487164 7 0.0644928 7.38604 0.0067277 7.88338L0 8C0 8.51284 0.38604 8.93551 0.883379 8.99327L1 9H14.586L9.29289 14.2929C8.93241 14.6534 8.90468 15.2206 9.2097 15.6129L9.29289 15.7071C9.65338 16.0676 10.2206 16.0953 10.6129 15.7903L10.7071 15.7071L17.7071 8.70711L17.8037 8.59531L17.8753 8.48406L17.9288 8.37134L17.9642 8.26599L17.989 8.14847L17.996 8.08925L17.9998 7.98082L17.996 7.91075L17.9798 7.79927L17.9503 7.68786L17.9063 7.57678L17.854 7.47929L17.7872 7.38325C17.7623 7.35153 17.7356 7.32136 17.7071 7.29289L10.7071 0.292893L17.7071 7.29289Z" fill="black"/>
</svg>
