<svg width="28" height="23" viewBox="0 0 28 23" fill="none" xmlns="http://www.w3.org/2000/svg">
<g filter="url(#filter0_d_2_1182)">
<path fill-rule="evenodd" clip-rule="evenodd" d="M11.2846 -4.69407e-05L11.4554 -5.6826e-07H16.5446L16.7153 -4.69407e-05C17.9856 -0.000568839 18.8632 -0.000929207 19.6582 0.273273C20.3588 0.514934 20.997 0.909326 21.5264 1.42791C22.1272 2.01632 22.5194 2.80144 23.087 3.93788L23.1633 4.09062L24.118 6H25.5C26.0523 6 26.5 6.44772 26.5 7V7.35368C26.5 8.2865 25.8299 9.01479 25 9.17992V13L25 15.2L25 15.2231L25 15.2721V17.28L25 17.3017C25.0001 17.4079 25.0001 17.5399 24.9906 17.657C24.9794 17.7939 24.9503 17.9957 24.842 18.2083C24.703 18.4811 24.4811 18.7029 24.2083 18.842C23.9957 18.9503 23.7939 18.9794 23.657 18.9905C23.5399 19.0001 23.4079 19.0001 23.3017 19L23.28 19H22.72L22.6983 19C22.5921 19.0001 22.4601 19.0001 22.343 18.9905C22.2061 18.9794 22.0043 18.9503 21.7917 18.842C21.5189 18.7029 21.2971 18.4811 21.1581 18.2083C21.0497 17.9957 21.0206 17.7939 21.0095 17.657C20.9999 17.5399 21 17.4079 21 17.3017L21 17.28V17H7.00001V17.28L7.00002 17.3017C7.00007 17.4079 7.00013 17.5399 6.99056 17.657C6.97938 17.7939 6.9503 17.9957 6.84197 18.2083C6.70296 18.4811 6.48113 18.7029 6.2083 18.842C5.9957 18.9503 5.79388 18.9794 5.657 18.9905C5.53992 19.0001 5.40791 19.0001 5.30172 19L5.28001 19H4.72001L4.69831 19C4.59212 19.0001 4.46011 19.0001 4.34302 18.9905C4.20614 18.9794 4.00433 18.9503 3.79173 18.842C3.51889 18.7029 3.29707 18.4811 3.15805 18.2083C3.04973 17.9957 3.02065 17.7939 3.00947 17.657C2.9999 17.5399 2.99996 17.4079 3.00001 17.3017L3.00001 17.28V15.3485L3.00001 15.3017L3.00001 15.28V13.7841L2.99997 13.6361L2.99997 9.17991C2.17006 9.01476 1.5 8.28648 1.5 7.35368V7C1.5 6.44772 1.94772 6 2.5 6H3.88194L4.83663 4.09062L4.91295 3.93787C5.48059 2.80143 5.87274 2.01632 6.47351 1.42791C7.00299 0.909326 7.64113 0.514934 8.34175 0.273273C9.13672 -0.000929207 10.0143 -0.000568839 11.2846 -4.69407e-05ZM5.01709 14.5038C5.00243 14.3243 5.0003 14.0907 5.00001 13.7291V12L4.99997 9.02059C5.07134 9.03379 5.15944 9.04907 5.2659 9.06588C5.58739 9.11664 6.0782 9.18168 6.78446 9.24589C8.19625 9.37423 10.4773 9.49999 14 9.49999C17.5227 9.49999 19.8037 9.37423 21.2155 9.24589C21.9218 9.18168 22.4126 9.11664 22.7341 9.06588C22.8405 9.04907 22.9286 9.0338 23 9.0206V13.6C23 14.0365 22.9992 14.3038 22.9829 14.5038C22.9752 14.5969 22.9657 14.6533 22.9576 14.6875C22.9538 14.7038 22.9506 14.7138 22.9486 14.7192C22.9468 14.7244 22.9455 14.727 22.9455 14.727C22.8975 14.8211 22.821 14.8976 22.727 14.9455C22.727 14.9455 22.7254 14.9463 22.7225 14.9474L22.7192 14.9487C22.7138 14.9506 22.7038 14.9538 22.6875 14.9577C22.6532 14.9657 22.5969 14.9753 22.5037 14.9829C22.3038 14.9992 22.0365 15 21.6 15H6.39997C5.96343 15 5.69617 14.9992 5.49621 14.9829C5.40306 14.9753 5.3467 14.9657 5.31247 14.9577C5.29619 14.9538 5.28618 14.9506 5.28076 14.9487C5.27556 14.9468 5.27298 14.9455 5.27298 14.9455C5.1789 14.8976 5.10241 14.8211 5.05447 14.727C5.05447 14.727 5.05315 14.7244 5.0513 14.7192C5.04937 14.7138 5.04615 14.7038 5.04232 14.6875C5.03426 14.6533 5.0247 14.5969 5.01709 14.5038ZM22.4268 7.08963L21.3745 4.98505C20.6999 3.63596 20.4577 3.1806 20.127 2.85675C19.8093 2.5456 19.4264 2.30896 19.0061 2.16396C18.5685 2.01305 18.0529 2 16.5446 2H11.4554C9.94707 2 9.43143 2.01305 8.9939 2.16396C8.57352 2.30896 8.19064 2.5456 7.87295 2.85675C7.54229 3.1806 7.30003 3.63596 6.62548 4.98505L5.5732 7.08962L5.57783 7.09035C5.85009 7.13334 6.29679 7.1933 6.96553 7.2541C8.30373 7.37575 10.5227 7.49999 14 7.49999C17.4773 7.49999 19.6963 7.37575 21.0345 7.2541C21.7032 7.1933 22.1499 7.13334 22.4222 7.09035L22.4268 7.08963ZM20.124 12.9923C20.672 12.9238 21.0608 12.424 20.9923 11.8759C20.9238 11.3279 20.424 10.9392 19.8759 11.0077L17.8759 11.2577C17.3279 11.3262 16.9392 11.826 17.0077 12.374C17.0762 12.922 17.576 13.3108 18.124 13.2423L20.124 12.9923ZM7.00774 11.8759C6.93924 12.424 7.32796 12.9238 7.87598 12.9923L9.87598 13.2423C10.424 13.3108 10.9238 12.922 10.9923 12.374C11.0608 11.826 10.6721 11.3262 10.1241 11.2577L8.12405 11.0077C7.57603 10.9392 7.07624 11.3279 7.00774 11.8759Z" fill="black"/>
</g>
<defs>
<filter id="filter0_d_2_1182" x="-2.5" y="-9.15527e-05" width="33" height="27.0001" filterUnits="userSpaceOnUse" color-interpolation-filters="sRGB">
<feFlood flood-opacity="0" result="BackgroundImageFix"/>
<feColorMatrix in="SourceAlpha" type="matrix" values="0 0 0 0 0 0 0 0 0 0 0 0 0 0 0 0 0 0 127 0" result="hardAlpha"/>
<feOffset dy="4"/>
<feGaussianBlur stdDeviation="2"/>
<feComposite in2="hardAlpha" operator="out"/>
<feColorMatrix type="matrix" values="0 0 0 0 0 0 0 0 0 0 0 0 0 0 0 0 0 0 0.25 0"/>
<feBlend mode="normal" in2="BackgroundImageFix" result="effect1_dropShadow_2_1182"/>
<feBlend mode="normal" in="SourceGraphic" in2="effect1_dropShadow_2_1182" result="shape"/>
</filter>
</defs>
</svg>
