<svg width="32" height="32" viewBox="0 0 32 32" fill="none" xmlns="http://www.w3.org/2000/svg">
<g clip-path="url(#clip0_540_36269)">
<path d="M16 32C24.8366 32 32 24.8366 32 16C32 7.16344 24.8366 0 16 0C7.16344 0 0 7.16344 0 16C0 24.8366 7.16344 32 16 32Z" fill="#D80027"/>
<path d="M17.6517 12.1042C17.2881 13.6166 16.642 13.3282 16.325 14.6472C14.4573 14.1981 13.307 12.32 13.7561 10.4522C14.205 8.58448 16.0833 7.43423 17.951 7.88329C17.3168 10.5212 17.977 10.7515 17.6517 12.1042Z" fill="#F0F0F0"/>
<path d="M12.8054 13.2249C14.1314 14.038 13.6574 14.5634 14.8138 15.2726C13.8095 16.9102 11.668 17.4236 10.0304 16.4194C8.39279 15.4152 7.87923 13.2735 8.88348 11.636C11.1964 13.0542 11.6192 12.4975 12.8054 13.2249Z" fill="#F0F0F0"/>
<path d="M12.3735 18.1807C13.5567 17.1708 13.9098 17.7839 14.9416 16.9033C16.1888 18.3644 16.0153 20.5599 14.5543 21.8071C13.0931 23.0543 10.8976 22.8806 9.65063 21.4196C11.714 19.6582 11.3152 19.0839 12.3735 18.1807Z" fill="#F0F0F0"/>
<path d="M16.9532 20.1226C16.3582 18.6853 17.0504 18.5388 16.5317 17.2855C18.3067 16.551 20.3412 17.3943 21.0758 19.1693C21.8104 20.9442 20.9669 22.9787 19.1919 23.7133C18.1546 21.2065 17.4853 21.4083 16.9532 20.1226Z" fill="#F0F0F0"/>
<path d="M20.2156 16.3673C18.6648 16.489 18.7392 15.7852 17.387 15.8913C17.2369 13.9764 18.6677 12.302 20.5828 12.1517C22.4978 12.0017 24.1722 13.4325 24.3223 15.3476C21.6175 15.5597 21.6025 16.2586 20.2156 16.3673Z" fill="#F0F0F0"/>
</g>
<defs>
<clipPath id="clip0_540_36269">
<rect width="32" height="32" fill="white"/>
</clipPath>
</defs>
</svg>
