<svg width="48" height="48" viewBox="0 0 48 48" fill="none" xmlns="http://www.w3.org/2000/svg">
<circle cx="24" cy="24" r="24" fill="#E0E0E0"/>
<path d="M27.5 18.5C27.5 16.566 25.934 15 24 15C22.066 15 20.5 16.566 20.5 18.5C20.5 20.434 22.066 22 24 22C25.934 22 27.5 20.434 27.5 18.5ZM29.5 18.5C29.5 21.5385 27.0385 24 24 24C20.9615 24 18.5 21.5385 18.5 18.5C18.5 15.4615 20.9615 13 24 13C27.0385 13 29.5 15.4615 29.5 18.5ZM17 30.6429C17 31.5862 16.9199 31.5 17.4559 31.5H31.0441C31.5801 31.5 31.5 31.5862 31.5 30.6429C31.5 28.3547 28.196 27 24.25 27C20.304 27 17 28.3547 17 30.6429ZM15 30.6429C15 26.7626 19.2989 25 24.25 25C29.2011 25 33.5 26.7626 33.5 30.6429C33.5 32.6593 32.7189 33.5 31.0441 33.5H17.4559C15.7811 33.5 15 32.6593 15 30.6429Z" fill="#B6B8BE"/>
</svg>
