<svg width="20" height="24" viewBox="0 0 20 24" fill="none" xmlns="http://www.w3.org/2000/svg">
<path fill-rule="evenodd" clip-rule="evenodd" d="M10 0C4.44558 0 0 4.47929 0 10C0 12.8504 0.98581 14.6929 2.16471 16.1284C2.61549 16.6773 3.10446 17.1773 3.54388 17.6266C3.65501 17.7402 3.76299 17.8506 3.86636 17.9577C4.35807 18.4672 4.76283 18.9186 5.06773 19.394L5.57538 21.4246L5.60692 21.5517C5.73516 22.0701 5.86354 22.5892 6.17 22.9984C6.43645 23.3543 6.79297 23.6327 7.20281 23.8048C7.67419 24.0029 8.20889 24.0016 8.74295 24.0002L8.87386 24H11.1261L11.257 24.0002C11.7911 24.0016 12.3258 24.0029 12.7972 23.8048C13.207 23.6327 13.5635 23.3543 13.83 22.9984C14.1365 22.5892 14.2648 22.0701 14.3931 21.5517L14.4246 21.4246L14.9323 19.394C15.2372 18.9186 15.6419 18.4672 16.1336 17.9577C16.2369 17.8507 16.3448 17.7404 16.4558 17.6269C16.8952 17.1776 17.3845 16.6773 17.8353 16.1284C19.0142 14.6929 20 12.8504 20 10C20 4.44772 15.5523 0 10 0ZM2 10C2 5.57959 5.55442 2 10 2C14.4477 2 18 5.55228 18 10C18 12.2996 17.2358 13.7071 16.2897 14.8591C15.8995 15.3343 15.4884 15.7548 15.0563 16.197C14.9373 16.3188 14.8167 16.4422 14.6945 16.5689C14.2744 17.0042 13.84 17.4736 13.4625 18H11V15.5L12.6 14.3C13.0418 13.9686 13.1314 13.3418 12.8 12.9C12.4686 12.4582 11.8418 12.3686 11.4 12.7L10 13.75L8.6 12.7C8.15817 12.3686 7.53137 12.4582 7.2 12.9C6.86863 13.3418 6.95817 13.9686 7.4 14.3L9 15.5V18H6.53754C6.16002 17.4736 5.72562 17.0042 5.30551 16.5689C5.1833 16.4422 5.06269 16.3188 4.94369 16.197C4.51156 15.7549 4.10053 15.3343 3.71029 14.8591C2.76419 13.7071 2 12.2996 2 10ZM7.28078 20L7.51566 20.9396C7.70068 21.6796 7.74004 21.7584 7.77093 21.7997C7.82422 21.8709 7.89553 21.9265 7.97749 21.961C8.025 21.9809 8.111 22 8.87386 22H11.1261C11.889 22 11.975 21.9809 12.0225 21.961C12.1045 21.9265 12.1758 21.8709 12.2291 21.7997C12.26 21.7584 12.2993 21.6796 12.4843 20.9396L12.7192 20H7.28078Z" fill="black"/>
</svg>
