<svg width="22" height="22" viewBox="0 0 22 22" fill="none" xmlns="http://www.w3.org/2000/svg">
<path d="M14.924 0C16.8822 0.0206819 17.8787 0.231702 18.912 0.784308C19.9011 1.31328 20.6833 2.09549 21.2123 3.08458C21.7649 4.11786 21.9759 5.11438 21.9966 7.07256V14.924C21.9759 16.8822 21.7649 17.8787 21.2123 18.912C20.6833 19.9011 19.9011 20.6833 18.912 21.2123C17.8787 21.7649 16.8822 21.9759 14.924 21.9966H7.07256C5.11438 21.9759 4.11786 21.7649 3.08458 21.2123C2.09549 20.6833 1.31328 19.9011 0.784308 18.912C0.231702 17.8787 0.0206819 16.8822 0 14.924V7.07256C0.0206819 5.11438 0.231702 4.11786 0.784308 3.08458C1.31328 2.09549 2.09549 1.31328 3.08458 0.784308C4.11786 0.231702 5.11438 0.0206819 7.07256 0H14.924ZM14.5886 1.99829H7.408L6.85062 2.00317C5.37134 2.03122 4.70897 2.18363 4.02777 2.54793C3.38723 2.8905 2.8905 3.38723 2.54793 4.02777C2.18363 4.70897 2.03122 5.37134 2.00317 6.85062L1.99829 7.408V14.5886L2.00317 15.146C2.03122 16.6252 2.18363 17.2876 2.54793 17.9688C2.8905 18.6094 3.38723 19.1061 4.02777 19.4486C4.70897 19.813 5.37134 19.9654 6.85062 19.9934L7.408 19.9983H14.5886L15.146 19.9934C16.6252 19.9654 17.2876 19.813 17.9688 19.4486C18.6094 19.1061 19.1061 18.6094 19.4486 17.9688C19.813 17.2876 19.9654 16.6252 19.9934 15.146L19.9983 14.5886V7.408L19.9934 6.85062C19.9654 5.37134 19.813 4.70897 19.4486 4.02777C19.1061 3.38723 18.6094 2.8905 17.9688 2.54793C17.2876 2.18363 16.6252 2.03122 15.146 2.00317L14.5886 1.99829ZM11 6C11.5523 6 12 6.44772 12 7V10H15C15.5523 10 16 10.4477 16 11C16 11.5523 15.5523 12 15 12H12V15C12 15.5523 11.5523 16 11 16C10.4477 16 10 15.5523 10 15V12H7C6.44772 12 6 11.5523 6 11C6 10.4477 6.44772 10 7 10H10V7C10 6.44772 10.4477 6 11 6Z" fill="black"/>
</svg>
