<svg width="32" height="32" viewBox="0 0 32 32" fill="none" xmlns="http://www.w3.org/2000/svg">
<g clip-path="url(#clip0_540_36384)">
<path d="M16 32C24.8366 32 32 24.8366 32 16C32 7.16344 24.8366 0 16 0C7.16344 0 0 7.16344 0 16C0 24.8366 7.16344 32 16 32Z" fill="#F0F0F0"/>
<path d="M21.5652 16C21.5652 17.3913 19.0736 20.8696 16 20.8696C12.9264 20.8696 10.4348 17.3913 10.4348 16C10.4348 12.9264 12.9264 10.4348 16 10.4348C19.0736 10.4348 21.5652 12.9264 21.5652 16Z" fill="#D80027"/>
<path d="M21.5652 16C21.5652 19.0736 19.0736 21.5652 16 21.5652C12.9264 21.5652 10.4348 19.0736 10.4348 16" fill="#0052B4"/>
<path d="M21.8984 20.9192L23.3739 19.4437L24.3576 20.4274L22.8821 21.9028L21.8984 20.9192Z" fill="black"/>
<path d="M19.4385 23.3784L20.9139 21.903L21.8976 22.8866L20.4221 24.3621L19.4385 23.3784Z" fill="black"/>
<path d="M24.8496 23.8701L26.3251 22.3947L27.3087 23.3783L25.8333 24.8538L24.8496 23.8701Z" fill="black"/>
<path d="M22.3899 26.3296L23.8654 24.8541L24.849 25.8378L23.3735 27.3132L22.3899 26.3296Z" fill="black"/>
<path d="M23.374 22.3948L24.8495 20.9193L25.8331 21.903L24.3577 23.3784L23.374 22.3948Z" fill="black"/>
<path d="M20.9148 24.854L22.3903 23.3785L23.3739 24.3622L21.8985 25.8377L20.9148 24.854Z" fill="black"/>
<path d="M24.8562 11.0835L20.9216 7.14891L21.9053 6.16525L25.8399 10.0998L24.8562 11.0835Z" fill="black"/>
<path d="M20.9207 10.1001L19.4452 8.62463L20.4288 7.64102L21.9043 9.11648L20.9207 10.1001Z" fill="black"/>
<path d="M23.3799 12.5598L21.9044 11.0844L22.888 10.1007L24.3635 11.5762L23.3799 12.5598Z" fill="black"/>
<path d="M23.8713 7.14868L22.3959 5.67322L23.3795 4.68956L24.855 6.16502L23.8713 7.14868Z" fill="black"/>
<path d="M26.3318 9.60889L24.8563 8.13342L25.84 7.14976L27.3154 8.62523L26.3318 9.60889Z" fill="black"/>
<path d="M5.67212 22.3921L9.60671 26.3267L8.62305 27.3103L4.68846 23.3757L5.67212 22.3921Z" fill="black"/>
<path d="M9.60645 23.3748L11.0819 24.8502L10.0983 25.8338L8.62283 24.3584L9.60645 23.3748Z" fill="black"/>
<path d="M7.14722 20.9163L8.62268 22.3917L7.63902 23.3754L6.16356 21.8999L7.14722 20.9163Z" fill="black"/>
<path d="M8.6228 19.4404L12.5574 23.375L11.5737 24.3587L7.63915 20.4241L8.6228 19.4404Z" fill="black"/>
<path d="M9.60645 5.67017L5.67186 9.60475L4.6882 8.6211L8.62279 4.68651L9.60645 5.67017Z" fill="black"/>
<path d="M11.0818 7.14551L7.1472 11.0801L6.16354 10.0964L10.0981 6.16185L11.0818 7.14551Z" fill="black"/>
<path d="M12.5586 8.62183L8.62401 12.5564L7.64039 11.5728L11.575 7.63821L12.5586 8.62183Z" fill="black"/>
</g>
<defs>
<clipPath id="clip0_540_36384">
<rect width="32" height="32" fill="white"/>
</clipPath>
</defs>
</svg>
