<svg width="22" height="21" viewBox="0 0 22 21" fill="none" xmlns="http://www.w3.org/2000/svg">
<path d="M18 4C20.2091 4 22 5.79086 22 8V17C22 19.2091 20.2091 21 18 21H4C1.79086 21 0 19.2091 0 17V8C0 5.79086 1.79086 4 4 4H18ZM18 6H4C2.89543 6 2 6.89543 2 8V17C2 18.1046 2.89543 19 4 19H18C19.1046 19 20 18.1046 20 17V8C20 6.89543 19.1046 6 18 6ZM9.5 9.32038C9.59739 9.32038 9.69266 9.34882 9.77411 9.40221L13.8427 12.0691C14.0737 12.2205 14.1382 12.5305 13.9868 12.7614C13.9466 12.8227 13.8935 12.8743 13.8312 12.9128L9.76262 15.4241C9.52763 15.5691 9.21956 15.4962 9.07452 15.2612C9.0258 15.1823 9 15.0914 9 14.9986V9.82038C9 9.54424 9.22386 9.32038 9.5 9.32038ZM15 0C16.0544 0 16.9182 0.815878 16.9945 1.85074L17 2H5C5 0.89543 5.89543 0 7 0H15Z" fill="black"/>
</svg>
