<svg width="24" height="22" viewBox="0 0 24 22" fill="none" xmlns="http://www.w3.org/2000/svg">
<path fill-rule="evenodd" clip-rule="evenodd" d="M11.0365 0.248542C11.6367 -0.0813398 12.3639 -0.0812124 12.9639 0.248881L22.9594 5.74765C23.5919 6.09557 24.0002 6.77628 24.0002 7.50001V15C24.0002 15.5523 23.5525 16 23.0002 16C22.4479 16 22.0002 15.5523 22.0002 15V9.78004L20.0002 10.8803V14.0413C20.0002 14.4663 20.0002 14.7263 19.9865 14.9529C19.7575 18.7384 16.7386 21.7573 12.953 21.9863C12.636 22.0055 12.3175 22.0001 12.0001 22C11.6828 22.0001 11.3643 22.0055 11.0473 21.9863C7.26175 21.7573 4.24284 18.7384 4.01385 14.9529C4.00015 14.7263 4.00016 14.4663 4.00017 14.0412V10.8838L1.0327 9.25267C-0.349446 8.49294 -0.349439 6.50703 1.03271 5.74731L11.0365 0.248542ZM6.00017 11.9831V14C6.00017 14.4789 6.00063 14.6738 6.01021 14.8321C6.17813 17.6082 8.392 19.8221 11.1681 19.99C11.3264 19.9996 11.5213 20 12.0002 20C12.4791 20 12.674 19.9996 12.8323 19.99C15.6083 19.8221 17.8222 17.6082 17.9901 14.8321C17.9997 14.6738 18.0002 14.4789 18.0002 14V11.9806L12.9639 14.7511C12.3639 15.0812 11.6367 15.0814 11.0365 14.7515L6.00017 11.9831ZM11.9999 2.00122L1.99609 7.49999L11.9999 12.9988L21.9954 7.49999L11.9999 2.00122Z" fill="black"/>
</svg>
