<svg width="32" height="32" viewBox="0 0 32 32" fill="none" xmlns="http://www.w3.org/2000/svg">
<g clip-path="url(#clip0_540_36281)">
<path d="M16 32C24.8366 32 32 24.8366 32 16C32 7.16344 24.8366 0 16 0C7.16344 0 0 7.16344 0 16C0 24.8366 7.16344 32 16 32Z" fill="#F0F0F0"/>
<path d="M0.55127 20.1738C1.47702 23.6088 3.51733 26.5859 6.26096 28.694V20.1738H0.55127Z" fill="#0052B4"/>
<path d="M14.6089 31.939C15.0675 31.9785 15.5313 31.9999 16.0002 31.9999C23.3926 31.9999 29.613 26.9861 31.449 20.1738H14.6089V31.939Z" fill="#0052B4"/>
<path d="M31.449 11.8261C29.613 5.01381 23.3926 0 16.0002 0C15.5313 0 15.0675 0.021375 14.6089 0.060875V11.8261H31.449Z" fill="#0052B4"/>
<path d="M6.26096 3.30591C3.51733 5.41403 1.47702 8.3911 0.55127 11.826H6.26096V3.30591Z" fill="#0052B4"/>
<path d="M31.8646 13.9131H12.5218H12.5218V0.380371C11.0431 0.708246 9.64131 1.23968 8.34781 1.9455V13.9131H0.135438C0.046375 14.5962 0 15.2927 0 16.0001C0 16.7074 0.046375 17.4039 0.135438 18.087H8.34775H8.34781V30.0546C9.64131 30.7603 11.0431 31.2919 12.5218 31.6197V18.0872V18.0871H31.8646C31.9535 17.4039 32 16.7074 32 16.0001C32 15.2927 31.9535 14.5962 31.8646 13.9131Z" fill="#D80027"/>
</g>
<defs>
<clipPath id="clip0_540_36281">
<rect width="32" height="32" fill="white"/>
</clipPath>
</defs>
</svg>
