<svg width="32" height="32" viewBox="0 0 32 32" fill="none" xmlns="http://www.w3.org/2000/svg">
<g clip-path="url(#clip0_540_36214)">
<path d="M16 32C24.8366 32 32 24.8366 32 16C32 7.16344 24.8366 0 16 0C7.16344 0 0 7.16344 0 16C0 24.8366 7.16344 32 16 32Z" fill="#D80027"/>
<path d="M8.75625 9.7373L10.1375 13.9873H14.6062L10.9937 16.6186L12.375 20.8686L8.75625 18.2436L5.1375 20.8686L6.525 16.6186L2.90625 13.9873H7.375L8.75625 9.7373Z" fill="#FFDA44"/>
<path d="M18.9687 24.7812L17.9125 23.4812L16.35 24.0874L17.2562 22.6812L16.2 21.3749L17.8187 21.8062L18.7312 20.3999L18.8187 22.0749L20.4437 22.5062L18.875 23.1062L18.9687 24.7812Z" fill="#FFDA44"/>
<path d="M21.0687 20.9687L21.5687 19.3687L20.2 18.3999L21.875 18.3749L22.3687 16.7749L22.9125 18.3624L24.5875 18.3437L23.2437 19.3437L23.7812 20.9312L22.4125 19.9624L21.0687 20.9687Z" fill="#FFDA44"/>
<path d="M23.9 11.7437L23.1625 13.25L24.3625 14.4187L22.7063 14.1812L21.9688 15.6812L21.6813 14.0312L20.0188 13.7937L21.5063 13.0125L21.2188 11.3562L22.4188 12.525L23.9 11.7437Z" fill="#FFDA44"/>
<path d="M19.0124 7.18115L18.8874 8.8499L20.4437 9.48115L18.8124 9.88115L18.6937 11.5562L17.8124 10.1312L16.1812 10.5312L17.2624 9.2499L16.3749 7.83115L17.9312 8.4624L19.0124 7.18115Z" fill="#FFDA44"/>
</g>
<defs>
<clipPath id="clip0_540_36214">
<rect width="32" height="32" fill="white"/>
</clipPath>
</defs>
</svg>
