<svg width="32" height="32" viewBox="0 0 32 32" fill="none" xmlns="http://www.w3.org/2000/svg">
<g clip-path="url(#clip0_540_36406)">
<path d="M16 32C24.8366 32 32 24.8366 32 16C32 7.16344 24.8366 0 16 0C7.16344 0 0 7.16344 0 16C0 24.8366 7.16344 32 16 32Z" fill="#FFDA44"/>
<path d="M12.5218 13.9131H31.8645C30.8419 6.06262 24.1292 0 16 0C14.8054 0 13.6417 0.132063 12.5217 0.380313V13.9131H12.5218Z" fill="#0052B4"/>
<path d="M8.34787 13.9131V1.94556C3.9545 4.34268 0.809436 8.73962 0.135498 13.9132H8.34787V13.9131Z" fill="#0052B4"/>
<path d="M8.34781 18.0869H0.135498C0.809436 23.2605 3.9545 27.6574 8.34787 30.0545L8.34781 18.0869Z" fill="#0052B4"/>
<path d="M12.5217 18.087V31.6197C13.6417 31.8679 14.8054 32 16 32C24.1292 32 30.8419 25.9374 31.8645 18.0869H12.5217V18.087Z" fill="#0052B4"/>
</g>
<defs>
<clipPath id="clip0_540_36406">
<rect width="32" height="32" fill="white"/>
</clipPath>
</defs>
</svg>
