<svg width="24" height="21" viewBox="0 0 24 21" fill="none" xmlns="http://www.w3.org/2000/svg">
<path fill-rule="evenodd" clip-rule="evenodd" d="M12 5.27081e-07H11.968H11.968C11.5293 -1.0918e-05 11.1509 -2.07908e-05 10.8376 0.0213517C10.5078 0.0438558 10.1779 0.0933595 9.85195 0.228363C9.11687 0.532845 8.53284 1.11687 8.22836 1.85195C8.09336 2.17788 8.04385 2.50779 8.02135 2.83762C7.99998 3.15087 7.99999 3.52934 8 3.96798V3.96802L8 4H6.4C4.15979 4 3.03969 4 2.18404 4.43598C1.43139 4.81947 0.819467 5.43139 0.435974 6.18404C0 7.03969 0 8.15979 0 10.4V14.6C0 16.8402 0 17.9603 0.435974 18.816C0.819467 19.5686 1.43139 20.1805 2.18404 20.564C3.03969 21 4.15979 21 6.4 21H17.6C19.8402 21 20.9603 21 21.816 20.564C22.5686 20.1805 23.1805 19.5686 23.564 18.816C24 17.9603 24 16.8402 24 14.6V10.4C24 8.15979 24 7.03969 23.564 6.18404C23.1805 5.43139 22.5686 4.81947 21.816 4.43598C20.9603 4 19.8402 4 17.6 4H16V3.96801C16 3.52936 16 3.15088 15.9787 2.83762C15.9561 2.50779 15.9066 2.17788 15.7716 1.85195C15.4672 1.11687 14.8831 0.532845 14.1481 0.228363C13.8221 0.0933595 13.4922 0.0438558 13.1624 0.0213517C12.8491 -2.07927e-05 12.4707 -1.0918e-05 12.032 5.27081e-07H12.032H12ZM14 4C14 3.52038 13.9995 3.21074 13.9833 2.97376C13.9677 2.74576 13.9411 2.65893 13.9239 2.61732C13.8224 2.37229 13.6277 2.17762 13.3827 2.07612C13.3411 2.05889 13.2542 2.03227 13.0262 2.01671C12.7893 2.00054 12.4796 2 12 2C11.5204 2 11.2107 2.00054 10.9738 2.01671C10.7458 2.03227 10.6589 2.05889 10.6173 2.07612C10.3723 2.17762 10.1776 2.37229 10.0761 2.61732C10.0589 2.65893 10.0323 2.74576 10.0167 2.97376C10.0005 3.21074 10 3.52038 10 4H14ZM7 19V6H17V19H17.7432L17.6 19H6.4L6.25681 19H7ZM20.0643 18.9521C19.7688 18.9763 19.425 18.9883 19 18.9942V6.0058C19.425 6.01174 19.7688 6.02371 20.0643 6.04786C20.6077 6.09225 20.8091 6.1676 20.908 6.21799C21.2843 6.40974 21.5903 6.7157 21.782 7.09202C21.8324 7.19091 21.9078 7.39235 21.9521 7.93567C21.9984 8.50235 22 9.2469 22 10.4V14.6C22 15.7531 21.9984 16.4977 21.9521 17.0643C21.9078 17.6077 21.8324 17.8091 21.782 17.908C21.5903 18.2843 21.2843 18.5903 20.908 18.782C20.8091 18.8324 20.6077 18.9078 20.0643 18.9521ZM5 6.0058V18.9942C4.57505 18.9883 4.23117 18.9763 3.93567 18.9521C3.39235 18.9078 3.19091 18.8324 3.09202 18.782C2.71569 18.5903 2.40973 18.2843 2.21799 17.908C2.1676 17.8091 2.09225 17.6077 2.04785 17.0643C2.00156 16.4977 2 15.7531 2 14.6V10.4C2 9.2469 2.00156 8.50235 2.04785 7.93567C2.09225 7.39235 2.1676 7.19091 2.21799 7.09202C2.40973 6.7157 2.71569 6.40974 3.09202 6.21799C3.19091 6.1676 3.39235 6.09225 3.93567 6.04786C4.23117 6.02371 4.57505 6.01174 5 6.0058Z" fill="black"/>
</svg>
