<svg width="24" height="20" viewBox="0 0 24 20" fill="none" xmlns="http://www.w3.org/2000/svg">
<path fill-rule="evenodd" clip-rule="evenodd" d="M0 7H8V16C8 18.2091 6.20914 20 4 20C1.79086 20 0 18.2091 0 16V7ZM2 9V16C2 17.1046 2.89543 18 4 18C5.10457 18 6 17.1046 6 16V9H2Z" fill="black"/>
<path fill-rule="evenodd" clip-rule="evenodd" d="M6.54735 0.163099C6.82978 0.347816 7 0.662527 7 1V8C7 8.55229 6.55228 9 6 9H2C1.44772 9 1 8.55229 1 8V2.75C1 2.35271 1.23519 1.99309 1.59918 1.83385L5.59918 0.0838458C5.90836 -0.051421 6.26491 -0.0216186 6.54735 0.163099ZM3 3.40402V7H5V2.52902L3 3.40402Z" fill="black"/>
<path fill-rule="evenodd" clip-rule="evenodd" d="M17 2C14.2386 2 12 4.23858 12 7C12 9.76143 14.2386 12 17 12C19.7614 12 22 9.76143 22 7C22 4.23858 19.7614 2 17 2ZM10 7C10 3.13401 13.134 3.09732e-06 17 3.09732e-06C20.866 3.09732e-06 24 3.13401 24 7C24 10.866 20.866 14 17 14C13.134 14 10 10.866 10 7Z" fill="black"/>
<path d="M16 13H18V18H16V13Z" fill="black"/>
<path d="M13 20C12.4477 20 12 19.5523 12 19C12 18.4477 12.4477 18 13 18H21C21.5523 18 22 18.4477 22 19C22 19.5523 21.5523 20 21 20L13 20Z" fill="black"/>
</svg>
