<svg width="32" height="32" viewBox="0 0 32 32" fill="none" xmlns="http://www.w3.org/2000/svg">
<g clip-path="url(#clip0_540_36308)">
<path d="M16 32C24.8366 32 32 24.8366 32 16C32 7.16344 24.8366 0 16 0C7.16344 0 0 7.16344 0 16C0 24.8366 7.16344 32 16 32Z" fill="#F0F0F0"/>
<path d="M15.3044 16.0001H32.0001C32.0001 14.5559 31.8076 13.157 31.4489 11.8262H15.3044V16.0001Z" fill="#D80027"/>
<path d="M15.3044 7.65221H29.6517C28.6723 6.05396 27.4201 4.64127 25.9599 3.47827H15.3044V7.65221Z" fill="#D80027"/>
<path d="M16.0001 32C19.7657 32 23.2267 30.6985 25.9599 28.5217H6.04028C8.77347 30.6985 12.2345 32 16.0001 32Z" fill="#D80027"/>
<path d="M2.34846 24.3478H29.6517C30.438 23.0648 31.0478 21.6622 31.4489 20.1738H0.55127C0.952332 21.6622 1.56214 23.0648 2.34846 24.3478Z" fill="#D80027"/>
<path d="M16 16C16 7.1635 16 6.12175 16 0C7.1635 0 0 7.1635 0 16H16Z" fill="#0052B4"/>
<path d="M10.6396 13.6956C8.45448 13.6956 6.6831 11.9242 6.6831 9.73913C6.6831 7.55407 8.45454 5.78263 10.6396 5.78263C11.3209 5.78263 11.962 5.95494 12.5217 6.25819C11.6437 5.39963 10.4429 4.86963 9.11785 4.86963C6.42854 4.86963 4.24829 7.04982 4.24829 9.73919C4.24829 12.4286 6.42854 14.6088 9.11785 14.6088C10.4429 14.6088 11.6437 14.0788 12.5217 13.2202C11.962 13.5233 11.321 13.6956 10.6396 13.6956Z" fill="#FFDA44"/>
<path d="M11.7546 6.95654L12.4571 8.42542L14.0434 8.05892L13.333 9.52386L14.6088 10.5355L13.0204 10.8936L13.0248 12.5218L11.7546 11.5032L10.4844 12.5218L10.4888 10.8936L8.90039 10.5355L10.1761 9.52386L9.4657 8.05892L11.0521 8.42542L11.7546 6.95654Z" fill="#FFDA44"/>
</g>
<defs>
<clipPath id="clip0_540_36308">
<rect width="32" height="32" fill="white"/>
</clipPath>
</defs>
</svg>
