<svg width="22" height="22" viewBox="0 0 22 22" fill="none" xmlns="http://www.w3.org/2000/svg">
<path d="M9.43554 0.692923C10.065 1.11934 10.592 1.70984 11.0014 2.44929C11.4089 1.70984 11.936 1.11934 12.5654 0.692923C14.0557 -0.316611 15.9408 -0.209328 17.0753 0.925175C18.2098 2.05968 18.3171 3.94479 17.3076 5.43505C17.1729 5.63381 17.0219 5.82236 16.855 6.00022L18 5.99952C18.7987 5.99952 19.5094 6.17773 20.102 6.50409C20.6945 6.83045 21.1691 7.30497 21.4954 7.89756C21.8218 8.49015 22 9.20083 22 9.99952V10.429C22 11.4359 21.8608 11.9759 21.5993 12.4648C21.3378 12.9537 20.9542 13.3374 20.4653 13.5988C20.319 13.677 20.1682 13.7443 20.0016 13.8002L20 16.8717C20 18.6548 19.8143 19.3014 19.4657 19.9532C19.1171 20.6051 18.6055 21.1166 17.9537 21.4653C17.3018 21.8139 16.6553 21.9995 14.8722 21.9995H7.12777C5.34473 21.9995 4.69816 21.8139 4.04631 21.4653C3.39446 21.1166 2.88288 20.6051 2.53427 19.9532C2.18565 19.3014 2 18.6548 2 16.8717L1.99935 13.8005C1.83242 13.7446 1.68128 13.6772 1.53473 13.5988C1.04584 13.3374 0.66216 12.9537 0.400699 12.4648C0.161027 12.0166 0.0240553 11.5256 0.00289106 10.6712L0 9.99952C0 9.20083 0.178215 8.49015 0.504578 7.89756C0.83094 7.30497 1.30545 6.83045 1.89804 6.50409C2.49064 6.17773 3.20131 5.99952 4 5.99952L5.14595 6.00022C4.97906 5.82236 4.82805 5.63381 4.69341 5.43505C3.68387 3.94479 3.79116 2.05968 4.92566 0.925175C6.06016 -0.209328 7.94527 -0.316611 9.43554 0.692923ZM10 13.999L4 13.9995V16.8717C4 18.1954 4.07784 18.5986 4.29789 19.01C4.46011 19.3133 4.68619 19.5394 4.98951 19.7016C5.40096 19.9217 5.80407 19.9995 7.12777 19.9995L10 19.999V13.999ZM12 13.999V19.999L14.8722 19.9995C16.1959 19.9995 16.599 19.9217 17.0105 19.7016C17.3138 19.5394 17.5399 19.3133 17.7021 19.01C17.9222 18.5986 18 18.1954 18 16.8717V13.9995L12 13.999ZM10 7.999L4 7.99952C3.54162 7.99952 3.1606 8.09201 2.86287 8.25598C2.60182 8.39975 2.40023 8.60134 2.25646 8.86239C2.0925 9.16011 2 9.54113 2 9.99952L2.00154 10.6088C2.01081 11.1148 2.06228 11.3308 2.16433 11.5216C2.23939 11.6619 2.33758 11.7601 2.47793 11.8352C2.68793 11.9475 2.92837 11.9985 3.55259 11.9995L10 11.999V7.999ZM18 7.99952L12 7.999V11.999H18.446L18.6093 11.998C19.1153 11.9887 19.3313 11.9372 19.5221 11.8352C19.6624 11.7601 19.7606 11.6619 19.8357 11.5216C19.9377 11.3308 19.9892 11.1148 19.9985 10.6088L20 9.99952C20 9.54113 19.9075 9.16011 19.7435 8.86239C19.5998 8.60134 19.3982 8.39975 19.1371 8.25598C18.8394 8.09201 18.4584 7.99952 18 7.99952ZM12 5.99952C15.65 5.64974 16.6955 3.29497 15.7 2.29952C14.7045 1.30406 12.3498 2.34952 12 5.99952ZM6.30097 2.29952C5.30551 3.29497 6.35097 5.64974 10.001 5.99952C9.65119 2.34952 7.29643 1.30406 6.30097 2.29952Z" fill="black"/>
</svg>
