<svg width="22" height="25" viewBox="0 0 22 25" fill="none" xmlns="http://www.w3.org/2000/svg">
<path fill-rule="evenodd" clip-rule="evenodd" d="M6.51014 22.1603C4.49852 21.2583 2 19.5284 2 16.5C2 13.5 3.18454 12.2524 6 10C8.1707 8.26344 9.37193 6.60144 9.80827 4.27193C9.93788 3.58 10 2.82917 10 2C10 2 10.9467 2.47338 11.9314 3.51414C13.0463 4.69259 14.2098 6.59849 14.1025 9.36833C14.066 10.3105 13.8825 11.3526 13.5 12.5C13.5 12.5 14.7572 11.6299 16.043 10.2384C16.2749 9.98738 16.5078 9.7194 16.7344 9.43651C17.2048 8.84921 17.6482 8.19761 18 7.5C18 7.5 18.5076 8.36887 19.0109 9.71608C20.311 13.1961 21.5821 19.8678 14 23C14 23 11.3847 22.4188 10.1417 19.7058C9.75416 18.8601 9.5 17.8071 9.5 16.5C9.5 16.5 7.99096 17.7085 8.15298 20.14C8.16477 20.317 8.18542 20.5004 8.21614 20.6904C8.327 21.3757 8.56908 22.1455 9 23C9 23 7.8656 22.7681 6.51014 22.1603ZM9 23L8.59942 24.9595C9.35053 25.113 10.1233 24.8237 10.5889 24.2146C10.7168 24.0474 10.8153 23.8641 10.8838 23.672C11.4836 24.1096 12.0589 24.4044 12.5132 24.5979C12.7941 24.7175 13.0348 24.801 13.2153 24.8569C13.3057 24.8849 13.3817 24.9061 13.4408 24.9217C13.4704 24.9294 13.4958 24.9358 13.5168 24.9409L13.5449 24.9475L13.5564 24.9502L13.5615 24.9513L13.5639 24.9519C13.5639 24.9519 13.5661 24.9524 14 23L13.5661 24.9524C13.9665 25.0413 14.3846 25.0051 14.7636 24.8485C17.7619 23.6099 19.7175 21.8036 20.8336 19.6733C21.9331 17.5747 22.1167 15.3555 21.9351 13.4326C21.7538 11.5127 21.2002 9.78789 20.7103 8.56639C20.4628 7.94935 20.2251 7.4449 20.0463 7.08923C19.9567 6.91105 19.8813 6.76924 19.8262 6.66826C19.7986 6.61774 19.7761 6.57736 19.7593 6.54767L19.7385 6.51118L19.7315 6.49906L19.7289 6.49455L19.7278 6.49269C19.7278 6.49269 19.7269 6.49109 18 7.5L19.7269 6.49109C19.3571 5.85826 18.6709 5.47836 17.9383 5.50095C17.2058 5.52355 16.5442 5.94503 16.2142 6.59943C16.1285 6.76953 16.0349 6.93768 15.935 7.10338C15.6507 5.58629 15.0461 4.31387 14.3231 3.28652C13.5841 2.23629 12.7538 1.48473 12.1098 0.994531C11.7858 0.747875 11.5024 0.562452 11.2912 0.434148C11.1853 0.369858 11.0969 0.31949 11.0297 0.282572C10.996 0.2641 10.9676 0.248955 10.945 0.23708L10.9153 0.221698L10.9037 0.215822L10.8988 0.213335L10.8965 0.212204C10.8965 0.212204 10.8944 0.211148 10 2L10.8944 0.211148C10.2745 -0.0988407 9.53817 -0.0657127 8.94854 0.298701C8.3589 0.663114 8 1.30685 8 2C8 3.58412 7.74285 4.6889 7.27554 5.60171C6.80147 6.5277 6.03041 7.41442 4.75061 8.43826C3.36153 9.54953 2.1244 10.5985 1.28203 11.8574C0.368023 13.2232 0 14.695 0 16.5C0 20.1139 2.52933 22.2666 4.51419 23.391C5.53995 23.9721 6.54754 24.3585 7.28787 24.5992C7.66158 24.7207 7.97621 24.808 8.20293 24.8661C8.31649 24.8951 8.40861 24.9171 8.47574 24.9324C8.50932 24.9401 8.5367 24.9461 8.55745 24.9506L8.58355 24.9562L8.59278 24.9581L8.59643 24.9589L8.59801 24.9592C8.59801 24.9592 8.59942 24.9595 9 23Z" fill="black"/>
</svg>
