<svg width="28" height="24" viewBox="0 0 28 24" fill="none" xmlns="http://www.w3.org/2000/svg">
<g filter="url(#filter0_d_2_2916)">
<path d="M9.02632 0.880005C5.42193 0.880005 2.5 3.80194 2.5 7.40632C2.5 11.0191 3.94498 12.8274 9.99323 17.5316L12.7721 19.6929C13.4943 20.2547 14.5057 20.2547 15.2279 19.6929L18.0068 17.5316C24.055 12.8274 25.5 11.0191 25.5 7.40632C25.5 3.80194 22.5781 0.880005 18.9737 0.880005C17.1022 0.880005 15.4359 1.73037 14 3.36655C12.5641 1.73037 10.8978 0.880005 9.02632 0.880005ZM9.02632 2.88C10.5455 2.88 11.9149 3.73752 13.1775 5.56335L13.3831 5.86069C13.6187 6.20137 14.0859 6.28656 14.4266 6.05097C14.501 5.99953 14.5654 5.93507 14.6169 5.86069L14.8225 5.56335C16.0851 3.73752 17.4545 2.88 18.9737 2.88C21.4735 2.88 23.5 4.90651 23.5 7.40632C23.5 10.1866 22.3625 11.61 16.7789 15.9529L14 18.1142L11.2211 15.9529C5.63746 11.61 4.5 10.1866 4.5 7.40632C4.5 4.90651 6.5265 2.88 9.02632 2.88Z" fill="black"/>
</g>
<defs>
<filter id="filter0_d_2_2916" x="-1.5" y="0.880005" width="31" height="27.2342" filterUnits="userSpaceOnUse" color-interpolation-filters="sRGB">
<feFlood flood-opacity="0" result="BackgroundImageFix"/>
<feColorMatrix in="SourceAlpha" type="matrix" values="0 0 0 0 0 0 0 0 0 0 0 0 0 0 0 0 0 0 127 0" result="hardAlpha"/>
<feOffset dy="4"/>
<feGaussianBlur stdDeviation="2"/>
<feComposite in2="hardAlpha" operator="out"/>
<feColorMatrix type="matrix" values="0 0 0 0 0 0 0 0 0 0 0 0 0 0 0 0 0 0 0.25 0"/>
<feBlend mode="normal" in2="BackgroundImageFix" result="effect1_dropShadow_2_2916"/>
<feBlend mode="normal" in="SourceGraphic" in2="effect1_dropShadow_2_2916" result="shape"/>
</filter>
</defs>
</svg>
