<svg width="22" height="22" viewBox="0 0 22 22" fill="none" xmlns="http://www.w3.org/2000/svg">
<path fill-rule="evenodd" clip-rule="evenodd" d="M5.04016 5.57046e-07H4.95984H4.95981C4.29395 -1.37525e-05 3.73444 -2.5777e-05 3.27657 0.0373833C2.79785 0.0764964 2.34289 0.161437 1.91103 0.381479C1.25247 0.717036 0.717036 1.25247 0.381479 1.91103C0.161437 2.34289 0.0764964 2.79785 0.0373833 3.27657C-2.57761e-05 3.73444 -1.37525e-05 4.29395 5.57046e-07 4.95981V4.95984V5.04016V5.04019C-1.37525e-05 5.70605 -2.5777e-05 6.26556 0.0373833 6.72343C0.0764964 7.20215 0.161437 7.65711 0.381479 8.08897C0.717036 8.74754 1.25247 9.28297 1.91103 9.61852C2.34289 9.83857 2.79785 9.92351 3.27657 9.96262C3.73445 10 4.29398 10 4.95987 10H5.04014C5.70602 10 6.26555 10 6.72343 9.96262C7.20215 9.92351 7.65711 9.83857 8.08897 9.61852C8.74754 9.28297 9.28297 8.74754 9.61852 8.08897C9.83857 7.65711 9.92351 7.20215 9.96262 6.72343C10 6.26555 10 5.70602 10 5.04014V4.95987C10 4.29398 10 3.73445 9.96262 3.27657C9.92351 2.79785 9.83857 2.34289 9.61852 1.91103C9.28297 1.25247 8.74754 0.717036 8.08897 0.381479C7.65711 0.161437 7.20215 0.0764964 6.72343 0.0373833C6.26556 -2.57761e-05 5.70605 -1.37525e-05 5.04019 5.57046e-07H5.04016ZM2.81902 2.16349C2.92194 2.11105 3.0844 2.05975 3.43944 2.03074C3.80615 2.00078 4.28343 2 5 2C5.71657 2 6.19385 2.00078 6.56056 2.03074C6.9156 2.05975 7.07807 2.11105 7.18099 2.16349C7.46323 2.3073 7.6927 2.53677 7.83651 2.81902C7.88895 2.92194 7.94025 3.0844 7.96926 3.43944C7.99922 3.80615 8 4.28343 8 5C8 5.71657 7.99922 6.19385 7.96926 6.56056C7.94025 6.9156 7.88895 7.07807 7.83651 7.18099C7.6927 7.46323 7.46323 7.6927 7.18099 7.83651C7.07807 7.88895 6.9156 7.94025 6.56056 7.96926C6.19385 7.99922 5.71657 8 5 8C4.28343 8 3.80615 7.99922 3.43944 7.96926C3.0844 7.94025 2.92194 7.88895 2.81902 7.83651C2.53677 7.6927 2.3073 7.46323 2.16349 7.18099C2.11105 7.07807 2.05975 6.9156 2.03074 6.56056C2.00078 6.19385 2 5.71657 2 5C2 4.28343 2.00078 3.80615 2.03074 3.43944C2.05975 3.0844 2.11105 2.92194 2.16349 2.81902C2.3073 2.53677 2.53677 2.3073 2.81902 2.16349ZM6.72343 12.0374C6.26556 12 5.70603 12 5.04016 12H4.95984C4.29397 12 3.73445 12 3.27657 12.0374C2.79785 12.0765 2.34289 12.1614 1.91103 12.3815C1.25247 12.717 0.717036 13.2525 0.381479 13.911C0.161437 14.3429 0.0764964 14.7979 0.0373833 15.2766C-2.57762e-05 15.7344 -1.37525e-05 16.294 5.57046e-07 16.9598V16.9598V17.0402V17.0402C-1.37525e-05 17.7061 -2.5777e-05 18.2656 0.0373833 18.7234C0.0764964 19.2021 0.161437 19.6571 0.381479 20.089C0.717036 20.7475 1.25247 21.283 1.91103 21.6185C2.34289 21.8386 2.79785 21.9235 3.27657 21.9626C3.73443 22 4.29394 22 4.95978 22H4.95981H4.95984H4.95987H5.04014H5.04017H5.04019H5.04022C5.70607 22 6.26557 22 6.72343 21.9626C7.20215 21.9235 7.65711 21.8386 8.08897 21.6185C8.74754 21.283 9.28297 20.7475 9.61852 20.089C9.83857 19.6571 9.92351 19.2021 9.96262 18.7234C10 18.2656 10 17.706 10 17.0401V16.9599C10 16.294 10 15.7345 9.96262 15.2766C9.92351 14.7979 9.83857 14.3429 9.61852 13.911C9.28297 13.2525 8.74754 12.717 8.08897 12.3815C7.65711 12.1614 7.20215 12.0765 6.72343 12.0374ZM2.81902 14.1635C2.92194 14.1111 3.0844 14.0597 3.43944 14.0307C3.80615 14.0008 4.28343 14 5 14C5.71657 14 6.19385 14.0008 6.56056 14.0307C6.9156 14.0597 7.07807 14.1111 7.18099 14.1635C7.46323 14.3073 7.6927 14.5368 7.83651 14.819C7.88895 14.9219 7.94025 15.0844 7.96926 15.4394C7.99922 15.8062 8 16.2834 8 17C8 17.7166 7.99922 18.1939 7.96926 18.5606C7.94025 18.9156 7.88895 19.0781 7.83651 19.181C7.6927 19.4632 7.46323 19.6927 7.18099 19.8365C7.07807 19.889 6.9156 19.9403 6.56056 19.9693C6.19385 19.9992 5.71657 20 5 20C4.28343 20 3.80615 19.9992 3.43944 19.9693C3.0844 19.9403 2.92194 19.889 2.81902 19.8365C2.53677 19.6927 2.3073 19.4632 2.16349 19.181C2.11105 19.0781 2.05975 18.9156 2.03074 18.5606C2.00078 18.1939 2 17.7166 2 17C2 16.2834 2.00078 15.8062 2.03074 15.4394C2.05975 15.0844 2.11105 14.9219 2.16349 14.819C2.3073 14.5368 2.53677 14.3073 2.81902 14.1635ZM15.2766 12.0374C15.7344 12 16.294 12 16.9598 12H17.0402C17.706 12 18.2656 12 18.7234 12.0374C19.2021 12.0765 19.6571 12.1614 20.089 12.3815C20.7475 12.717 21.283 13.2525 21.6185 13.911C21.8386 14.3429 21.9235 14.7979 21.9626 15.2766C22 15.7344 22 16.294 22 16.9598V16.9598V16.9599V17.0401V17.0402V17.0402C22 17.706 22 18.2656 21.9626 18.7234C21.9235 19.2021 21.8386 19.6571 21.6185 20.089C21.283 20.7475 20.7475 21.283 20.089 21.6185C19.6571 21.8386 19.2021 21.9235 18.7234 21.9626C18.2656 22 17.706 22 17.0402 22H17.0402H17.0401H16.9599H16.9598H16.9598C16.294 22 15.7344 22 15.2766 21.9626C14.7979 21.9235 14.3429 21.8386 13.911 21.6185C13.2525 21.283 12.717 20.7475 12.3815 20.089C12.1614 19.6571 12.0765 19.2021 12.0374 18.7234C12 18.2656 12 17.706 12 17.0402V16.9598C12 16.294 12 15.7344 12.0374 15.2766C12.0765 14.7979 12.1614 14.3429 12.3815 13.911C12.717 13.2525 13.2525 12.717 13.911 12.3815C14.3429 12.1614 14.7979 12.0765 15.2766 12.0374ZM15.4394 14.0307C15.0844 14.0597 14.9219 14.1111 14.819 14.1635C14.5368 14.3073 14.3073 14.5368 14.1635 14.819C14.1111 14.9219 14.0597 15.0844 14.0307 15.4394C14.0008 15.8062 14 16.2834 14 17C14 17.7166 14.0008 18.1939 14.0307 18.5606C14.0597 18.9156 14.1111 19.0781 14.1635 19.181C14.3073 19.4632 14.5368 19.6927 14.819 19.8365C14.9219 19.889 15.0844 19.9403 15.4394 19.9693C15.8062 19.9992 16.2834 20 17 20C17.7166 20 18.1939 19.9992 18.5606 19.9693C18.9156 19.9403 19.0781 19.889 19.181 19.8365C19.4632 19.6927 19.6927 19.4632 19.8365 19.181C19.889 19.0781 19.9403 18.9156 19.9693 18.5606C19.9992 18.1939 20 17.7166 20 17C20 16.2834 19.9992 15.8062 19.9693 15.4394C19.9403 15.0844 19.889 14.9219 19.8365 14.819C19.6927 14.5368 19.4632 14.3073 19.181 14.1635C19.0781 14.1111 18.9156 14.0597 18.5606 14.0307C18.1939 14.0008 17.7166 14 17 14C16.2834 14 15.8062 14.0008 15.4394 14.0307ZM17.0402 5.57046e-07H16.9598H16.9598C16.294 -1.37525e-05 15.7344 -2.5777e-05 15.2766 0.0373833C14.7979 0.0764964 14.3429 0.161437 13.911 0.381479C13.2525 0.717036 12.717 1.25247 12.3815 1.91103C12.1614 2.34289 12.0765 2.79785 12.0374 3.27657C12 3.73445 12 4.29397 12 4.95984V5.04016C12 5.70603 12 6.26556 12.0374 6.72343C12.0765 7.20215 12.1614 7.65711 12.3815 8.08897C12.717 8.74754 13.2525 9.28297 13.911 9.61852C14.3429 9.83857 14.7979 9.92351 15.2766 9.96262C15.7345 10 16.294 10 16.9599 10H17.0401C17.706 10 18.2656 10 18.7234 9.96262C19.2021 9.92351 19.6571 9.83857 20.089 9.61852C20.7475 9.28297 21.283 8.74754 21.6185 8.08897C21.8386 7.65711 21.9235 7.20215 21.9626 6.72343C22 6.26556 22 5.70604 22 5.04017V5.04014V4.95987V4.95984C22 4.29397 22 3.73445 21.9626 3.27657C21.9235 2.79785 21.8386 2.34289 21.6185 1.91103C21.283 1.25247 20.7475 0.717036 20.089 0.381479C19.6571 0.161437 19.2021 0.0764964 18.7234 0.0373833C18.2656 -2.57761e-05 17.7061 -1.37525e-05 17.0402 5.57046e-07H17.0402ZM14.819 2.16349C14.9219 2.11105 15.0844 2.05975 15.4394 2.03074C15.8062 2.00078 16.2834 2 17 2C17.7166 2 18.1939 2.00078 18.5606 2.03074C18.9156 2.05975 19.0781 2.11105 19.181 2.16349C19.4632 2.3073 19.6927 2.53677 19.8365 2.81902C19.889 2.92194 19.9403 3.0844 19.9693 3.43944C19.9992 3.80615 20 4.28343 20 5C20 5.71657 19.9992 6.19385 19.9693 6.56056C19.9403 6.9156 19.889 7.07807 19.8365 7.18099C19.6927 7.46323 19.4632 7.6927 19.181 7.83651C19.0781 7.88895 18.9156 7.94025 18.5606 7.96926C18.1939 7.99922 17.7166 8 17 8C16.2834 8 15.8062 7.99922 15.4394 7.96926C15.0844 7.94025 14.9219 7.88895 14.819 7.83651C14.5368 7.6927 14.3073 7.46323 14.1635 7.18099C14.1111 7.07807 14.0597 6.9156 14.0307 6.56056C14.0008 6.19385 14 5.71657 14 5C14 4.28343 14.0008 3.80615 14.0307 3.43944C14.0597 3.0844 14.1111 2.92194 14.1635 2.81902C14.3073 2.53677 14.5368 2.3073 14.819 2.16349Z" fill="black"/>
</svg>
