<svg width="20" height="16" viewBox="0 0 20 16" fill="none" xmlns="http://www.w3.org/2000/svg">
<path d="M5 0.500022C5.55228 0.500022 6 0.982176 6 1.57694V12.085L8.29289 9.79292C8.65338 9.43243 9.22061 9.4047 9.6129 9.70973L9.70711 9.79292C10.0976 10.1834 10.0976 10.8166 9.70711 11.2071L5.70711 15.2071C5.31658 15.5977 4.68342 15.5977 4.29289 15.2071L0.292893 11.2071C-0.0976311 10.8166 -0.0976311 10.1834 0.292893 9.79292C0.683418 9.40239 1.31658 9.40239 1.70711 9.79292L4 12.085V1.57694C4 1.02183 4.39001 0.564809 4.89104 0.506341L5 0.500022ZM15.7071 0.752915L19.7071 4.75292C20.0976 5.14344 20.0976 5.7766 19.7071 6.16713C19.3166 6.55765 18.6834 6.55765 18.2929 6.16713L16 3.87402V14.46C16 15.0123 15.5523 15.46 15 15.46C14.4477 15.46 14 15.0123 14 14.46V3.87402L11.7071 6.16713C11.3166 6.55765 10.6834 6.55765 10.2929 6.16713C9.90237 5.7766 9.90237 5.14344 10.2929 4.75292L14.2929 0.752915C14.6834 0.362391 15.3166 0.362391 15.7071 0.752915Z" fill="black"/>
</svg>
