<svg width="32" height="32" viewBox="0 0 32 32" fill="none" xmlns="http://www.w3.org/2000/svg">
<g clip-path="url(#clip0_540_36204)">
<path d="M32 15.9999C32 14.0428 31.648 12.168 31.0048 10.4347L16 9.73901L0.995188 10.4346C0.352063 12.168 0 14.0428 0 15.9999C0 17.957 0.352063 19.8318 0.995188 21.5651L16 22.2608L31.0048 21.5651C31.648 19.8318 32 17.957 32 15.9999Z" fill="#496E2D"/>
<path d="M15.9999 32C22.8794 32 28.7441 27.658 31.0047 21.5652H0.995117C3.2558 27.658 9.12049 32 15.9999 32Z" fill="#D80027"/>
<path d="M0.995117 10.4348H31.0048C28.7441 4.342 22.8794 0 15.9999 0C9.12049 0 3.2558 4.342 0.995117 10.4348Z" fill="#F0F0F0"/>
</g>
<defs>
<clipPath id="clip0_540_36204">
<rect width="32" height="32" fill="white"/>
</clipPath>
</defs>
</svg>
