<svg width="24" height="24" viewBox="0 0 24 24" fill="none" xmlns="http://www.w3.org/2000/svg">
<path d="M12 0C18.6274 0 24 5.37258 24 12C24 18.6274 18.6274 24 12 24C5.37258 24 0 18.6274 0 12C0 5.37258 5.37258 0 12 0ZM12 2C6.47715 2 2 6.47715 2 12C2 17.5228 6.47715 22 12 22C17.5228 22 22 17.5228 22 12C22 6.47715 17.5228 2 12 2ZM7.79289 7.79289C8.18342 7.40237 8.81658 7.40237 9.20711 7.79289L12 10.585L14.7929 7.79289C15.1534 7.43241 15.7206 7.40468 16.1129 7.7097L16.2071 7.79289C16.5976 8.18342 16.5976 8.81658 16.2071 9.20711L13.415 12L16.2071 14.7929C16.5676 15.1534 16.5953 15.7206 16.2903 16.1129L16.2071 16.2071C15.8166 16.5976 15.1834 16.5976 14.7929 16.2071L12 13.415L9.20711 16.2071C8.84662 16.5676 8.27939 16.5953 7.8871 16.2903L7.79289 16.2071C7.40237 15.8166 7.40237 15.1834 7.79289 14.7929L10.585 12L7.79289 9.20711C7.43241 8.84662 7.40468 8.27939 7.7097 7.8871L7.79289 7.79289Z" fill="black"/>
</svg>
