<svg width="26" height="21" viewBox="0 0 26 21" fill="none" xmlns="http://www.w3.org/2000/svg">
<path fill-rule="evenodd" clip-rule="evenodd" d="M15.4129 0.973461C16.0647 0.319221 16.9817 -0.134838 17.9939 0.0355358C19.0115 0.206822 19.7217 0.940948 20.1055 1.7812C20.4904 2.62398 20.5992 3.65904 20.4074 4.69759C20.2155 5.73654 19.7435 6.66779 19.0872 7.32661C18.4355 7.98085 17.5185 8.43491 16.5063 8.26453C15.4886 8.09325 14.7785 7.35912 14.3947 6.51888C14.0097 5.67609 13.9009 4.64103 14.0927 3.60249C14.2846 2.56354 14.7567 1.63229 15.4129 0.973461ZM16.8299 2.38494C16.4902 2.72592 16.1867 3.27694 16.0595 3.96575C15.9322 4.65495 16.0211 5.26599 16.2139 5.68789C16.4077 6.11233 16.6552 6.26147 16.8382 6.29228C17.0267 6.324 17.326 6.26071 17.6702 5.91513C18.0099 5.57415 18.3134 5.02313 18.4407 4.33432C18.568 3.64512 18.479 3.03408 18.2863 2.61218C18.0924 2.18774 17.8449 2.0386 17.6619 2.00779C17.4735 1.97607 17.1741 2.03937 16.8299 2.38494Z" fill="black"/>
<path fill-rule="evenodd" clip-rule="evenodd" d="M9.80777 10.6269C10.5458 9.71846 11.5564 9 13.0001 9C14.4464 9 15.4569 9.7248 16.1932 10.6335C16.8038 11.3869 17.2868 12.3466 17.7151 13.1976C17.7749 13.3163 17.8336 13.4329 17.8914 13.5465C18.2402 14.232 18.5763 14.7664 18.8908 15.2666C19.007 15.4514 19.1205 15.6319 19.2304 15.8132C19.6054 16.432 20.0003 17.1531 20.0001 17.9966C20 18.681 19.8327 19.2795 19.4863 19.7657C19.1424 20.2484 18.6812 20.5375 18.2352 20.7097C17.4641 21.0075 16.5863 21.0029 16.111 21.0004C16.0711 21.0002 16.034 21 16.0001 21C15.4598 21 15.0292 20.9247 14.6483 20.8582L14.5186 20.8356C14.1113 20.7658 13.6723 20.7 13.0001 20.7C12.3278 20.7 11.8889 20.7658 11.4816 20.8356L11.3519 20.8582C10.971 20.9247 10.5404 21 10.0001 21L9.99733 21L9.78489 20.9994L9.77973 20.9994C9.25834 20.9952 8.36089 20.9695 7.57676 20.6012C7.16365 20.4071 6.75347 20.1059 6.45171 19.6444C6.14841 19.1805 6.00012 18.6242 6.00012 17.9964C6.00012 17.1848 6.40177 16.4608 6.76722 15.8506C6.87173 15.6761 6.97995 15.5011 7.09129 15.3211C7.40951 14.8065 7.75307 14.251 8.10749 13.5492C8.16092 13.4434 8.21507 13.3352 8.27008 13.2253C8.7028 12.3605 9.18935 11.3882 9.80777 10.6269ZM10.0545 14.1295C10.0016 14.2347 9.94778 14.3418 9.89275 14.4508C9.49539 15.2376 9.08655 15.8984 8.76101 16.4245C8.65927 16.589 8.5656 16.7403 8.48303 16.8782C8.09848 17.5203 8.00012 17.8044 8.00012 17.9964C8.00012 18.3037 8.06962 18.4642 8.12565 18.5499C8.18322 18.6379 8.27393 18.719 8.42705 18.7909C8.7748 18.9543 9.2701 18.9951 9.79311 18.9994L9.79563 18.9994L10.0001 19H10.0015C10.3603 18.9999 10.6268 18.9538 11.016 18.8864L11.1437 18.8644C11.6113 18.7842 12.1723 18.7 13.0001 18.7C13.8278 18.7 14.3889 18.7842 14.8565 18.8644L14.9842 18.8864C15.3739 18.9538 15.6406 19 16.0001 19L16.0396 19C16.5872 19.0001 17.1104 19.0002 17.5147 18.844C17.6936 18.7749 17.7949 18.6929 17.8574 18.6053C17.9173 18.5211 18.0001 18.35 18.0001 17.9962C18.0002 17.7632 17.8951 17.4687 17.52 16.8497C17.4359 16.711 17.3396 16.5579 17.2344 16.3907C16.9108 15.8763 16.5029 15.2278 16.1089 14.4535C16.0464 14.3308 15.9856 14.2104 15.9259 14.0923C15.4814 13.2129 15.1039 12.4659 14.6394 11.8926C14.1531 11.2926 13.6637 11 13.0001 11C12.334 11 11.8447 11.2915 11.3601 11.888C10.8896 12.4672 10.5071 13.2284 10.0545 14.1295Z" fill="black"/>
<path fill-rule="evenodd" clip-rule="evenodd" d="M11.9074 3.60249C11.7155 2.56354 11.2435 1.63229 10.5872 0.973462C9.93547 0.319221 9.01847 -0.134838 8.00626 0.0355358C6.98863 0.206822 6.27848 0.940948 5.89467 1.7812C5.50969 2.62398 5.40091 3.65904 5.59274 4.69759C5.78463 5.73654 6.25667 6.66779 6.91295 7.32661C7.56466 7.98085 8.48167 8.43491 9.49387 8.26454C10.5115 8.09325 11.2217 7.35912 11.6055 6.51888C11.9904 5.67609 12.0992 4.64103 11.9074 3.60249ZM8.33823 2.00779C8.52667 1.97607 8.826 2.03937 9.17024 2.38494C9.50991 2.72592 9.81344 3.27695 9.94067 3.96575C10.068 4.65496 9.979 5.26599 9.78628 5.68789C9.5924 6.11233 9.34492 6.26147 9.1619 6.29228C8.97346 6.324 8.67413 6.26071 8.3299 5.91514C7.99023 5.57415 7.68669 5.02313 7.55947 4.33432C7.43217 3.64512 7.52114 3.03408 7.71386 2.61218C7.90774 2.18774 8.15522 2.0386 8.33823 2.00779Z" fill="black"/>
<path fill-rule="evenodd" clip-rule="evenodd" d="M4.63505 7.4409C5.39055 7.86923 6.05159 8.57905 6.48798 9.45135C6.92375 10.3224 7.09155 11.2688 6.95232 12.1179C6.81266 12.9696 6.33811 13.8036 5.4382 14.1948C4.55501 14.5787 3.61209 14.3827 2.86509 13.9592C2.10959 13.5309 1.44855 12.8211 1.01216 11.9488C0.576387 11.0777 0.408589 10.1313 0.547818 9.28222C0.687478 8.43051 1.16203 7.59649 2.06194 7.20535C2.94513 6.82147 3.88805 7.01739 4.63505 7.4409ZM3.64866 9.18074C3.2617 8.96135 2.99417 8.98091 2.85918 9.03958C2.7409 9.09099 2.58233 9.23463 2.52146 9.60585C2.46016 9.9797 2.52442 10.5015 2.80082 11.054C3.07661 11.6052 3.47302 12.0048 3.85148 12.2194C4.23844 12.4388 4.50597 12.4192 4.64096 12.3605C4.75924 12.3091 4.91781 12.1655 4.97868 11.7943C5.03998 11.4204 4.97572 10.8987 4.69932 10.3462C4.42353 9.7949 4.02712 9.3953 3.64866 9.18074Z" fill="black"/>
<path fill-rule="evenodd" clip-rule="evenodd" d="M23.9746 7.23539C23.0562 6.7919 22.0773 7.02541 21.3254 7.49905C20.5671 7.97671 19.9185 8.75775 19.4947 9.69899C19.0706 10.641 18.9138 11.6493 19.0454 12.5415C19.1751 13.4197 19.6174 14.3257 20.5258 14.7644C21.4441 15.2079 22.4231 14.9744 23.1749 14.5007C23.9332 14.0231 24.5818 13.242 25.0056 12.3008C25.4297 11.3588 25.5865 10.3505 25.4549 9.45829C25.3253 8.58005 24.8829 7.67405 23.9746 7.23539ZM21.3184 10.5201C21.6068 9.87959 22.0157 9.42794 22.3914 9.19128C22.7735 8.95059 23.0049 8.98814 23.1048 9.03637C23.2147 9.08942 23.4054 9.26973 23.4763 9.75029C23.5452 10.2169 23.4699 10.8399 23.1819 11.4797C22.8935 12.1202 22.4846 12.5718 22.1089 12.8085C21.7269 13.0492 21.4954 13.0116 21.3955 12.9634C21.2857 12.9103 21.0949 12.73 21.024 12.2495C20.9551 11.7828 21.0304 11.1598 21.3184 10.5201Z" fill="black"/>
</svg>
