<svg width="20" height="24" viewBox="0 0 20 24" fill="none" xmlns="http://www.w3.org/2000/svg">
<path fill-rule="evenodd" clip-rule="evenodd" d="M10.1616 7.42749e-07C9.63446 -1.54712e-05 9.17964 -2.94559e-05 8.80509 0.0305728C8.40974 0.0628738 8.01653 0.13419 7.63815 0.326984C7.07366 0.614604 6.61472 1.07355 6.3271 1.63803C6.1343 2.01641 6.06299 2.40963 6.03069 2.80498C6.00008 3.17955 6.0001 3.63431 6.00012 4.16146L6.00012 9.69073C5.70802 9.69073 5.41593 9.73338 5.13328 9.81869C4.75706 9.93224 4.44548 10.1282 4.15495 10.3514C3.81883 10.6095 3.50531 10.8999 3.19046 11.1833L1.32384 12.8632C0.999379 13.1546 0.713393 13.4115 0.501612 13.7302C0.315641 14.01 0.177994 14.319 0.0944173 14.6445C-0.000757806 15.015 -0.000375739 15.3995 5.77065e-05 15.8356L0.000115881 19.8385C9.79992e-05 20.3657 8.25021e-05 20.8205 0.0306863 21.195C0.0629873 21.5904 0.134303 21.9836 0.327097 22.362C0.614717 22.9265 1.07366 23.3854 1.63815 23.673C2.01652 23.8658 2.40974 23.9371 2.80509 23.9694C3.17966 24 3.63441 24 4.16155 24H15.8387C16.3658 24 16.8206 24 17.1951 23.9694C17.5905 23.9371 17.9837 23.8658 18.3621 23.673C18.9266 23.3854 19.3855 22.9265 19.6731 22.362C19.8659 21.9836 19.9372 21.5904 19.9695 21.195C20.0002 20.8205 20.0001 20.3657 20.0001 19.8386V4.16144C20.0001 3.6343 20.0002 3.17954 19.9695 2.80498C19.9372 2.40963 19.8659 2.01641 19.6731 1.63803C19.3855 1.07355 18.9266 0.614604 18.3621 0.326984C17.9837 0.13419 17.5905 0.0628738 17.1951 0.0305728C16.8206 -2.94559e-05 16.3659 -1.54712e-05 15.8387 7.42749e-07H10.1616ZM8.78294 11.1592C8.49297 10.8982 8.23427 10.6653 8.00012 10.4742V4.20001C8.00012 3.62345 8.00089 3.25118 8.02404 2.96784C8.04624 2.69618 8.08392 2.59546 8.10911 2.54601C8.20498 2.35785 8.35796 2.20487 8.54613 2.109C8.59557 2.0838 8.69629 2.04613 8.96795 2.02393C9.25129 2.00078 9.62356 2 10.2001 2H15.8001C16.3767 2 16.7489 2.00078 17.0323 2.02393C17.3039 2.04613 17.4047 2.0838 17.4541 2.109C17.6423 2.20487 17.7952 2.35785 17.8911 2.54601C17.9163 2.59546 17.954 2.69618 17.9762 2.96784C17.9993 3.25118 18.0001 3.62345 18.0001 4.2V19.8C18.0001 20.3766 17.9993 20.7488 17.9762 21.0322C17.954 21.3038 17.9163 21.4045 17.8911 21.454C17.7952 21.6422 17.6423 21.7951 17.4541 21.891C17.4047 21.9162 17.3039 21.9539 17.0323 21.9761C16.7831 21.9964 16.4652 21.9995 16.0001 21.9999V21C16.0001 20.6736 16.0001 20.5105 15.9429 20.3832C15.8777 20.2384 15.7617 20.1224 15.6169 20.0573C15.4896 20 15.3265 20 15.0001 20C14.6738 20 14.5106 20 14.3833 20.0573C14.2385 20.1224 14.1226 20.2384 14.0574 20.3832C14.0001 20.5105 14.0001 20.6736 14.0001 21V22H12.0001L12.0002 15.8356C12.0006 15.3995 12.001 15.015 11.9058 14.6445C11.8222 14.319 11.6846 14.01 11.4986 13.7302C11.2868 13.4115 11.0009 13.1547 10.6764 12.8632L8.78294 11.1592ZM10.0001 15.9252V22L7 22V20C7 19.6736 7 19.5105 6.94273 19.3832C6.87755 19.2384 6.7616 19.1224 6.61677 19.0573C6.48953 19 6.32635 19 6 19C5.67365 19 5.51047 19 5.38323 19.0573C5.2384 19.1224 5.12245 19.2384 5.05727 19.3832C5 19.5105 5 19.6736 5 20V22L4.20012 22C3.62356 22 3.25129 21.9992 2.96795 21.9761C2.69629 21.9539 2.59557 21.9162 2.54613 21.891C2.35796 21.7951 2.20498 21.6422 2.10911 21.454C2.08392 21.4045 2.04624 21.3038 2.02404 21.0322C2.00089 20.7488 2.00012 20.3766 2.00012 19.8V15.9252C2.00012 15.349 2.00745 15.2358 2.03155 15.142C2.05941 15.0335 2.10529 14.9305 2.16728 14.8372C2.2209 14.7565 2.30017 14.6753 2.72839 14.2899L4.52839 12.6699C4.91829 12.319 5.16871 12.0946 5.37329 11.9374C5.56804 11.7878 5.65954 11.749 5.71117 11.7334C5.8996 11.6765 6.10063 11.6765 6.28906 11.7334C6.3407 11.749 6.43219 11.7878 6.62694 11.9374C6.83152 12.0946 7.08194 12.319 7.47184 12.6699L9.27184 14.2899C9.70006 14.6753 9.77934 14.7565 9.83295 14.8372C9.89494 14.9305 9.94082 15.0335 9.96868 15.142C9.99278 15.2358 10.0001 15.349 10.0001 15.9252ZM10.0574 4.38324C10.0001 4.51047 10.0001 4.67365 10.0001 5C10.0001 5.32636 10.0001 5.48953 10.0574 5.61677C10.1226 5.7616 10.2385 5.87756 10.3833 5.94274C10.5106 6 10.6738 6 11.0001 6C11.3265 6 11.4896 6 11.6169 5.94274C11.7617 5.87756 11.8777 5.7616 11.9429 5.61677C12.0001 5.48953 12.0001 5.32636 12.0001 5C12.0001 4.67365 12.0001 4.51047 11.9429 4.38324C11.8777 4.23841 11.7617 4.12245 11.6169 4.05727C11.4896 4 11.3265 4 11.0001 4C10.6738 4 10.5106 4 10.3833 4.05727C10.2385 4.12245 10.1226 4.23841 10.0574 4.38324ZM14.0001 5C14.0001 4.67365 14.0001 4.51047 14.0574 4.38324C14.1226 4.23841 14.2385 4.12245 14.3833 4.05727C14.5106 4 14.6738 4 15.0001 4C15.3265 4 15.4896 4 15.6169 4.05727C15.7617 4.12245 15.8777 4.23841 15.9429 4.38324C16.0001 4.51047 16.0001 4.67365 16.0001 5C16.0001 5.32636 16.0001 5.48953 15.9429 5.61677C15.8777 5.7616 15.7617 5.87756 15.6169 5.94274C15.4896 6 15.3265 6 15.0001 6C14.6738 6 14.5106 6 14.3833 5.94274C14.2385 5.87756 14.1226 5.7616 14.0574 5.61677C14.0001 5.48953 14.0001 5.32636 14.0001 5ZM14.0574 8.38323C14.0001 8.51047 14.0001 8.67365 14.0001 9C14.0001 9.32636 14.0001 9.48953 14.0574 9.61677C14.1226 9.7616 14.2385 9.87756 14.3833 9.94274C14.5106 10 14.6738 10 15.0001 10C15.3265 10 15.4896 10 15.6169 9.94274C15.7617 9.87756 15.8777 9.7616 15.9429 9.61677C16.0001 9.48953 16.0001 9.32636 16.0001 9C16.0001 8.67365 16.0001 8.51047 15.9429 8.38323C15.8777 8.23841 15.7617 8.12245 15.6169 8.05727C15.4896 8 15.3265 8 15.0001 8C14.6738 8 14.5106 8 14.3833 8.05727C14.2385 8.12245 14.1226 8.23841 14.0574 8.38323ZM10.0001 9C10.0001 8.67365 10.0001 8.51047 10.0574 8.38323C10.1226 8.23841 10.2385 8.12245 10.3833 8.05727C10.5106 8 10.6738 8 11.0001 8C11.3265 8 11.4896 8 11.6169 8.05727C11.7617 8.12245 11.8777 8.23841 11.9429 8.38323C12.0001 8.51047 12.0001 8.67365 12.0001 9C12.0001 9.32636 12.0001 9.48953 11.9429 9.61677C11.8777 9.7616 11.7617 9.87756 11.6169 9.94274C11.4896 10 11.3265 10 11.0001 10C10.6738 10 10.5106 10 10.3833 9.94274C10.2385 9.87756 10.1226 9.7616 10.0574 9.61677C10.0001 9.48953 10.0001 9.32636 10.0001 9ZM14.0574 12.3832C14.0001 12.5105 14.0001 12.6736 14.0001 13C14.0001 13.3264 14.0001 13.4895 14.0574 13.6168C14.1226 13.7616 14.2385 13.8776 14.3833 13.9427C14.5106 14 14.6738 14 15.0001 14C15.3265 14 15.4896 14 15.6169 13.9427C15.7617 13.8776 15.8777 13.7616 15.9429 13.6168C16.0001 13.4895 16.0001 13.3264 16.0001 13C16.0001 12.6736 16.0001 12.5105 15.9429 12.3832C15.8777 12.2384 15.7617 12.1225 15.6169 12.0573C15.4896 12 15.3265 12 15.0001 12C14.6738 12 14.5106 12 14.3833 12.0573C14.2385 12.1225 14.1226 12.2384 14.0574 12.3832ZM14.0001 17C14.0001 16.6736 14.0001 16.5105 14.0574 16.3832C14.1226 16.2384 14.2385 16.1224 14.3833 16.0573C14.5106 16 14.6738 16 15.0001 16C15.3265 16 15.4896 16 15.6169 16.0573C15.7617 16.1224 15.8777 16.2384 15.9429 16.3832C16.0001 16.5105 16.0001 16.6736 16.0001 17C16.0001 17.3264 16.0001 17.4895 15.9429 17.6168C15.8777 17.7616 15.7617 17.8776 15.6169 17.9427C15.4896 18 15.3265 18 15.0001 18C14.6738 18 14.5106 18 14.3833 17.9427C14.2385 17.8776 14.1226 17.7616 14.0574 17.6168C14.0001 17.4895 14.0001 17.3264 14.0001 17ZM5 16C5 15.6736 5 15.5105 5.05727 15.3832C5.12245 15.2384 5.2384 15.1224 5.38323 15.0573C5.51047 15 5.67365 15 6 15C6.32635 15 6.48953 15 6.61677 15.0573C6.7616 15.1224 6.87755 15.2384 6.94273 15.3832C7 15.5105 7 15.6736 7 16C7 16.3264 7 16.4895 6.94273 16.6168C6.87755 16.7616 6.7616 16.8776 6.61677 16.9427C6.48953 17 6.32635 17 6 17C5.67365 17 5.51047 17 5.38323 16.9427C5.2384 16.8776 5.12245 16.7616 5.05727 16.6168C5 16.4895 5 16.3264 5 16Z" fill="black"/>
</svg>
