<svg width="32" height="32" viewBox="0 0 32 32" fill="none" xmlns="http://www.w3.org/2000/svg">
<g clip-path="url(#clip0_540_36299)">
<path d="M16 32C24.8366 32 32 24.8366 32 16C32 7.16344 24.8366 0 16 0C7.16344 0 0 7.16344 0 16C0 24.8366 7.16344 32 16 32Z" fill="#F0F0F0"/>
<path d="M22.0245 12.5217H18.008L15.9999 9.04346L13.9918 12.5217H9.97534L11.9837 16L9.97534 19.4782H13.9918L15.9999 22.9565L18.008 19.4782H22.0245L20.0161 16L22.0245 12.5217ZM18.4671 16L17.2336 18.1367H14.7664L13.5327 16L14.7663 13.8632H17.2335L18.4671 16ZM15.9999 11.7264L16.459 12.5216H15.5409L15.9999 11.7264ZM12.299 13.8632H13.2173L12.7582 14.6585L12.299 13.8632ZM12.299 18.1367L12.7582 17.3415L13.2173 18.1367H12.299ZM15.9999 20.2735L15.5408 19.4782H16.459L15.9999 20.2735ZM19.7008 18.1367H18.7825L19.2417 17.3415L19.7008 18.1367ZM18.7825 13.8632H19.7008L19.2417 14.6585L18.7825 13.8632Z" fill="#0052B4"/>
<path d="M25.9598 3.47827H6.0402C4.58001 4.64127 3.32776 6.0539 2.34839 7.65221H29.6516C28.6722 6.05396 27.42 4.64127 25.9598 3.47827Z" fill="#0052B4"/>
<path d="M6.0402 28.5218H25.9598C27.42 27.3588 28.6722 25.9462 29.6516 24.3479H2.34839C3.32783 25.9462 4.58008 27.3588 6.0402 28.5218Z" fill="#0052B4"/>
</g>
<defs>
<clipPath id="clip0_540_36299">
<rect width="32" height="32" fill="white"/>
</clipPath>
</defs>
</svg>
