<svg width="24" height="24" viewBox="0 0 24 24" fill="none" xmlns="http://www.w3.org/2000/svg">
<path d="M12 8.5C13.1046 8.5 14 7.60457 14 6.5C14 5.39543 13.1046 4.5 12 4.5C10.8954 4.5 10 5.39543 10 6.5C10 7.60457 10.8954 8.5 12 8.5Z" fill="black"/>
<path d="M13.5 13C13.5 13.2237 13.5361 13.4459 13.6068 13.6581L14.9487 17.6838C15.1233 18.2077 14.8402 18.774 14.3162 18.9487C13.7923 19.1233 13.226 18.8402 13.0513 18.3162L12.0949 15.4469C12.0645 15.3557 11.9355 15.3557 11.9051 15.4469L10.9487 18.3162C10.774 18.8402 10.2077 19.1233 9.68377 18.9487C9.15983 18.774 8.87667 18.2077 9.05132 17.6838L10.2434 14.1075C10.4134 13.5976 10.5 13.0637 10.5 12.5263V11.6484C9.05968 11.4519 7.7069 10.9763 6.49927 10.2778C6.02121 10.0012 5.85785 9.38949 6.13439 8.91143C6.41094 8.43337 7.02267 8.27 7.50073 8.54655C8.82349 9.31172 10.359 9.74998 12 9.74998C13.641 9.74998 15.1765 9.31172 16.4993 8.54655C16.9773 8.27 17.5891 8.43337 17.8656 8.91143C18.1421 9.38949 17.9788 10.0012 17.5007 10.2778C16.2931 10.9763 14.9403 11.4519 13.5 11.6484V13Z" fill="black"/>
<path fill-rule="evenodd" clip-rule="evenodd" d="M24 12C24 18.6274 18.6274 24 12 24C5.37258 24 0 18.6274 0 12C0 5.37258 5.37258 0 12 0C18.6274 0 24 5.37258 24 12ZM22 12C22 17.5228 17.5228 22 12 22C6.47715 22 2 17.5228 2 12C2 6.47715 6.47715 2 12 2C17.5228 2 22 6.47715 22 12Z" fill="black"/>
</svg>
