<svg width="22" height="22" viewBox="0 0 22 22" fill="none" xmlns="http://www.w3.org/2000/svg">
<path fill-rule="evenodd" clip-rule="evenodd" d="M18.7819 0.335404C17.9263 -0.100571 16.9136 -0.10057 16.058 0.335404C15.6301 0.553399 15.2581 0.926341 14.8277 1.35781L1.67686 14.5088C1.32275 14.8628 1.06835 15.117 0.859348 15.4047C0.441934 15.9792 0.16642 16.6444 0.0553282 17.3458C-0.000296198 17.697 -0.000210188 18.0567 -8.78797e-05 18.5573L-7.64356e-05 19.6L-0.0002748 19.681C-0.00130179 19.9628 -0.00256308 20.3091 0.0978125 20.618C0.295648 21.2269 0.773013 21.7043 1.38189 21.9021C1.69081 22.0025 2.03717 22.0012 2.31895 22.0002L2.39992 22L3.4426 22C3.94326 22.0001 4.30294 22.0002 4.65413 21.9446C5.35554 21.8335 6.02069 21.558 6.59521 21.1406C6.88287 20.9316 7.13714 20.6772 7.49107 20.3231L20.6421 7.17219C21.0736 6.74181 21.4465 6.36981 21.6645 5.94197C22.1005 5.08632 22.1005 4.07368 21.6645 3.21803C21.4465 2.7902 21.0736 2.41821 20.6421 1.98784L20.0121 1.35782C19.5817 0.926346 19.2097 0.553401 18.7819 0.335404ZM16.9659 2.11742C17.2512 1.97209 17.5887 1.97209 17.8739 2.11742C17.9795 2.1712 18.1112 2.28552 18.6927 2.867L19.1329 3.30721C19.7144 3.8887 19.8287 4.02046 19.8825 4.12601C20.0278 4.41123 20.0278 4.74878 19.8825 5.03399C19.8287 5.13954 19.7144 5.27131 19.1329 5.85279L18.2749 6.71081L15.2891 3.72502L16.1471 2.867C16.7286 2.28552 16.8604 2.1712 16.9659 2.11742ZM13.8749 5.13924L3.14221 15.8719C2.71675 16.2974 2.58227 16.4359 2.47738 16.5803C2.24549 16.8995 2.09242 17.269 2.0307 17.6587C2.00279 17.8349 1.99992 18.028 1.99992 18.6296V19.6C1.99992 19.797 2.00027 19.9048 2.00455 19.983L2.00524 19.9947L2.0169 19.9954C2.09517 19.9997 2.2029 20 2.39992 20H3.37028C3.97197 20 4.16501 19.9971 4.34126 19.9692C4.73093 19.9075 5.10046 19.7545 5.41964 19.5226C5.56401 19.4177 5.70254 19.2832 6.12799 18.8577L16.8607 8.12503L13.8749 5.13924Z" fill="black"/>
</svg>
