<svg width="32" height="32" viewBox="0 0 32 32" fill="none" xmlns="http://www.w3.org/2000/svg">
<g clip-path="url(#clip0_540_36367)">
<path d="M16 32C24.8366 32 32 24.8366 32 16C32 7.16344 24.8366 0 16 0C7.16344 0 0 7.16344 0 16C0 24.8366 7.16344 32 16 32Z" fill="#F0F0F0"/>
<path d="M0 16.0001C0 7.1635 7.1635 0 16 0C24.8365 0 32 7.1635 32 16.0001" fill="#D80027"/>
<path d="M9.7391 8.34777C9.7391 6.01665 11.3774 4.06927 13.5652 3.59146C13.2289 3.51808 12.8801 3.47827 12.5217 3.47827C9.83222 3.47827 7.6521 5.6584 7.6521 8.34783C7.6521 11.0373 9.83222 13.2174 12.5217 13.2174C12.88 13.2174 13.2288 13.1776 13.5652 13.1041C11.3774 12.6263 9.7391 10.679 9.7391 8.34777Z" fill="#F0F0F0"/>
<path d="M16 3.82617L16.3454 4.88898H17.4629L16.5587 5.54592L16.9041 6.60873L16 5.95192L15.0959 6.60873L15.4412 5.54592L14.5371 4.88898H15.6546L16 3.82617Z" fill="#F0F0F0"/>
<path d="M13.2889 5.91309L13.6342 6.97596H14.7518L13.8477 7.63284L14.1931 8.69565L13.2889 8.03884L12.3847 8.69565L12.7301 7.63284L11.8259 6.97596H12.9435L13.2889 5.91309Z" fill="#F0F0F0"/>
<path d="M18.7109 5.91309L19.0564 6.97596H20.1739L19.2697 7.63284L19.6151 8.69565L18.7109 8.03884L17.8068 8.69565L18.1522 7.63284L17.248 6.97596H18.3655L18.7109 5.91309Z" fill="#F0F0F0"/>
<path d="M17.6675 9.04346L18.0128 10.1063H19.1303L18.2262 10.7632L18.5716 11.826L17.6675 11.1692L16.7633 11.826L17.1087 10.7632L16.2046 10.1063H17.322L17.6675 9.04346Z" fill="#F0F0F0"/>
<path d="M14.3326 9.04346L14.6779 10.1063H15.7955L14.8913 10.7632L15.2368 11.826L14.3326 11.1692L13.4284 11.826L13.7738 10.7632L12.8696 10.1063H13.9872L14.3326 9.04346Z" fill="#F0F0F0"/>
</g>
<defs>
<clipPath id="clip0_540_36367">
<rect width="32" height="32" fill="white"/>
</clipPath>
</defs>
</svg>
