<svg width="24" height="22" viewBox="0 0 24 22" fill="none" xmlns="http://www.w3.org/2000/svg">
<path d="M19 19C19.5523 19 20 18.5523 20 18C20 17.4477 19.5523 17 19 17C18.4477 17 18 17.4477 18 18C18 18.5523 18.4477 19 19 19Z" fill="black"/>
<path fill-rule="evenodd" clip-rule="evenodd" d="M22 5.7587V8.17825C22.1219 8.21747 22.2427 8.26619 22.362 8.32698C22.9265 8.6146 23.3854 9.07354 23.673 9.63803C23.8658 10.0164 23.9371 10.4096 23.9694 10.805C24 11.1796 24 11.6343 24 12.1615V17.8385C24 18.3657 24 18.8205 23.9694 19.195C23.9371 19.5904 23.8658 19.9836 23.673 20.362C23.3854 20.9265 22.9265 21.3854 22.362 21.673C21.9836 21.8658 21.5904 21.9371 21.195 21.9694C20.8205 22 20.3658 22 19.8387 22H18.1615C17.6344 22 17.1795 22 16.805 21.9694C16.4096 21.9371 16.0164 21.8658 15.638 21.673C15.3056 21.5036 15.0097 21.2748 14.7639 21H4C3.44772 21 3 20.5523 3 20C3 19.4477 3.44772 19 4 19H10V16H5.75873C4.95374 16 4.28938 16 3.74817 15.9558C3.18608 15.9099 2.66937 15.8113 2.18404 15.564C1.43139 15.1805 0.819467 14.5686 0.435974 13.816C0.188682 13.3306 0.0901184 12.8139 0.0441933 12.2518C-2.28733e-05 11.7106 -1.33074e-05 11.0463 4.83133e-07 10.2413V5.75868C-1.30411e-05 4.95372 -2.25492e-05 4.28937 0.0441936 3.74818C0.0901188 3.18608 0.188683 2.66937 0.435975 2.18404C0.819468 1.43139 1.43139 0.819469 2.18404 0.435975C2.66937 0.188684 3.18608 0.0901201 3.74818 0.0441949C4.28937 -2.19792e-05 4.95372 -1.18582e-05 5.75868 4.06721e-07H16.2413C17.0463 -1.13298e-05 17.7106 -2.10181e-05 18.2518 0.0441956C18.8139 0.0901208 19.3306 0.188685 19.816 0.435976C20.5686 0.81947 21.1805 1.43139 21.564 2.18404C21.8113 2.66938 21.9099 3.18608 21.9558 3.74818C22 4.28937 22 4.95373 22 5.7587ZM20 5.8V8.00003L18.1615 8C17.6343 7.99998 17.1795 7.99997 16.805 8.03057C16.4096 8.06287 16.0164 8.13419 15.638 8.32698C15.0735 8.6146 14.6146 9.07354 14.327 9.63803C14.1342 10.0164 14.0629 10.4096 14.0306 10.805C14 11.1795 14 11.6343 14 12.1615L14 14L5.8 14C4.94342 14 4.36113 13.9992 3.91104 13.9625C3.47262 13.9266 3.24842 13.8617 3.09202 13.782C2.71569 13.5903 2.40973 13.2843 2.21799 12.908C2.1383 12.7516 2.07337 12.5274 2.03755 12.089C2.00078 11.6389 2 11.0566 2 10.2V5.8C2 4.94342 2.00078 4.36113 2.03755 3.91104C2.07337 3.47262 2.1383 3.24842 2.21799 3.09202C2.40973 2.7157 2.71569 2.40973 3.09202 2.21799C3.24842 2.1383 3.47262 2.07337 3.91104 2.03755C4.36113 2.00078 4.94342 2 5.8 2L16.2 2C17.0566 2 17.6389 2.00078 18.089 2.03755C18.5274 2.07337 18.7516 2.1383 18.908 2.21799C19.2843 2.40974 19.5903 2.7157 19.782 3.09202C19.8617 3.24842 19.9266 3.47262 19.9624 3.91104C19.9992 4.36113 20 4.94342 20 5.8ZM12 16H14L14 17.8385C14 18.2774 14 18.666 14.0176 19H12V16ZM16.9678 10.0239C16.6962 10.0461 16.5955 10.0838 16.546 10.109C16.3578 10.2049 16.2049 10.3578 16.109 10.546C16.0838 10.5955 16.0461 10.6962 16.0239 10.9678C16.0008 11.2512 16 11.6234 16 12.2V17.8C16 18.3766 16.0008 18.7488 16.0239 19.0322C16.0461 19.3038 16.0838 19.4045 16.109 19.454C16.2049 19.6422 16.3578 19.7951 16.546 19.891C16.5955 19.9162 16.6962 19.9539 16.9678 19.9761C17.2512 19.9992 17.6234 20 18.2 20H19.8C20.3766 20 20.7488 19.9992 21.0322 19.9761C21.3038 19.9539 21.4045 19.9162 21.454 19.891C21.6422 19.7951 21.7951 19.6422 21.891 19.454C21.9162 19.4045 21.9539 19.3038 21.9761 19.0322C21.9992 18.7488 22 18.3766 22 17.8V12.2C22 11.6234 21.9992 11.2512 21.9761 10.9678C21.9539 10.6962 21.9162 10.5955 21.891 10.546C21.7951 10.3578 21.6422 10.2049 21.454 10.109C21.4045 10.0838 21.3038 10.0461 21.0322 10.0239C20.7488 10.0008 20.3766 10 19.8 10H18.2C17.6234 10 17.2512 10.0008 16.9678 10.0239Z" fill="black"/>
</svg>
