<svg width="28" height="28" viewBox="0 0 28 28" fill="none" xmlns="http://www.w3.org/2000/svg">
<path d="M13.4629 6.15792C13.7906 5.94915 14.2096 5.94915 14.5374 6.15793L23.4629 11.8435C23.9287 12.1402 24.5468 12.0031 24.8435 11.5373C25.1403 11.0715 25.0032 10.4534 24.5374 10.1566L15.6119 4.47109C14.6287 3.84476 13.3716 3.84476 12.3884 4.47109L3.46287 10.1566C2.99706 10.4534 2.85999 11.0715 3.15671 11.5373C3.45343 12.0031 4.07158 12.1402 4.53738 11.8435L13.4629 6.15792Z" fill="black"/>
<path d="M8.00013 14C8.00013 13.4477 7.55241 13 7.00013 13C6.44784 13 6.00013 13.4477 6.00013 14V22H4.00013C3.44784 22 3.00013 22.4477 3.00013 23C3.00013 23.5523 3.44784 24 4.00013 24H24.0001C24.5524 24 25.0001 23.5523 25.0001 23C25.0001 22.4477 24.5524 22 24.0001 22H22.0001V14C22.0001 13.4477 21.5524 13 21.0001 13C20.4478 13 20.0001 13.4477 20.0001 14V22H18.0001L18.0001 14C18.0001 13.4477 17.5524 13 17.0001 13C16.4478 13 16.0001 13.4477 16.0001 14L16.0001 22H12.0001V14C12.0001 13.4477 11.5524 13 11.0001 13C10.4478 13 10.0001 13.4477 10.0001 14L10.0001 22H8.00013V14Z" fill="black"/>
<path d="M14.0001 8.50006C13.1717 8.50006 12.5001 9.17163 12.5001 10.0001C12.5001 10.8285 13.1717 11.5001 14.0001 11.5001C14.8286 11.5001 15.5001 10.8285 15.5001 10.0001C15.5001 9.17163 14.8286 8.50006 14.0001 8.50006Z" fill="black"/>
</svg>
