<svg width="32" height="32" viewBox="0 0 32 32" fill="none" xmlns="http://www.w3.org/2000/svg">
<g clip-path="url(#clip0_540_36377)">
<path d="M16 32C24.8366 32 32 24.8366 32 16C32 7.16344 24.8366 0 16 0C7.16344 0 0 7.16344 0 16C0 24.8366 7.16344 32 16 32Z" fill="#F0F0F0"/>
<path d="M4.68628 27.3138C-1.56209 21.0653 -1.56209 10.9347 4.68628 4.68628C4.68584 4.68697 13.9131 16 13.9131 16L4.68628 27.3138Z" fill="black"/>
<path d="M13.9132 15.9999L2.12216 8.03198C1.7566 8.66742 1.43423 9.33067 1.15723 10.0172L7.12654 16L1.15741 21.9831C1.43416 22.6691 1.75623 23.3319 2.12154 23.9669L13.9132 15.9999Z" fill="#FFDA44"/>
<path d="M31.8645 13.9131H13.9125L4.68603 4.68652C3.69178 5.68077 2.82796 6.80521 2.12196 8.03215L10.0744 16L2.12134 23.9669C2.82734 25.1941 3.69153 26.319 4.68603 27.3135L13.9125 18.087H31.8645C31.9534 17.4038 31.9999 16.7073 31.9999 16C31.9999 15.2927 31.9534 14.5962 31.8645 13.9131Z" fill="#6DA544"/>
<path d="M6.25854 28.6922C8.95661 30.7661 12.3339 31.9999 15.9999 31.9999C23.3924 31.9999 29.6127 26.9861 31.4487 20.1738H14.777L6.25854 28.6922Z" fill="#0052B4"/>
<path d="M31.4487 11.8261C29.6127 5.01381 23.3924 0 15.9999 0C12.3339 0 8.95661 1.23381 6.25854 3.30769L14.7769 11.8261H31.4487Z" fill="#D80027"/>
</g>
<defs>
<clipPath id="clip0_540_36377">
<rect width="32" height="32" fill="white"/>
</clipPath>
</defs>
</svg>
