<svg width="20" height="23" viewBox="0 0 20 23" fill="none" xmlns="http://www.w3.org/2000/svg">
<path fill-rule="evenodd" clip-rule="evenodd" d="M11.0438 1.68779e-07H8.95625C7.5932 -7.83166e-06 6.50917 -1.42679e-05 5.63458 0.0714425C4.73898 0.144616 3.97531 0.297677 3.27606 0.653961C2.14709 1.2292 1.2292 2.14709 0.653962 3.27606C0.297678 3.9753 0.144616 4.73898 0.0714427 5.63458C-1.29938e-05 6.50915 -7.01766e-06 7.59316 5.0444e-07 8.95618V8.95624V17.6013V17.6014C-1.50051e-05 18.6083 -2.77087e-05 19.4331 0.0580913 20.0717C0.115634 20.704 0.241791 21.3536 0.647702 21.8664C1.21115 22.5782 2.06665 22.9966 2.97448 23.0044C3.62848 23.0099 4.21867 22.7107 4.75308 22.368C5.29285 22.0218 5.94392 21.5154 6.7387 20.8972L8.64933 19.4111C9.42498 18.8078 9.59205 18.7019 9.73866 18.6622C9.90981 18.6159 10.0902 18.6159 10.2614 18.6622C10.408 18.7019 10.575 18.8078 11.3507 19.4111L13.2612 20.8971C14.056 21.5153 14.7071 22.0218 15.2469 22.368C15.7813 22.7107 16.3715 23.0099 17.0255 23.0044C17.9334 22.9966 18.7889 22.5782 19.3523 21.8664C19.7582 21.3536 19.8844 20.704 19.9419 20.0717C20 19.4331 20 18.6083 20 17.6014V8.95622V8.95613C20 7.59314 20 6.50914 19.9286 5.63458C19.8554 4.73898 19.7023 3.9753 19.346 3.27606C18.7708 2.14709 17.8529 1.2292 16.7239 0.653961C16.0247 0.297677 15.261 0.144616 14.3654 0.0714425C13.4908 -1.42679e-05 12.4068 -7.83166e-06 11.0438 1.68779e-07Z" fill="#99A2AD"/>
</svg>
