<svg width="32" height="32" viewBox="0 0 32 32" fill="none" xmlns="http://www.w3.org/2000/svg">
<g clip-path="url(#clip0_540_36326)">
<path d="M32 16C32 24.8365 24.8365 32 16 32C7.1635 32 0 24.8365 0 16C0 16.0038 16 0.00175 16 0C24.8365 0 32 7.1635 32 16Z" fill="#0052B4"/>
<path d="M15.9573 16.0001H16.0001C16.0001 15.9857 16.0001 15.9717 16.0001 15.9573C15.9858 15.9716 15.9716 15.9858 15.9573 16.0001Z" fill="#F0F0F0"/>
<path d="M16 8.34781C16 5.5325 16 3.68781 16 0H15.9973C7.162 0.0015 0 7.16431 0 16H8.34781V11.2993L13.0486 16H15.9572C15.9715 15.9858 15.9858 15.9715 16.0001 15.9572C16.0001 14.8793 16.0001 13.9174 16.0001 13.0486L11.2992 8.34781H16Z" fill="#F0F0F0"/>
<path d="M8.09466 2.08691C5.59223 3.51185 3.51185 5.59223 2.08691 8.09466V16H6.26085V6.26098V6.26085H16C16 4.94441 16 3.69029 16 2.08691H8.09466Z" fill="#D80027"/>
<path d="M16 14.0325L10.3155 8.3479C10.3155 8.3479 8.3479 8.34803 8.3479 8.3479V8.34803L16 16H16C16 16 16 14.6433 16 14.0325Z" fill="#D80027"/>
<path d="M27.7081 11.8723L28.0534 12.9352H29.171L28.2669 13.5921L28.6122 14.6549L27.7081 13.9981L26.8039 14.6549L27.1493 13.5921L26.2451 12.9352H27.3627L27.7081 11.8723Z" fill="#D80027"/>
<path d="M23.7132 19.5247L24.2312 21.119H25.9075L24.5513 22.1043L25.0694 23.6986L23.7132 22.7133L22.3569 23.6986L22.875 22.1043L21.5188 21.119H23.1951L23.7132 19.5247Z" fill="#D80027"/>
<path d="M23.864 7.00293L24.2957 8.33162H25.6927L24.5624 9.15255L24.9942 10.4812L23.864 9.65999L22.7338 10.4812L23.1655 9.15255L22.0354 8.33162H23.4323L23.864 7.00293Z" fill="#D80027"/>
<path d="M20.0201 11.8259L20.5381 13.4203H22.2144L20.8582 14.4056L21.3763 15.9999L20.0201 15.0146L18.6638 15.9999L19.1819 14.4056L17.8257 13.4203H19.502L20.0201 11.8259Z" fill="#D80027"/>
</g>
<defs>
<clipPath id="clip0_540_36326">
<rect width="32" height="32" fill="white"/>
</clipPath>
</defs>
</svg>
