<svg width="32" height="32" viewBox="0 0 32 32" fill="none" xmlns="http://www.w3.org/2000/svg">
<g clip-path="url(#clip0_540_36347)">
<path d="M16 32C24.8366 32 32 24.8366 32 16C32 7.16344 24.8366 0 16 0C7.16344 0 0 7.16344 0 16C0 24.8366 7.16344 32 16 32Z" fill="#F0F0F0"/>
<path d="M16 0V16L4.68628 27.3137C7.58172 30.2091 11.5817 32 16 32C24.8365 32 32 24.8365 32 16C32 7.1635 16 0 16 0Z" fill="#D80027"/>
<path d="M16 0C11.5817 0 7.58172 1.79088 4.68628 4.68625C8.6119 8.61188 10.0055 10.0055 16 16H32C32 7.1635 24.8365 0 16 0Z" fill="#0052B4"/>
<path d="M10.9557 16.0001L9.00173 15.081L10.0423 13.1886L7.92042 13.5945L7.65155 11.4509L6.17354 13.0274L4.69561 11.4509L4.42667 13.5945L2.30486 13.1885L3.34542 15.081L1.39136 16.0001L3.34542 16.9192L2.30486 18.8117L4.42686 18.4058L4.69554 20.5493L6.17354 18.9728L7.65155 20.5493L7.92042 18.4058L10.0422 18.8117L9.00167 16.9193L10.9557 16.0001Z" fill="#FFDA44"/>
<path d="M4.26711 6.26099L4.91736 7.16992L5.98267 6.83249L5.31905 7.73174L5.9693 8.64067L4.90892 8.28749L4.24536 9.18667L4.25367 8.06917L3.19336 7.71592L4.25886 7.37849L4.26711 6.26099Z" fill="#FFDA44"/>
<path d="M4.26711 22.8135L4.91736 23.7224L5.98267 23.3849L5.31905 24.2842L5.9693 25.1932L4.90892 24.84L4.24536 25.7392L4.25367 24.6217L3.19336 24.2684L4.25886 23.931L4.26711 22.8135Z" fill="#FFDA44"/>
<path d="M13.5417 14.5374L12.8915 15.4463L11.8262 15.1087L12.4898 16.008L11.8395 16.917L12.8999 16.5638L13.5635 17.463L13.5552 16.3455L14.6155 15.9923L13.55 15.6549L13.5417 14.5374Z" fill="#FFDA44"/>
</g>
<defs>
<clipPath id="clip0_540_36347">
<rect width="32" height="32" fill="white"/>
</clipPath>
</defs>
</svg>
