<svg width="96" height="72" viewBox="0 0 96 72" fill="none" xmlns="http://www.w3.org/2000/svg">
<rect width="96" height="72" fill="white"/>
<path d="M70.4413 60.1919C76.2056 60.1919 80.8785 57.9167 80.8785 55.1101C80.8785 52.3035 76.2056 50.0283 70.4413 50.0283C64.677 50.0283 60.0042 52.3035 60.0042 55.1101C60.0042 57.9167 64.677 60.1919 70.4413 60.1919Z" fill="#E0E0E0"/>
<path d="M15.5041 59.4304C15.3952 59.3559 15.3105 59.2499 15.2608 59.126C15.2111 59.0021 15.1986 58.8659 15.2249 58.7348L21.9151 28.4908C21.9956 28.1983 22.1773 27.9457 22.4264 27.7797L62.2355 4.30756C62.3572 4.24181 62.4924 4.20633 62.6301 4.20398C62.7678 4.20164 62.904 4.2325 63.0279 4.29407C63.135 4.36911 63.2182 4.47477 63.2668 4.59783C63.3155 4.72089 63.3275 4.85589 63.3014 4.9859L56.6093 35.2299C56.5287 35.5228 56.3462 35.7756 56.0962 35.941L16.2965 59.4131C16.1751 59.4794 16.04 59.5156 15.9023 59.5186C15.7646 59.5216 15.6282 59.4914 15.5041 59.4304Z" fill="#F0F0F0"/>
<path d="M22.681 28.9381L15.9909 59.1936C15.9343 59.4518 16.0701 59.5559 16.2965 59.4229L56.1056 35.9508C56.3556 35.7854 56.5381 35.5326 56.6188 35.2397L63.3014 4.98609C63.358 4.72593 63.2222 4.6238 62.9958 4.75677L23.1867 28.2289C22.9402 28.3955 22.7607 28.6473 22.681 28.9381Z" fill="#E6E6E6"/>
<path d="M63.7862 4.74164C63.6622 4.68036 63.5259 4.64983 63.3882 4.65251C63.2505 4.65518 63.1154 4.691 62.9938 4.75705L23.1847 28.2292C23.0692 28.3055 22.9763 28.4127 22.9162 28.539C22.856 28.6654 22.8307 28.8061 22.8432 28.9461L28.0825 66.407C28.1081 66.549 28.1611 66.6844 28.2386 66.8051C28.316 66.9259 28.4162 67.0297 28.5334 67.1104C28.6569 67.1721 28.7931 67.2029 28.9305 67.2002C29.068 67.1976 29.2028 67.1615 29.324 67.095L69.1255 43.6287C69.2413 43.5521 69.3343 43.4447 69.3945 43.318C69.4547 43.1912 69.4798 43.0501 69.467 42.9098L64.2446 5.44503C64.2183 5.30239 64.1641 5.16661 64.0853 5.04578C64.0066 4.92494 63.9049 4.82151 63.7862 4.74164Z" fill="#F0F0F0"/>
<path d="M23.6162 29.3989L28.848 66.8598C28.849 66.9157 28.8652 66.9702 28.8947 67.0172C28.9242 67.0643 28.9658 67.1021 29.0151 67.1264C29.0643 67.1508 29.1192 67.1607 29.1736 67.1552C29.228 67.1496 29.2799 67.1288 29.3234 67.0949L69.125 43.6286C69.2407 43.5521 69.3338 43.4446 69.394 43.3179C69.4542 43.1912 69.4793 43.05 69.4665 42.9098L64.2441 5.44497C64.2434 5.38894 64.2275 5.33421 64.1981 5.28688C64.1688 5.23955 64.1271 5.20148 64.0778 5.1769C64.0285 5.15232 63.9735 5.14221 63.9189 5.14769C63.8644 5.15317 63.8123 5.17403 63.7687 5.20793L23.9596 28.6801C23.8434 28.7563 23.75 28.8637 23.6895 28.9904C23.6289 29.1172 23.6036 29.2584 23.6162 29.3989Z" fill="#FAFAFA"/>
<path d="M16.0264 59.0238L26.2145 53.0132L26.5107 55.1908L21.8392 57.9466C21.8392 57.9466 20.594 58.3975 20.0997 58.5247C19.6054 58.6519 16.0264 59.0238 16.0264 59.0238Z" fill="#E0E0E0"/>
<path d="M26.5162 55.1929L28.0444 66.1388L21.8447 57.9486L26.5162 55.1929Z" fill="#E6E6E6"/>
<path d="M27.8616 66.5031L22.3053 59.1319C22.213 59.022 22.0964 58.9362 21.9652 58.8815C21.8339 58.8269 21.6918 58.805 21.5506 58.8178L16.3547 59.5886C16.062 59.6206 15.7666 59.5658 15.5038 59.4306C15.2924 59.3073 15.3283 59.1647 15.583 59.1146L21.5544 57.941C21.6944 57.9195 21.8374 57.9353 21.9697 57.987C22.1019 58.0386 22.2188 58.1244 22.309 58.2358L28.6351 66.9463C28.7898 67.1602 28.7445 67.2315 28.5332 67.1063C28.2785 66.9441 28.0516 66.7404 27.8616 66.5031Z" fill="#E0E0E0"/>
<path d="M63.3105 4.83806C63.3098 4.72947 63.2829 4.62274 63.2323 4.52728C63.1816 4.43183 63.1087 4.35059 63.0199 4.29076C62.8958 4.23008 62.7595 4.19988 62.6219 4.20256C62.4844 4.20523 62.3493 4.24072 62.2275 4.30618L22.4184 27.7783C22.2971 27.856 22.1914 27.9567 22.1071 28.0751C22.0136 28.1982 21.945 28.339 21.9053 28.4894L20.9619 32.7618L21.7279 33.2108L62.3577 9.25691L63.3011 4.98645C63.31 4.93754 63.3138 4.88779 63.3124 4.83806H63.3105Z" fill="#906DDB"/>
<path opacity="0.2" d="M63.3013 4.98609C63.3579 4.72593 63.2221 4.6238 62.9957 4.75677L23.1866 28.2289C22.938 28.3945 22.7564 28.6464 22.6753 28.9381L21.7319 33.2105L62.358 9.25655L63.3013 4.98609Z" fill="black"/>
<path opacity="0.1" d="M22.8813 28.5256C22.7876 28.6476 22.7195 28.788 22.6813 28.938L21.7379 33.2104L20.9719 32.7595L21.9153 28.4871C21.955 28.3367 22.0236 28.1958 22.1171 28.0728L22.8813 28.5256Z" fill="black"/>
<path opacity="0.4" d="M63.3098 4.83611C63.2909 4.69157 63.1683 4.6434 62.9928 4.75709L23.1837 28.2273C23.0615 28.3046 22.9557 28.4062 22.8724 28.526L22.1064 28.0731C22.1907 27.9548 22.2964 27.854 22.4177 27.7763L62.2268 4.30422C62.3486 4.23876 62.4837 4.20328 62.6213 4.2006C62.7588 4.19793 62.8951 4.22813 63.0192 4.28881C63.108 4.34864 63.1809 4.42987 63.2316 4.52533C63.2822 4.62078 63.3091 4.72752 63.3098 4.83611Z" fill="white"/>
<path d="M64.284 5.80347L64.2444 5.44503C64.2416 5.42749 64.2378 5.41013 64.2331 5.393C64.2339 5.38789 64.2339 5.38269 64.2331 5.37758C64.1689 5.11826 64.0139 4.89199 63.7973 4.74164C63.6733 4.68036 63.537 4.64983 63.3993 4.65251C63.2616 4.65518 63.1265 4.691 63.0049 4.75705L23.1958 28.2292C23.0753 28.3054 22.98 28.4169 22.9222 28.5491C22.8633 28.6722 22.8397 28.8098 22.8543 28.9461L23.609 34.313L24.375 34.7659L64.9859 10.8139L64.284 5.80347Z" fill="#906DDB"/>
<path opacity="0.1" d="M24.3676 34.7637L23.6016 34.3108L22.847 28.9439C22.8324 28.8076 22.856 28.67 22.9149 28.5469L23.6828 28.9978C23.6225 29.1205 23.5982 29.2584 23.613 29.3948L24.3676 34.7637Z" fill="black"/>
<path opacity="0.4" d="M64.2218 5.37758C64.211 5.32903 64.1884 5.28404 64.1562 5.24674C64.1239 5.20945 64.0829 5.18105 64.0371 5.16416C63.9912 5.14727 63.9419 5.14243 63.8938 5.15009C63.8456 5.15775 63.8001 5.17766 63.7615 5.208L23.9524 28.6801C23.8314 28.7558 23.736 28.8674 23.6788 29L22.926 28.5491C22.9842 28.4167 23.0794 28.3047 23.1996 28.2272L63.0087 4.75705C63.1303 4.691 63.2654 4.65518 63.4031 4.65251C63.5408 4.64983 63.6771 4.68036 63.8011 4.74164C64.0125 4.89418 64.1621 5.12032 64.2218 5.37758Z" fill="white"/>
<path d="M34.9355 60.6524L34.46 57.2395C34.4593 57.1951 34.4467 57.1517 34.4236 57.114C34.4004 57.0764 34.3676 57.046 34.3286 57.0261C34.2897 57.0062 34.2462 56.9977 34.2028 57.0013C34.1595 57.005 34.1179 57.0207 34.0827 57.0468L30.6131 59.0934C30.5196 59.1545 30.4445 59.2409 30.3962 59.3429C30.3479 59.445 30.3283 59.5587 30.3395 59.6715L30.8131 63.0921C30.8131 63.1369 30.8253 63.1807 30.8483 63.2188C30.8713 63.2568 30.9042 63.2876 30.9434 63.3076C30.9826 63.3276 31.0265 63.336 31.0701 63.332C31.1137 63.328 31.1554 63.3117 31.1904 63.2848L34.66 61.2382C34.7552 61.177 34.8316 61.0895 34.8803 60.9858C34.9291 60.8822 34.9482 60.7666 34.9355 60.6524Z" fill="#906DDB"/>
<path d="M40.3005 57.4919L39.8232 54.081C39.8232 54.0362 39.811 53.9924 39.788 53.9543C39.7649 53.9163 39.732 53.8855 39.6928 53.8655C39.6537 53.8455 39.6098 53.837 39.5662 53.8411C39.5226 53.8451 39.4809 53.8614 39.4459 53.8883L35.9762 55.9329C35.8829 55.9942 35.808 56.0806 35.7597 56.1826C35.7114 56.2846 35.6917 56.3983 35.7027 56.5111L36.18 59.924C36.18 59.9687 36.1922 60.0125 36.2152 60.0506C36.2383 60.0886 36.2712 60.1194 36.3104 60.1394C36.3495 60.1594 36.3934 60.1679 36.437 60.1639C36.4806 60.1599 36.5223 60.1435 36.5573 60.1167L40.027 58.0701C40.1206 58.0091 40.1958 57.9228 40.2441 57.8207C40.2924 57.7186 40.312 57.6048 40.3005 57.4919Z" fill="#EBEBEB"/>
<path d="M45.6669 54.3313L45.1896 50.9203C45.1896 50.8756 45.1774 50.8317 45.1544 50.7937C45.1313 50.7556 45.0984 50.7249 45.0592 50.7049C45.02 50.6849 44.9762 50.6764 44.9326 50.6804C44.8889 50.6844 44.8473 50.7008 44.8122 50.7276L41.3407 52.7761C41.2474 52.8374 41.1725 52.9238 41.1242 53.0258C41.0759 53.1278 41.0562 53.2415 41.0672 53.3543L41.5445 56.7672C41.5445 56.8119 41.5567 56.8557 41.5797 56.8938C41.6028 56.9319 41.6357 56.9626 41.6749 56.9826C41.714 57.0026 41.7579 57.0111 41.8015 57.0071C41.8451 57.0031 41.8868 56.9867 41.9218 56.9599L45.3915 54.9133C45.4861 54.8523 45.562 54.7654 45.6107 54.6626C45.6594 54.5597 45.6789 54.4449 45.6669 54.3313Z" fill="#EBEBEB"/>
<path d="M51.0375 51.1731L50.5602 47.7602C50.5602 47.7154 50.548 47.6716 50.525 47.6335C50.5019 47.5955 50.469 47.5647 50.4298 47.5447C50.3906 47.5247 50.3468 47.5162 50.3032 47.5203C50.2596 47.5243 50.2179 47.5406 50.1828 47.5675L46.6981 49.6179C46.6045 49.6788 46.5293 49.7652 46.481 49.8673C46.4327 49.9694 46.4131 50.0832 46.4246 50.196L46.9019 53.607C46.9019 53.6517 46.9141 53.6956 46.9371 53.7337C46.9601 53.7717 46.9931 53.8025 47.0323 53.8225C47.0714 53.8425 47.1153 53.8509 47.1589 53.8469C47.2025 53.8429 47.2442 53.8266 47.2792 53.7997L50.7489 51.7551C50.8456 51.6955 50.924 51.6093 50.975 51.5064C51.0261 51.4035 51.0477 51.288 51.0375 51.1731Z" fill="#EBEBEB"/>
<path d="M56.3979 48.0126L55.9206 44.592C55.9206 44.5472 55.9084 44.5034 55.8854 44.4653C55.8623 44.4273 55.8294 44.3965 55.7902 44.3765C55.751 44.3565 55.7072 44.348 55.6636 44.352C55.6199 44.3561 55.5783 44.3724 55.5432 44.3992L52.0736 46.4458C51.98 46.5068 51.9048 46.5931 51.8565 46.6952C51.8082 46.7973 51.7886 46.9112 51.8001 47.024L52.2774 50.4349C52.2774 50.4797 52.2896 50.5235 52.3126 50.5616C52.3356 50.5996 52.3686 50.6304 52.4078 50.6504C52.4469 50.6704 52.4908 50.6789 52.5344 50.6749C52.578 50.6708 52.6197 50.6545 52.6547 50.6276L56.1319 48.5868C56.2232 48.5249 56.2963 48.4387 56.3432 48.3375C56.39 48.2363 56.409 48.124 56.3979 48.0126Z" fill="#EBEBEB"/>
<path d="M61.7644 44.852L61.287 41.4391C61.287 41.3944 61.2748 41.3505 61.2518 41.3125C61.2288 41.2744 61.1958 41.2437 61.1567 41.2237C61.1175 41.2037 61.0736 41.1952 61.03 41.1992C60.9864 41.2032 60.9447 41.2196 60.9097 41.2464L57.4401 43.293C57.3464 43.3539 57.2712 43.4403 57.2229 43.5424C57.1746 43.6445 57.1551 43.7583 57.1665 43.8711L57.642 47.2898C57.642 47.3346 57.6541 47.3784 57.6772 47.4165C57.7002 47.4545 57.7331 47.4853 57.7723 47.5053C57.8115 47.5253 57.8553 47.5337 57.899 47.5297C57.9426 47.5257 57.9843 47.5094 58.0193 47.4825L61.4889 45.4359C61.5837 45.3746 61.6597 45.2874 61.7084 45.1842C61.7571 45.081 61.7765 44.9659 61.7644 44.852Z" fill="#EBEBEB"/>
<path d="M67.1295 41.7014L66.6522 38.2885C66.6522 38.2438 66.64 38.1999 66.6169 38.1619C66.5939 38.1238 66.561 38.093 66.5218 38.073C66.4826 38.053 66.4388 38.0446 66.3951 38.0486C66.3515 38.0526 66.3099 38.0689 66.2748 38.0958L62.8052 40.1424C62.7117 40.2035 62.6366 40.2898 62.5883 40.3919C62.5401 40.494 62.5204 40.6077 62.5316 40.7205L63.0071 44.1334C63.0078 44.1778 63.0204 44.2212 63.0435 44.2589C63.0667 44.2965 63.0995 44.3269 63.1385 44.3468C63.1774 44.3667 63.2209 44.3752 63.2643 44.3716C63.3076 44.368 63.3492 44.3522 63.3844 44.3261L66.854 42.2795C66.9479 42.2187 67.0233 42.1324 67.072 42.0303C67.1206 41.9282 67.1405 41.8144 67.1295 41.7014Z" fill="#EBEBEB"/>
<path d="M34.0025 53.9755L33.5252 50.5664C33.5245 50.522 33.5119 50.4786 33.4887 50.4409C33.4656 50.4033 33.4327 50.3729 33.3938 50.353C33.3549 50.3331 33.3114 50.3246 33.268 50.3282C33.2246 50.3319 33.1831 50.3476 33.1479 50.3737L29.6783 52.4203C29.5848 52.4814 29.5097 52.5678 29.4614 52.6698C29.4131 52.7719 29.3935 52.8856 29.4047 52.9984L29.8801 56.4113C29.8808 56.4558 29.8934 56.4992 29.9166 56.5368C29.9398 56.5744 29.9726 56.6048 30.0115 56.6247C30.0504 56.6446 30.0939 56.6532 30.1373 56.6495C30.1807 56.6459 30.2222 56.6301 30.2575 56.604L33.7271 54.5574C33.8209 54.4957 33.8963 54.4086 33.9449 54.306C33.9935 54.2033 34.0134 54.089 34.0025 53.9755Z" fill="#906DDB"/>
<path d="M39.369 50.8148L38.8917 47.4019C38.891 47.3574 38.8784 47.314 38.8552 47.2764C38.832 47.2388 38.7992 47.2084 38.7603 47.1885C38.7214 47.1686 38.6778 47.16 38.6345 47.1637C38.5911 47.1673 38.5495 47.183 38.5143 47.2091L35.0447 49.2557C34.9512 49.3168 34.8761 49.4032 34.8279 49.5053C34.7796 49.6073 34.7599 49.7211 34.7711 49.8339L35.2466 53.2468C35.2473 53.2912 35.2599 53.3346 35.283 53.3722C35.3062 53.4099 35.339 53.4403 35.378 53.4602C35.4169 53.48 35.4604 53.4886 35.5038 53.485C35.5471 53.4813 35.5887 53.4656 35.6239 53.4395L39.0935 51.3929C39.1868 51.3314 39.2617 51.245 39.3103 51.1431C39.3588 51.0412 39.3792 50.9276 39.369 50.8148Z" fill="#EBEBEB"/>
<path d="M44.7347 47.6541L44.2574 44.2412C44.2567 44.1968 44.2441 44.1534 44.2209 44.1157C44.1978 44.0781 44.1649 44.0477 44.126 44.0278C44.0871 44.008 44.0436 43.9994 44.0002 44.003C43.9568 44.0067 43.9153 44.0224 43.88 44.0485L40.4104 46.0951C40.3169 46.1562 40.2419 46.2426 40.1936 46.3446C40.1453 46.4467 40.1256 46.5604 40.1369 46.6732L40.6123 50.0861C40.613 50.1306 40.6256 50.174 40.6488 50.2116C40.6719 50.2492 40.7048 50.2796 40.7437 50.2995C40.7826 50.3194 40.8261 50.328 40.8695 50.3243C40.9129 50.3207 40.9544 50.3049 40.9896 50.2788L44.4593 48.2323C44.5525 48.1708 44.6275 48.0844 44.676 47.9825C44.7246 47.8805 44.7449 47.767 44.7347 47.6541Z" fill="#EBEBEB"/>
<path d="M50.0936 44.4942L49.6163 41.0813C49.6156 41.0369 49.603 40.9935 49.5798 40.9558C49.5567 40.9182 49.5238 40.8878 49.4849 40.8679C49.446 40.848 49.4025 40.8395 49.3591 40.8431C49.3157 40.8467 49.2742 40.8625 49.239 40.8886L45.7731 42.939C45.6798 43.0003 45.6048 43.0867 45.5566 43.1887C45.5083 43.2907 45.4886 43.4044 45.4995 43.5172L45.975 46.9301C45.9757 46.9745 45.9883 47.0179 46.0114 47.0555C46.0346 47.0932 46.0675 47.1236 46.1064 47.1435C46.1453 47.1633 46.1888 47.1719 46.2322 47.1683C46.2756 47.1646 46.3171 47.1489 46.3523 47.1228L49.8219 45.0762C49.9152 45.0141 49.99 44.9269 50.0379 44.8242C50.0858 44.7215 50.1051 44.6074 50.0936 44.4942Z" fill="#EBEBEB"/>
<path d="M55.466 41.3335L54.9887 37.9225C54.9887 37.8778 54.9765 37.8339 54.9534 37.7959C54.9304 37.7578 54.8975 37.7271 54.8583 37.7071C54.8191 37.6871 54.7753 37.6786 54.7316 37.6826C54.688 37.6866 54.6464 37.703 54.6113 37.7298L51.1398 39.7745C51.0465 39.8357 50.9715 39.9221 50.9233 40.0242C50.875 40.1262 50.8552 40.2398 50.8662 40.3526L51.3417 43.7655C51.3424 43.81 51.355 43.8533 51.3781 43.891C51.4013 43.9286 51.4342 43.959 51.4731 43.9789C51.512 43.9988 51.5555 44.0074 51.5989 44.0037C51.6423 44.0001 51.6838 43.9843 51.719 43.9582L55.1886 41.9078C55.2818 41.847 55.3568 41.7614 55.4057 41.6601C55.4546 41.5589 55.4755 41.446 55.466 41.3335Z" fill="#EBEBEB"/>
<path d="M60.8316 38.1726L60.3542 34.7636C60.3542 34.7189 60.342 34.675 60.319 34.637C60.296 34.5989 60.263 34.5681 60.2239 34.5481C60.1847 34.5281 60.1408 34.5197 60.0972 34.5237C60.0536 34.5277 60.0119 34.544 59.9769 34.5709L56.5092 36.6194C56.4155 36.6803 56.3403 36.7667 56.292 36.8688C56.2437 36.9709 56.2242 37.0847 56.2356 37.1975L56.711 40.6085C56.7117 40.6529 56.7243 40.6963 56.7475 40.734C56.7707 40.7716 56.8035 40.802 56.8424 40.8219C56.8814 40.8418 56.9249 40.8503 56.9682 40.8467C57.0116 40.8431 57.0532 40.8273 57.0884 40.8012L60.558 38.7546C60.6516 38.6928 60.7267 38.6057 60.775 38.503C60.8233 38.4003 60.8429 38.286 60.8316 38.1726Z" fill="#EBEBEB"/>
<path d="M66.1967 35.0144L65.7194 31.6015C65.7194 31.5567 65.7072 31.5129 65.6842 31.4748C65.6612 31.4368 65.6282 31.406 65.589 31.386C65.5499 31.366 65.506 31.3576 65.4624 31.3616C65.4188 31.3656 65.3771 31.3819 65.3421 31.4088L61.8706 33.4554C61.7774 33.5167 61.7027 33.6032 61.6548 33.7052C61.6068 33.8073 61.5875 33.9209 61.5989 34.0335L62.0743 37.4445C62.075 37.4889 62.0876 37.5323 62.1108 37.5699C62.134 37.6076 62.1668 37.638 62.2057 37.6578C62.2446 37.6777 62.2882 37.6863 62.3315 37.6827C62.3749 37.679 62.4165 37.6633 62.4517 37.6372L65.9213 35.5925C66.0144 35.5309 66.0892 35.4445 66.1378 35.3426C66.1863 35.2407 66.2067 35.1272 66.1967 35.0144Z" fill="#EBEBEB"/>
<path d="M33.0688 47.2901L32.5934 43.8772C32.5927 43.8328 32.5801 43.7894 32.5569 43.7517C32.5337 43.7141 32.5009 43.6837 32.462 43.6638C32.4231 43.6439 32.3795 43.6354 32.3362 43.639C32.2928 43.6426 32.2512 43.6584 32.216 43.6845L28.7426 45.7484C28.6496 45.81 28.5749 45.8964 28.5267 45.9984C28.4784 46.1003 28.4585 46.2138 28.4691 46.3266L28.9464 49.7375C28.9464 49.7823 28.9586 49.8261 28.9816 49.8642C29.0046 49.9022 29.0376 49.933 29.0768 49.953C29.1159 49.973 29.1598 49.9815 29.2034 49.9774C29.247 49.9734 29.2887 49.9571 29.3237 49.9302L32.7952 47.8682C32.8886 47.807 32.9635 47.7206 33.0118 47.6186C33.0601 47.5165 33.0798 47.4029 33.0688 47.2901Z" fill="#906DDB"/>
<path d="M38.4352 44.137L37.9597 40.7241C37.959 40.6797 37.9464 40.6363 37.9233 40.5987C37.9001 40.561 37.8673 40.5306 37.8283 40.5107C37.7894 40.4909 37.7459 40.4823 37.7025 40.4859C37.6591 40.4896 37.6176 40.5053 37.5824 40.5314L34.1128 42.578C34.0197 42.6396 33.945 42.726 33.8968 42.828C33.8485 42.9299 33.8286 43.0434 33.8392 43.1561L34.3165 46.569C34.3172 46.6135 34.3298 46.6569 34.353 46.6945C34.3761 46.7321 34.409 46.7625 34.4479 46.7824C34.4868 46.8023 34.5303 46.8109 34.5737 46.8072C34.6171 46.8036 34.6586 46.7879 34.6939 46.7617L38.1635 44.7152C38.2566 44.6538 38.3313 44.5673 38.3793 44.4653C38.4272 44.3632 38.4466 44.2496 38.4352 44.137Z" fill="#EBEBEB"/>
<path d="M43.801 40.9764L43.3256 37.5635C43.3249 37.519 43.3123 37.4756 43.2891 37.438C43.2659 37.4004 43.2331 37.37 43.1942 37.3501C43.1553 37.3302 43.1118 37.3216 43.0684 37.3253C43.025 37.3289 42.9835 37.3447 42.9482 37.3708L39.4786 39.4174C39.3857 39.4791 39.3112 39.5656 39.2629 39.6675C39.2147 39.7694 39.1947 39.8828 39.2051 39.9955L39.6824 43.4084C39.6831 43.4528 39.6957 43.4962 39.7188 43.5339C39.742 43.5715 39.7748 43.6019 39.8138 43.6218C39.8527 43.6417 39.8962 43.6502 39.9396 43.6466C39.9829 43.6429 40.0245 43.6272 40.0597 43.6011L43.5293 41.5545C43.6225 41.4932 43.6972 41.4067 43.7451 41.3046C43.7931 41.2026 43.8124 41.089 43.801 40.9764Z" fill="#EBEBEB"/>
<path d="M49.1665 37.8162L48.6911 34.4033C48.6904 34.3589 48.6778 34.3155 48.6546 34.2779C48.6314 34.2402 48.5986 34.2098 48.5597 34.1899C48.5208 34.1701 48.4772 34.1615 48.4339 34.1651C48.3905 34.1688 48.3489 34.1845 48.3137 34.2106L44.8441 36.2572C44.7512 36.3189 44.6766 36.4054 44.6284 36.5073C44.5802 36.6092 44.5602 36.7226 44.5705 36.8353L45.0479 40.2482C45.0485 40.2927 45.0612 40.3361 45.0843 40.3737C45.1075 40.4113 45.1403 40.4417 45.1792 40.4616C45.2182 40.4815 45.2617 40.4901 45.3051 40.4864C45.3484 40.4828 45.39 40.4671 45.4252 40.4409L48.8948 38.3944C48.988 38.333 49.0626 38.2465 49.1106 38.1445C49.1586 38.0424 49.1779 37.9288 49.1665 37.8162Z" fill="#EBEBEB"/>
<path d="M54.5312 34.6561L54.0558 31.2432C54.0551 31.1987 54.0425 31.1553 54.0193 31.1177C53.9962 31.0801 53.9633 31.0497 53.9244 31.0298C53.8855 31.0099 53.842 31.0013 53.7986 31.005C53.7552 31.0086 53.7137 31.0243 53.6785 31.0505L50.2088 33.097C50.116 33.1588 50.0414 33.2453 49.9932 33.3472C49.9449 33.4491 49.9249 33.5625 49.9353 33.6752L50.4126 37.0881C50.4133 37.1325 50.4259 37.1759 50.4491 37.2135C50.4722 37.2512 50.5051 37.2816 50.544 37.3015C50.5829 37.3213 50.6264 37.3299 50.6698 37.3263C50.7132 37.3226 50.7547 37.3069 50.7899 37.2808L54.2596 35.2342C54.3527 35.1729 54.4274 35.0864 54.4753 34.9843C54.5233 34.8823 54.5426 34.7687 54.5312 34.6561Z" fill="#EBEBEB"/>
<path d="M59.9052 31.4876L59.4297 28.0747C59.429 28.0303 59.4164 27.9869 59.3933 27.9492C59.3701 27.9116 59.3373 27.8812 59.2983 27.8613C59.2594 27.8414 59.2159 27.8329 59.1725 27.8365C59.1292 27.8402 59.0876 27.8559 59.0524 27.882L55.5658 29.9459C55.4729 30.0076 55.3983 30.0941 55.3501 30.196C55.3019 30.2979 55.2819 30.4114 55.2922 30.5241L55.7695 33.937C55.7702 33.9814 55.7828 34.0248 55.806 34.0624C55.8292 34.1001 55.862 34.1305 55.9009 34.1503C55.9398 34.1702 55.9834 34.1788 56.0267 34.1752C56.0701 34.1715 56.1117 34.1558 56.1469 34.1297L59.624 32.0657C59.7191 32.0058 59.7958 31.9199 59.8455 31.8177C59.8951 31.7155 59.9158 31.6012 59.9052 31.4876Z" fill="#EBEBEB"/>
<path d="M65.2638 28.3348L64.7883 24.9238C64.7876 24.8794 64.775 24.836 64.7519 24.7984C64.7287 24.7607 64.6959 24.7303 64.6569 24.7105C64.618 24.6906 64.5745 24.682 64.5311 24.6856C64.4878 24.6893 64.4462 24.705 64.411 24.7311L60.9414 26.7758C60.8483 26.8373 60.7736 26.9238 60.7254 27.0258C60.6772 27.1277 60.6572 27.2412 60.6678 27.3539L61.1451 30.7668C61.1458 30.8113 61.1584 30.8547 61.1816 30.8923C61.2048 30.9299 61.2376 30.9603 61.2765 30.9802C61.3154 31.0001 61.3589 31.0087 61.4023 31.005C61.4457 31.0014 61.4872 30.9856 61.5225 30.9595L64.9996 28.9091C65.0909 28.8472 65.1638 28.761 65.2104 28.6597C65.257 28.5585 65.2754 28.4461 65.2638 28.3348Z" fill="#EBEBEB"/>
<path d="M32.137 40.6182L31.6596 37.2072C31.6596 37.1625 31.6474 37.1186 31.6244 37.0806C31.6014 37.0425 31.5684 37.0117 31.5293 36.9917C31.4901 36.9717 31.4462 36.9633 31.4026 36.9673C31.359 36.9713 31.3173 36.9876 31.2823 37.0145L27.8127 39.0591C27.7193 39.1204 27.6444 39.2068 27.5961 39.3088C27.5478 39.4108 27.5281 39.5245 27.5391 39.6373L28.0202 43.0502C28.0202 43.0949 28.0324 43.1388 28.0554 43.1768C28.0785 43.2149 28.1114 43.2456 28.1506 43.2656C28.1897 43.2856 28.2336 43.2941 28.2772 43.2901C28.3208 43.2861 28.3625 43.2697 28.3975 43.2429L31.8672 41.1963C31.9601 41.1349 32.0345 41.0483 32.0822 40.9462C32.1298 40.8442 32.1488 40.7306 32.137 40.6182Z" fill="#906DDB"/>
<path d="M37.5031 37.4617L37.0258 34.0507C37.0258 34.006 37.0136 33.9621 36.9906 33.9241C36.9676 33.886 36.9346 33.8553 36.8954 33.8352C36.8563 33.8152 36.8124 33.8068 36.7688 33.8108C36.7252 33.8148 36.6835 33.8312 36.6485 33.858L33.1788 35.9046C33.0852 35.9655 33.01 36.0519 32.9617 36.154C32.9134 36.2561 32.8938 36.3699 32.9053 36.4827L33.3826 39.8937C33.3826 39.9384 33.3948 39.9823 33.4178 40.0203C33.4409 40.0584 33.4738 40.0891 33.513 40.1091C33.5522 40.1291 33.596 40.1376 33.6396 40.1336C33.6832 40.1296 33.7249 40.1132 33.7599 40.0864L37.2296 38.0398C37.3232 37.9789 37.3984 37.8925 37.4467 37.7904C37.495 37.6883 37.5146 37.5745 37.5031 37.4617Z" fill="#EBEBEB"/>
<path d="M42.8686 34.2991L42.3913 30.8862C42.3913 30.8414 42.3791 30.7976 42.3561 30.7595C42.333 30.7215 42.3001 30.6907 42.2609 30.6707C42.2217 30.6507 42.1779 30.6422 42.1343 30.6462C42.0906 30.6503 42.049 30.6666 42.0139 30.6934L38.5443 32.74C38.4507 32.801 38.3755 32.8873 38.3272 32.9894C38.2789 33.0915 38.2593 33.2054 38.2708 33.3182L38.7481 36.7291C38.7481 36.7739 38.7603 36.8177 38.7833 36.8558C38.8063 36.8938 38.8393 36.9246 38.8785 36.9446C38.9176 36.9646 38.9615 36.9731 39.0051 36.969C39.0487 36.965 39.0904 36.9487 39.1254 36.9218L42.595 34.8772C42.6884 34.8159 42.7633 34.7295 42.8116 34.6275C42.8599 34.5255 42.8796 34.4118 42.8686 34.2991Z" fill="#EBEBEB"/>
<path d="M48.2343 31.1387L47.757 27.7258C47.757 27.681 47.7448 27.6372 47.7218 27.5991C47.6988 27.5611 47.6658 27.5303 47.6266 27.5103C47.5875 27.4903 47.5436 27.4818 47.5 27.4858C47.4564 27.4899 47.4147 27.5062 47.3797 27.533L43.91 29.5796C43.8164 29.6406 43.7412 29.7269 43.6929 29.829C43.6446 29.9311 43.625 30.045 43.6365 30.1578L44.1119 33.5707C44.1126 33.6151 44.1252 33.6585 44.1484 33.6961C44.1715 33.7338 44.2044 33.7642 44.2433 33.784C44.2822 33.8039 44.3257 33.8125 44.3691 33.8089C44.4125 33.8052 44.454 33.7895 44.4893 33.7634L47.9589 31.7168C48.0526 31.6558 48.1279 31.5695 48.1765 31.4674C48.2251 31.3654 48.2451 31.2516 48.2343 31.1387Z" fill="#EBEBEB"/>
<path d="M53.6003 27.978L53.123 24.5651C53.123 24.5204 53.1108 24.4765 53.0877 24.4385C53.0647 24.4004 53.0318 24.3697 52.9926 24.3496C52.9534 24.3296 52.9096 24.3212 52.866 24.3252C52.8223 24.3292 52.7807 24.3456 52.7456 24.3724L49.276 26.419C49.1824 26.4799 49.1072 26.5663 49.0589 26.6684C49.0105 26.7705 48.991 26.8843 49.0024 26.9971L49.4779 30.41C49.4786 30.4545 49.4912 30.4979 49.5144 30.5355C49.5375 30.5731 49.5704 30.6035 49.6093 30.6234C49.6482 30.6433 49.6917 30.6519 49.7351 30.6482C49.7785 30.6446 49.82 30.6288 49.8552 30.6027L53.3248 28.5561C53.4187 28.4953 53.4941 28.409 53.5428 28.3069C53.5914 28.2049 53.6113 28.091 53.6003 27.978Z" fill="#EBEBEB"/>
<path d="M58.9615 24.8174L58.4842 21.4045C58.4842 21.3597 58.472 21.3159 58.449 21.2778C58.4259 21.2398 58.393 21.209 58.3538 21.189C58.3146 21.169 58.2708 21.1605 58.2272 21.1645C58.1836 21.1686 58.1419 21.1849 58.1069 21.2118L54.6372 23.2583C54.5437 23.3194 54.4687 23.4058 54.4204 23.5079C54.3721 23.6099 54.3525 23.7237 54.3637 23.8365L54.841 27.2474C54.8417 27.2919 54.8543 27.3353 54.8775 27.3729C54.9006 27.4105 54.9335 27.4409 54.9724 27.4608C55.0113 27.4807 55.0548 27.4893 55.0982 27.4856C55.1416 27.482 55.1831 27.4663 55.2183 27.4402L58.6879 25.3936C58.7811 25.3326 58.856 25.2466 58.9043 25.1449C58.9526 25.0432 58.9724 24.9298 58.9615 24.8174Z" fill="#EBEBEB"/>
<path d="M64.3314 21.6594L63.8541 18.2465C63.8541 18.2018 63.8419 18.1579 63.8188 18.1199C63.7958 18.0818 63.7629 18.0511 63.7237 18.031C63.6845 18.011 63.6407 18.0026 63.597 18.0066C63.5534 18.0106 63.5118 18.027 63.4767 18.0538L60.0071 20.1004C59.9136 20.1615 59.8386 20.2478 59.7903 20.3499C59.742 20.452 59.7223 20.5657 59.7335 20.6785L60.209 24.0914C60.2097 24.1359 60.2223 24.1793 60.2454 24.2169C60.2686 24.2545 60.3014 24.2849 60.3404 24.3048C60.3793 24.3247 60.4228 24.3333 60.4662 24.3296C60.5095 24.326 60.5511 24.3102 60.5863 24.2841L64.0559 22.2375C64.1498 22.1767 64.2252 22.0904 64.2739 21.9883C64.3225 21.8862 64.3424 21.7724 64.3314 21.6594Z" fill="#EBEBEB"/>
<path d="M31.3124 34.5863L31.1916 33.7153C31.1916 33.6705 31.1794 33.6267 31.1564 33.5886C31.1334 33.5506 31.1004 33.5198 31.0613 33.4998C31.0221 33.4798 30.9782 33.4713 30.9346 33.4753C30.891 33.4794 30.8493 33.4957 30.8143 33.5225L27.3428 35.573C27.2493 35.6341 27.1742 35.7205 27.1259 35.8225C27.0777 35.9246 27.058 36.0383 27.0692 36.1511L27.1881 37.0222C27.1888 37.0666 27.2014 37.11 27.2245 37.1476C27.2477 37.1853 27.2806 37.2157 27.3195 37.2355C27.3584 37.2554 27.4019 37.264 27.4453 37.2604C27.4887 37.2567 27.5302 37.241 27.5654 37.2149L31.0388 35.1606C31.1312 35.0993 31.2056 35.0135 31.2538 34.9123C31.302 34.8111 31.3222 34.6984 31.3124 34.5863Z" fill="#E6E6E6"/>
<path d="M36.6779 31.4257L36.5571 30.5546C36.5571 30.5099 36.5449 30.466 36.5219 30.428C36.4989 30.3899 36.4659 30.3592 36.4268 30.3392C36.3876 30.3191 36.3437 30.3107 36.3001 30.3147C36.2565 30.3187 36.2148 30.3351 36.1798 30.3619L32.7083 32.4123C32.6148 32.4734 32.5397 32.5598 32.4914 32.6619C32.4431 32.7639 32.4235 32.8777 32.4347 32.9905L32.5536 33.8615C32.5543 33.906 32.5669 33.9494 32.59 33.987C32.6132 34.0246 32.646 34.055 32.685 34.0749C32.7239 34.0948 32.7674 34.1034 32.8108 34.0997C32.8541 34.0961 32.8957 34.0803 32.9309 34.0542L36.4024 32.0076C36.4964 31.946 36.5719 31.859 36.6205 31.7563C36.6691 31.6536 36.689 31.5392 36.6779 31.4257Z" fill="#E6E6E6"/>
<path d="M42.0443 28.2653L41.9236 27.3943C41.9229 27.3498 41.9103 27.3064 41.8871 27.2688C41.864 27.2312 41.8311 27.2008 41.7922 27.1809C41.7533 27.161 41.7098 27.1524 41.6664 27.1561C41.623 27.1597 41.5815 27.1755 41.5462 27.2016L38.0747 29.252C37.9812 29.3131 37.9062 29.3995 37.8579 29.5016C37.8096 29.6036 37.79 29.7174 37.8012 29.8302L37.92 30.7012C37.92 30.7459 37.9322 30.7898 37.9553 30.8278C37.9783 30.8659 38.0112 30.8967 38.0504 30.9167C38.0896 30.9367 38.1334 30.9451 38.177 30.9411C38.2207 30.9371 38.2623 30.9208 38.2974 30.8939L41.7689 28.8473C41.8629 28.7857 41.9383 28.6987 41.9869 28.596C42.0356 28.4933 42.0554 28.3789 42.0443 28.2653Z" fill="#E6E6E6"/>
<path d="M47.4096 25.1069L47.2888 24.2339C47.2881 24.1895 47.2755 24.146 47.2524 24.1084C47.2292 24.0708 47.1964 24.0404 47.1574 24.0205C47.1185 24.0006 47.075 23.992 47.0316 23.9957C46.9883 23.9993 46.9467 24.0151 46.9115 24.0412L43.44 26.0916C43.3465 26.1527 43.2714 26.2391 43.2231 26.3412C43.1748 26.4432 43.1552 26.557 43.1664 26.6698L43.2853 27.5408C43.2853 27.5855 43.2975 27.6294 43.3205 27.6674C43.3435 27.7055 43.3765 27.7363 43.4156 27.7563C43.4548 27.7763 43.4987 27.7847 43.5423 27.7807C43.5859 27.7767 43.6276 27.7604 43.6626 27.7335L47.1341 25.6889C47.2278 25.6269 47.303 25.5399 47.3516 25.4373C47.4002 25.3346 47.4202 25.2203 47.4096 25.1069Z" fill="#E6E6E6"/>
<path d="M52.7757 21.9467L52.6549 21.0737C52.6542 21.0293 52.6416 20.9859 52.6185 20.9483C52.5953 20.9106 52.5625 20.8802 52.5235 20.8604C52.4846 20.8405 52.4411 20.8319 52.3977 20.8355C52.3544 20.8392 52.3128 20.8549 52.2776 20.881L48.8061 22.9315C48.7127 22.9927 48.6378 23.0791 48.5895 23.1811C48.5412 23.2832 48.5215 23.3968 48.5325 23.5096L48.6514 24.3806C48.6514 24.4254 48.6636 24.4692 48.6866 24.5073C48.7096 24.5453 48.7426 24.5761 48.7817 24.5961C48.8209 24.6161 48.8648 24.6246 48.9084 24.6206C48.952 24.6165 48.9937 24.6002 49.0287 24.5734L52.5002 22.5287C52.5939 22.4668 52.6691 22.3797 52.7177 22.2771C52.7663 22.1745 52.7863 22.0602 52.7757 21.9467Z" fill="#E6E6E6"/>
<path d="M58.1411 18.7863L58.0204 17.9152C58.0204 17.8705 58.0082 17.8266 57.9852 17.7886C57.9621 17.7505 57.9292 17.7198 57.89 17.6997C57.8509 17.6797 57.807 17.6713 57.7634 17.6753C57.7198 17.6793 57.6781 17.6957 57.6431 17.7225L54.1715 19.771C54.0782 19.8323 54.0033 19.9187 53.955 20.0207C53.9067 20.1227 53.887 20.2364 53.898 20.3491L54.0168 21.2221C54.0175 21.2666 54.0301 21.31 54.0533 21.3476C54.0765 21.3852 54.1093 21.4156 54.1482 21.4355C54.1871 21.4554 54.2307 21.464 54.274 21.4603C54.3174 21.4567 54.359 21.4409 54.3942 21.4148L57.8657 19.3682C57.9595 19.3065 58.0349 19.2194 58.0835 19.1168C58.1321 19.0141 58.152 18.8997 58.1411 18.7863Z" fill="#E6E6E6"/>
<path d="M63.505 15.6256L63.3862 14.7546C63.3862 14.7098 63.374 14.666 63.3509 14.6279C63.3279 14.5899 63.295 14.5591 63.2558 14.5391C63.2166 14.5191 63.1728 14.5106 63.1291 14.5146C63.0855 14.5187 63.0439 14.535 63.0088 14.5618L59.5392 16.6084C59.4456 16.6694 59.3704 16.7557 59.3221 16.8578C59.2737 16.9599 59.2542 17.0738 59.2656 17.1866L59.3845 18.0576C59.3852 18.1021 59.3978 18.1455 59.4209 18.1831C59.4441 18.2207 59.477 18.2511 59.5159 18.271C59.5548 18.2909 59.5983 18.2995 59.6417 18.2958C59.6851 18.2922 59.7266 18.2764 59.7618 18.2503L63.2333 16.2037C63.3263 16.1422 63.4009 16.0557 63.4488 15.9537C63.4968 15.8517 63.5162 15.7382 63.505 15.6256Z" fill="#E6E6E6"/>
<path opacity="0.2" d="M27.2661 29.441C27.2491 29.1864 27.3005 28.9318 27.4149 28.7049C27.5293 28.478 27.7023 28.2874 27.9152 28.1537C28.3378 27.9051 28.7321 28.0766 28.7981 28.5391C28.8156 28.794 28.7642 29.049 28.6494 29.276C28.5346 29.5031 28.3609 29.6935 28.1472 29.8264C27.7265 30.075 27.3322 29.9035 27.2661 29.441Z" fill="black"/>
<path opacity="0.2" d="M32.6371 26.2843C32.6196 26.0296 32.6709 25.7749 32.7854 25.5479C32.8998 25.3209 33.073 25.1304 33.2862 24.997C33.7088 24.7465 34.1031 24.918 34.1691 25.3824C34.1865 25.637 34.135 25.8916 34.0202 26.1183C33.9053 26.3451 33.7317 26.5351 33.5182 26.6678C33.0956 26.9087 32.7013 26.7372 32.6371 26.2843Z" fill="black"/>
<path opacity="0.2" d="M37.997 23.1144C37.9795 22.8597 38.0308 22.605 38.1452 22.378C38.2597 22.151 38.4329 21.9605 38.646 21.8271C39.0686 21.5766 39.4648 21.7481 39.529 22.2125C39.5463 22.4669 39.495 22.7213 39.3805 22.9479C39.2661 23.1746 39.093 23.3648 38.88 23.4979C38.4573 23.7465 38.0611 23.575 37.997 23.1144Z" fill="black"/>
<path opacity="0.2" d="M48.7248 16.7877C48.7073 16.533 48.7586 16.2783 48.873 16.0513C48.9874 15.8243 49.1607 15.6338 49.3738 15.5004C49.7964 15.2518 50.1907 15.4233 50.2549 15.8858C50.2732 16.1406 50.2223 16.3957 50.1078 16.6228C49.9933 16.8499 49.8196 17.0404 49.6059 17.1731C49.1833 17.4198 48.7889 17.2502 48.7248 16.7877Z" fill="black"/>
<path opacity="0.2" d="M54.0946 13.6232C54.0767 13.3684 54.1277 13.1136 54.2422 12.8865C54.3567 12.6594 54.5302 12.4689 54.7436 12.3359C55.1662 12.0853 55.5605 12.2569 55.6266 12.7213C55.6441 12.9762 55.5926 13.2311 55.4778 13.4582C55.363 13.6852 55.1893 13.8756 54.9756 14.0086C54.553 14.2553 54.1587 14.0837 54.0946 13.6232Z" fill="black"/>
<path opacity="0.2" d="M59.4545 10.4608C59.437 10.2061 59.4883 9.95142 59.6027 9.72444C59.7172 9.49745 59.8904 9.30689 60.1035 9.17351C60.5262 8.92299 60.9224 9.0945 60.9865 9.55893C61.0039 9.81334 60.9525 10.0677 60.8381 10.2944C60.7236 10.521 60.5505 10.7112 60.3375 10.8443C59.9054 11.0929 59.5281 10.9214 59.4545 10.4608Z" fill="black"/>
<path d="M26.7109 24.234C26.1449 23.8968 25.5902 23.8486 25.1676 24.0972C24.7449 24.3458 24.511 24.8545 24.511 25.5309C24.5147 25.8473 24.5604 26.1618 24.6468 26.4656L24.9827 26.2729C24.9224 26.0316 24.8907 25.7838 24.8883 25.5348C24.8883 25.0029 25.0544 24.6117 25.3562 24.4344C25.4801 24.3638 25.62 24.3279 25.7619 24.3304C26.0295 24.3434 26.2893 24.4263 26.5165 24.5712C27.5203 25.1648 28.3372 26.6101 28.3372 27.7934C28.3377 27.8777 28.3333 27.962 28.324 28.0458C28.3194 28.2136 28.2759 28.3779 28.1972 28.5253C28.1185 28.6727 28.0068 28.7989 27.8712 28.8937C27.6982 28.9892 27.4987 29.0218 27.3052 28.9862C27.2671 29.1108 27.2511 29.2413 27.258 29.3717C27.3285 29.3831 27.3998 29.3889 27.4712 29.389C27.679 29.3917 27.8836 29.3371 28.0636 29.231C28.2321 29.1231 28.3748 28.9782 28.4816 28.8069C28.5883 28.6355 28.6563 28.442 28.6806 28.2405C28.706 28.0941 28.7186 27.9458 28.7183 27.7972C28.7202 26.4772 27.8183 24.8873 26.7109 24.234Z" fill="#F5F5F5"/>
<path d="M32.081 21.0695C31.515 20.7322 30.9603 20.684 30.5377 20.9326C30.1151 21.1812 29.8811 21.69 29.8811 22.3664C29.8848 22.6828 29.9305 22.9972 30.0169 23.301L30.3528 23.1083C30.2925 22.8671 30.2608 22.6192 30.2584 22.3702C30.2584 21.8384 30.4245 21.4472 30.7263 21.2699C30.8502 21.1992 30.9901 21.1633 31.132 21.1658C31.3996 21.1788 31.6594 21.2618 31.8867 21.4067C32.8904 22.0002 33.7073 23.4456 33.7073 24.6288C33.7079 24.7132 33.7035 24.7975 33.6941 24.8813C33.6895 25.0491 33.646 25.2134 33.5673 25.3607C33.4886 25.5081 33.3769 25.6344 33.2413 25.7292C33.0683 25.8246 32.8688 25.8572 32.6753 25.8217C32.6372 25.9463 32.6212 26.0768 32.6281 26.2071C32.6986 26.2186 32.7699 26.2244 32.8413 26.2245C33.0491 26.2271 33.2537 26.1725 33.4337 26.0664C33.6022 25.9585 33.745 25.8136 33.8517 25.6423C33.9584 25.471 34.0264 25.2775 34.0507 25.0759C34.0761 24.9296 34.0887 24.7813 34.0884 24.6327C34.0903 23.3184 33.1885 21.7227 32.081 21.0695Z" fill="#F5F5F5"/>
<path d="M37.4401 17.9073C36.8741 17.5701 36.3194 17.5219 35.8968 17.7705C35.4742 18.0191 35.2402 18.5279 35.2402 19.2043C35.2439 19.5207 35.2896 19.8351 35.3761 20.1389L35.7119 19.9462C35.6516 19.7049 35.6199 19.4571 35.6176 19.2081C35.6176 18.6763 35.7836 18.2851 36.0855 18.1078C36.2093 18.0371 36.3493 18.0012 36.4911 18.0037C36.7587 18.0167 37.0185 18.0997 37.2458 18.2446C38.2495 18.8381 39.0664 20.2835 39.0664 21.4667C39.067 21.551 39.0626 21.6354 39.0532 21.7192C39.0486 21.887 39.0052 22.0513 38.9265 22.1986C38.8478 22.346 38.736 22.4723 38.6004 22.5671C38.4275 22.6625 38.2279 22.6951 38.0344 22.6596C37.9963 22.7842 37.9804 22.9147 37.9873 23.045C38.0578 23.0564 38.129 23.0622 38.2004 23.0623C38.4082 23.065 38.6129 23.0104 38.7929 22.9043C38.9613 22.7964 39.1041 22.6515 39.2108 22.4802C39.3175 22.3088 39.3855 22.1154 39.4098 21.9138C39.4352 21.7675 39.4479 21.6192 39.4475 21.4706C39.4494 20.1563 38.5476 18.5606 37.4401 17.9073Z" fill="#F5F5F5"/>
<path d="M48.1701 11.5905C47.6041 11.2532 47.0494 11.205 46.6268 11.4536C46.2042 11.7022 45.9702 12.211 45.9702 12.8874C45.9739 13.2038 46.0196 13.5182 46.1061 13.822L46.4419 13.6293C46.3816 13.388 46.3499 13.1402 46.3476 12.8912C46.3476 12.3594 46.5136 11.9682 46.8154 11.7909C46.9393 11.7202 47.0793 11.6843 47.2211 11.6868C47.4887 11.6998 47.7485 11.7828 47.9758 11.9277C48.9795 12.5212 49.7964 13.9666 49.7964 15.1498C49.797 15.2342 49.7926 15.3185 49.7832 15.4023C49.7786 15.5701 49.7352 15.7344 49.6565 15.8817C49.5778 16.0291 49.466 16.1554 49.3304 16.2502C49.1574 16.3456 48.9579 16.3782 48.7644 16.3427C48.7263 16.4673 48.7103 16.5978 48.7172 16.7281C48.7877 16.7395 48.859 16.7453 48.9304 16.7455C49.1382 16.7481 49.3429 16.6935 49.5228 16.5874C49.6913 16.4795 49.8341 16.3346 49.9408 16.1633C50.0475 15.9919 50.1155 15.7985 50.1398 15.5969C50.1652 15.4506 50.1778 15.3023 50.1775 15.1537C50.1794 13.8394 49.2776 12.2437 48.1701 11.5905Z" fill="#F5F5F5"/>
<path d="M53.5392 8.42419C52.9732 8.08695 52.4185 8.03877 51.9959 8.28737C51.5733 8.53596 51.3394 9.04472 51.3394 9.72113C51.343 10.0375 51.3887 10.3519 51.4752 10.6558L51.811 10.4631C51.7507 10.2218 51.7191 9.97398 51.7167 9.72499C51.7167 9.1931 51.8827 8.8019 52.1846 8.62461C52.3084 8.55397 52.4484 8.51806 52.5902 8.52055C52.8578 8.53358 53.1177 8.61652 53.3449 8.76143C54.3486 9.35498 55.1656 10.8003 55.1656 11.9836C55.1661 12.0679 55.1617 12.1522 55.1523 12.236C55.1477 12.4038 55.1043 12.5681 55.0256 12.7155C54.9469 12.8629 54.8352 12.9891 54.6995 13.0839C54.5266 13.1793 54.327 13.212 54.1335 13.1764C54.0954 13.301 54.0795 13.4315 54.0864 13.5618C54.1569 13.5733 54.2282 13.5791 54.2996 13.5792C54.5074 13.5818 54.712 13.5272 54.892 13.4212C55.0604 13.3133 55.2032 13.1684 55.3099 12.997C55.4166 12.8257 55.4846 12.6322 55.5089 12.4306C55.5344 12.2843 55.547 12.136 55.5467 11.9874C55.5486 10.675 54.6467 9.07748 53.5392 8.42419Z" fill="#F5F5F5"/>
<path d="M58.9 5.26159C58.334 4.92435 57.7793 4.87617 57.3567 5.12477C56.9341 5.37336 56.6982 5.88212 56.6982 6.55853C56.7019 6.87492 56.7476 7.18934 56.8341 7.49318L57.1699 7.30047C57.1096 7.05919 57.0779 6.81139 57.0756 6.56239C57.0756 6.03051 57.2416 5.63931 57.5435 5.46201C57.6673 5.39137 57.8073 5.35546 57.9491 5.35795C58.2167 5.37099 58.4765 5.45393 58.7038 5.59884C59.7075 6.19238 60.5244 7.63771 60.5244 8.82095C60.525 8.9053 60.5206 8.9896 60.5112 9.0734C60.5066 9.24121 60.4632 9.40551 60.3845 9.55289C60.3058 9.70026 60.1941 9.82651 60.0584 9.92133C59.8855 10.0167 59.6859 10.0494 59.4924 10.0138C59.4543 10.1384 59.4384 10.2689 59.4453 10.3993C59.5158 10.4107 59.5871 10.4165 59.6585 10.4166C59.8662 10.4192 60.0709 10.3647 60.2509 10.2586C60.4193 10.1507 60.5621 10.0058 60.6688 9.83444C60.7755 9.66309 60.8435 9.4696 60.8678 9.26804C60.8932 9.12173 60.9059 8.9734 60.9056 8.82481C60.9093 7.51052 60.0075 5.91488 58.9 5.26159Z" fill="#F5F5F5"/>
<path d="M64.4742 55.3837L63.2063 57.6326C63.123 57.7732 63.0978 57.9418 63.1362 58.1014C63.1746 58.2609 63.2734 58.3984 63.411 58.4835C63.5487 58.5686 63.7137 58.5943 63.8699 58.5551C64.0261 58.5159 64.1607 58.4149 64.244 58.2744L65.5194 56.0119C65.6421 55.7961 65.51 55.482 65.2232 55.3124C64.9364 55.1428 64.5968 55.1737 64.4742 55.3837Z" fill="#455A64"/>
<path d="M74.5653 51.4237L76.767 52.7187C76.8347 52.7615 76.9101 52.7901 76.9887 52.8029C77.0673 52.8156 77.1476 52.8123 77.2249 52.793C77.3023 52.7738 77.3751 52.739 77.4391 52.6907C77.5032 52.6424 77.5572 52.5816 77.598 52.5118C77.6388 52.442 77.6656 52.3646 77.6768 52.2841C77.688 52.2036 77.6835 52.1216 77.6634 52.043C77.6433 51.9643 77.6081 51.8905 77.5598 51.8259C77.5115 51.7612 77.4511 51.7071 77.3821 51.6665L75.1671 50.3734C74.9558 50.2482 74.6483 50.3831 74.4823 50.676C74.3162 50.9689 74.354 51.2984 74.5653 51.4237Z" fill="#455A64"/>
<path d="M77.0046 41.2849H76.9933L71.6294 38.1225H71.6143C70.437 37.4384 68.8145 37.5444 67.024 38.5966C63.4261 40.7164 60.5093 45.8791 60.5093 50.1226C60.5093 52.2424 61.2357 53.7244 62.4073 54.422H62.4167L67.7806 57.5863H67.7938C68.9711 58.2743 70.5955 58.1644 72.3879 57.1141C75.9839 54.9943 78.9007 49.8316 78.9007 45.5901C78.9007 43.4702 78.1762 41.9825 77.0046 41.2849Z" fill="#906DDB"/>
<path opacity="0.1" d="M67.6931 57.5231L62.4104 54.4127H62.399C61.2274 53.7132 60.5029 52.2255 60.5029 50.1134C60.5029 48.2209 61.084 46.1474 62.0443 44.2434L67.4082 47.4058C66.446 49.3098 65.8668 51.3833 65.8668 53.2757C65.8706 55.3377 66.5649 56.8062 67.6931 57.5231Z" fill="black"/>
<path opacity="0.4" d="M76.9937 52.1418C79.5377 47.641 79.5378 42.7764 76.994 41.2762C74.4502 39.7761 70.3257 42.2085 67.7816 46.7093C65.2376 51.2101 65.2375 56.0748 67.7813 57.5749C70.3251 59.075 74.4497 56.6426 76.9937 52.1418Z" fill="white"/>
<path d="M69.476 56.6689C67.4157 56.6689 67.1931 54.2909 67.1931 53.2676C67.1931 49.5252 69.8741 44.7883 73.0418 42.9113C73.8493 42.4353 74.6267 42.1848 75.2908 42.1848C77.351 42.1848 77.5737 44.5629 77.5737 45.5862C77.5737 49.3286 74.8927 54.0654 71.7249 55.9424C70.9155 56.4184 70.1382 56.6689 69.476 56.6689Z" fill="#FAFAFA"/>
<path d="M70.9422 53.7629C70.9322 53.7648 70.922 53.7648 70.912 53.7629C70.8885 53.7542 70.8692 53.7364 70.8583 53.7134C70.8473 53.6904 70.8456 53.6639 70.8535 53.6396L72.2968 49.4289C72.3051 49.4046 72.3225 49.3847 72.3451 49.3735C72.3677 49.3623 72.3938 49.3607 72.4176 49.3691C72.4414 49.3776 72.4609 49.3953 72.4718 49.4184C72.4828 49.4416 72.4843 49.4682 72.4761 49.4925L71.0365 53.6974C71.0303 53.7175 71.0175 53.7349 71.0004 53.7468C70.9833 53.7587 70.9628 53.7644 70.9422 53.7629Z" fill="#906DDB"/>
<path d="M74.5501 50.6989C74.5118 50.6996 74.4738 50.6917 74.4388 50.6757L72.105 49.6447V45.3203C72.105 45.2437 72.1348 45.1701 72.1879 45.1159C72.2409 45.0617 72.3129 45.0312 72.388 45.0312C72.463 45.0312 72.535 45.0617 72.5881 45.1159C72.6412 45.1701 72.671 45.2437 72.671 45.3203V49.2651L74.6633 50.1458C74.7224 50.1727 74.7706 50.2194 74.8001 50.2782C74.8295 50.337 74.8383 50.4043 74.8251 50.469C74.8119 50.5336 74.7774 50.5917 74.7274 50.6335C74.6773 50.6753 74.6148 50.6984 74.5501 50.6989Z" fill="#37474F"/>
<path d="M72.3878 48.5233C72.8104 48.2728 73.1538 48.4751 73.1538 48.9742C73.138 49.2445 73.0606 49.5074 72.9276 49.7416C72.7945 49.9759 72.6097 50.175 72.3878 50.3232C71.9633 50.5737 71.6199 50.3714 71.6199 49.8703C71.6361 49.6002 71.714 49.3376 71.8473 49.1037C71.9807 48.8698 72.1657 48.671 72.3878 48.5233Z" fill="#906DDB"/>
<path d="M66.1537 45.4206C65.2292 47.0528 63.4878 47.7928 62.1784 47.0201C61.4103 46.5665 60.8501 45.8198 60.621 44.9443C60.3919 44.0688 60.5127 43.1362 60.9568 42.3517C61.4009 41.5671 62.1319 40.9949 62.989 40.7609C63.8462 40.5269 64.7592 40.6503 65.5273 41.1039C66.8329 41.894 67.0744 43.7864 66.1537 45.4206Z" fill="#455A64"/>
<path d="M62.1792 47.0202C63.4885 47.791 65.2299 47.053 66.1544 45.4207C66.3609 45.0548 66.5141 44.6601 66.6091 44.249C66.5563 44.3203 65.0167 46.3245 63.1036 45.7599C61.1566 45.1817 60.7906 43.6536 60.9585 42.3508C60.7384 42.7393 60.5954 43.1682 60.5376 43.6131C60.4798 44.058 60.5084 44.5102 60.6218 44.9438C60.7351 45.3774 60.931 45.784 61.1982 46.1403C61.4655 46.4965 61.7988 46.7955 62.1792 47.0202Z" fill="#37474F"/>
<path d="M61.6406 42.0193L60.6482 41.4411C60.5805 41.3983 60.5052 41.3697 60.4265 41.357C60.3479 41.3442 60.2676 41.3475 60.1903 41.3668C60.113 41.3861 60.0401 41.4208 59.9761 41.4691C59.9121 41.5174 59.8581 41.5782 59.8173 41.648C59.7765 41.7178 59.7497 41.7952 59.7384 41.8757C59.7272 41.9562 59.7318 42.0382 59.7518 42.1169C59.7719 42.1955 59.8072 42.2693 59.8554 42.334C59.9037 42.3986 59.9641 42.4528 60.0331 42.4933L61.0368 43.0869C61.25 43.2121 61.5576 43.0772 61.7236 42.7843C61.8896 42.4914 61.8519 42.1445 61.6406 42.0193Z" fill="#906DDB"/>
<path d="M76.4432 37.13L77.0092 36.1182C77.0511 36.0491 77.0791 35.9722 77.0916 35.8919C77.1041 35.8116 77.1008 35.7295 77.082 35.6505C77.0631 35.5715 77.0291 35.4972 76.9818 35.4318C76.9346 35.3663 76.875 35.3112 76.8067 35.2695C76.7383 35.2278 76.6625 35.2005 76.5837 35.189C76.5049 35.1775 76.4247 35.1822 76.3477 35.2027C76.2707 35.2232 76.1984 35.2592 76.1351 35.3085C76.0718 35.3578 76.0188 35.4195 75.9791 35.49L75.398 36.5152C75.2754 36.7311 75.398 37.0452 75.6942 37.2148C75.9904 37.3843 76.3187 37.3477 76.4432 37.13Z" fill="#906DDB"/>
<path d="M71.6501 37.5482C71.87 37.1591 72.1628 36.8181 72.5117 36.5445C72.8607 36.271 73.2589 36.0704 73.6838 35.9541C74.1086 35.8377 74.5517 35.808 74.9878 35.8666C75.4239 35.9252 75.8444 36.071 76.2254 36.2956C76.6063 36.5202 76.9402 36.8192 77.208 37.1756C77.4758 37.532 77.6722 37.9388 77.7861 38.3728C77.9 38.8067 77.9291 39.2593 77.8717 39.7048C77.8143 40.1502 77.6716 40.5797 77.4517 40.9688L71.6501 37.5482Z" fill="#455A64"/>
<path d="M76.7156 36.6602C76.9043 37.0629 77.4175 38.7684 76.7156 39.1924C76.0138 39.6163 72.7725 38.2095 72.7725 38.2095L77.4514 40.9692C77.8411 40.2763 77.9809 39.4659 77.8465 38.6787C77.7121 37.8916 77.312 37.1773 76.7156 36.6602Z" fill="#37474F"/>
</svg>
