<svg width="90" height="79" viewBox="0 0 90 79" fill="none" xmlns="http://www.w3.org/2000/svg">
<path d="M76.0516 70.2396C83.2569 70.2396 89.098 67.3956 89.098 63.8874C89.098 60.3791 83.2569 57.5352 76.0516 57.5352C68.8462 57.5352 63.0051 60.3791 63.0051 63.8874C63.0051 67.3956 68.8462 70.2396 76.0516 70.2396Z" fill="#E0E0E0"/>
<path d="M7.37976 69.2881C7.24365 69.1949 7.13777 69.0625 7.07561 68.9076C7.01345 68.7527 6.99782 68.5825 7.03072 68.4185L15.3935 30.6135C15.4941 30.248 15.7212 29.9321 16.0326 29.7247L65.7939 0.384514C65.9461 0.302328 66.1151 0.257968 66.2872 0.255038C66.4593 0.252108 66.6297 0.290691 66.7845 0.367652C66.9184 0.461442 67.0223 0.593522 67.0832 0.74735C67.144 0.901179 67.159 1.06992 67.1264 1.23244L58.7613 39.0374C58.6605 39.4035 58.4324 39.7196 58.1199 39.9263L8.37027 69.2664C8.21848 69.3494 8.04966 69.3946 7.87755 69.3983C7.70545 69.4021 7.5349 69.3643 7.37976 69.2881Z" fill="#F0F0F0"/>
<path d="M16.3512 31.1725L7.98845 68.9919C7.9177 69.3147 8.0875 69.4448 8.3705 69.2786L58.1319 39.9384C58.4444 39.7317 58.6725 39.4157 58.7733 39.0495L67.1266 1.23255C67.1974 0.907355 67.0276 0.779685 66.7446 0.945897L16.9832 30.286C16.6751 30.4944 16.4507 30.8091 16.3512 31.1725Z" fill="#E6E6E6"/>
<path d="M67.7327 0.926559C67.5777 0.849968 67.4073 0.811796 67.2351 0.815144C67.063 0.818493 66.8941 0.863267 66.7421 0.94583L16.9808 30.286C16.8364 30.3814 16.7204 30.5154 16.6451 30.6733C16.5699 30.8312 16.5384 31.0072 16.5539 31.1821L23.1031 78.0083C23.135 78.1858 23.2014 78.355 23.2981 78.506C23.3949 78.6569 23.5202 78.7867 23.6667 78.8875C23.8211 78.9647 23.9913 79.0032 24.1631 78.9998C24.3349 78.9965 24.5035 78.9514 24.6549 78.8683L74.4068 49.5353C74.5515 49.4397 74.6679 49.3054 74.7431 49.147C74.8184 48.9886 74.8497 48.8121 74.8337 48.6368L68.3057 1.8058C68.2728 1.6275 68.2051 1.45778 68.1066 1.30673C68.0082 1.15569 67.881 1.02641 67.7327 0.926559Z" fill="#F0F0F0"/>
<path d="M17.5205 31.7484L24.0603 78.5746C24.0616 78.6444 24.0818 78.7125 24.1186 78.7713C24.1555 78.8302 24.2076 78.8774 24.2691 78.9078C24.3307 78.9383 24.3993 78.9507 24.4673 78.9438C24.5353 78.9368 24.6002 78.9108 24.6546 78.8685L74.4065 49.5356C74.5512 49.4399 74.6676 49.3056 74.7428 49.1472C74.8181 48.9888 74.8494 48.8124 74.8334 48.6371L68.3054 1.80603C68.3046 1.736 68.2847 1.66759 68.248 1.60842C68.2113 1.54926 68.1592 1.50166 68.0976 1.47094C68.036 1.44022 67.9672 1.42758 67.899 1.43443C67.8308 1.44128 67.7657 1.46735 67.7111 1.50973L17.9498 30.8499C17.8046 30.9452 17.6878 31.0794 17.6121 31.2378C17.5365 31.3963 17.5048 31.5729 17.5205 31.7484Z" fill="#FAFAFA"/>
<path d="M8.03271 68.7799L20.7678 61.2666L21.1381 63.9886L15.2988 67.4333C15.2988 67.4333 13.7423 67.997 13.1244 68.156C12.5065 68.315 8.03271 68.7799 8.03271 68.7799Z" fill="#E0E0E0"/>
<path d="M21.1454 63.991L23.0557 77.6734L15.3062 67.4357L21.1454 63.991Z" fill="#E6E6E6"/>
<path d="M22.8273 78.1286L15.8819 68.9147C15.7666 68.7773 15.6208 68.6699 15.4568 68.6017C15.2927 68.5334 15.115 68.5061 14.9385 68.522L8.44362 69.4856C8.07786 69.5256 7.70857 69.457 7.38 69.288C7.11587 69.1339 7.16068 68.9556 7.47905 68.893L14.9433 67.426C15.1183 67.3991 15.2971 67.4189 15.4624 67.4835C15.6277 67.548 15.7738 67.6552 15.8866 67.7945L23.7942 78.6827C23.9876 78.9501 23.931 79.0392 23.6668 78.8826C23.3484 78.6799 23.0648 78.4252 22.8273 78.1286Z" fill="#E0E0E0"/>
<path d="M67.1384 1.04702C67.1375 0.911294 67.1039 0.777872 67.0406 0.658552C66.9772 0.539233 66.8861 0.437691 66.7752 0.362902C66.62 0.287056 66.4497 0.2493 66.2777 0.252646C66.1057 0.255992 65.9369 0.300347 65.7847 0.382173L16.0233 29.7223C15.8716 29.8194 15.7395 29.9454 15.6342 30.0933C15.5173 30.2471 15.4315 30.4232 15.3818 30.6112L14.2026 35.9517L15.1601 36.513L65.9474 6.57058L67.1266 1.23251C67.1378 1.17138 67.1425 1.10919 67.1407 1.04702H67.1384Z" fill="#906DDB"/>
<path opacity="0.2" d="M67.1263 1.23255C67.197 0.907355 67.0272 0.779685 66.7442 0.945897L16.9828 30.286C16.6721 30.4931 16.4451 30.8079 16.3437 31.1725L15.1646 36.513L65.9471 6.57063L67.1263 1.23255Z" fill="black"/>
<path opacity="0.1" d="M16.6015 30.6569C16.4844 30.8094 16.3993 30.9849 16.3515 31.1724L15.1723 36.5129L14.2148 35.9492L15.394 30.6087C15.4437 30.4207 15.5295 30.2447 15.6464 30.0908L16.6015 30.6569Z" fill="black"/>
<path opacity="0.4" d="M67.1377 1.04458C67.1141 0.863917 66.9609 0.803695 66.7415 0.945819L16.9802 30.2836C16.8274 30.3802 16.6951 30.5072 16.591 30.6569L15.6335 30.0908C15.7389 29.9429 15.8709 29.817 16.0227 29.7199L65.784 0.379732C65.9362 0.297906 66.1051 0.25355 66.2771 0.250204C66.449 0.246859 66.6194 0.284615 66.7746 0.360461C66.8854 0.43525 66.9766 0.536792 67.0399 0.656112C67.1033 0.775432 67.1369 0.908853 67.1377 1.04458Z" fill="white"/>
<path d="M68.3554 2.25385L68.3059 1.8058C68.3023 1.78388 68.2976 1.76217 68.2918 1.74076C68.2928 1.73438 68.2928 1.72787 68.2918 1.72149C68.2115 1.39734 68.0177 1.1145 67.747 0.926559C67.592 0.849968 67.4216 0.811796 67.2495 0.815144C67.0773 0.818493 66.9084 0.863267 66.7565 0.94583L16.9951 30.286C16.8445 30.3813 16.7253 30.5206 16.6531 30.6859C16.5795 30.8397 16.55 31.0118 16.5682 31.1821L17.5116 37.8908L18.4691 38.4569L69.2327 8.51694L68.3554 2.25385Z" fill="#906DDB"/>
<path opacity="0.1" d="M18.4593 38.4546L17.5018 37.8885L16.5585 31.1798C16.5403 31.0095 16.5697 30.8375 16.6434 30.6836L17.6032 31.2473C17.5279 31.4006 17.4975 31.573 17.516 31.7435L18.4593 38.4546Z" fill="black"/>
<path opacity="0.4" d="M68.2775 1.72149C68.264 1.6608 68.2357 1.60456 68.1954 1.55794C68.155 1.51132 68.1038 1.47582 68.0465 1.45471C67.9892 1.43359 67.9276 1.42755 67.8674 1.43712C67.8072 1.4467 67.7503 1.47159 67.702 1.50951L17.9407 30.8497C17.7895 30.9443 17.6701 31.0838 17.5987 31.2495L16.6577 30.6859C16.7305 30.5203 16.8494 30.3804 16.9997 30.2836L66.761 0.94583C66.913 0.863267 67.0819 0.818493 67.254 0.815144C67.4262 0.811796 67.5966 0.849968 67.7515 0.926559C68.0158 1.11723 68.2028 1.39991 68.2775 1.72149Z" fill="white"/>
<path d="M31.6692 70.8154L31.0749 66.5493C31.0741 66.4937 31.0583 66.4395 31.0293 66.3924C31.0004 66.3454 30.9593 66.3074 30.9107 66.2825C30.862 66.2577 30.8076 66.247 30.7534 66.2515C30.6992 66.2561 30.6473 66.2757 30.6032 66.3084L26.2662 68.8666C26.1494 68.943 26.0555 69.0509 25.9951 69.1785C25.9348 69.3061 25.9102 69.4483 25.9242 69.5893L26.5162 73.865C26.5162 73.9209 26.5314 73.9758 26.5602 74.0233C26.589 74.0709 26.6302 74.1093 26.6792 74.1344C26.7281 74.1594 26.7829 74.1699 26.8375 74.1649C26.892 74.1599 26.9441 74.1395 26.9879 74.1059L31.3249 71.5477C31.4439 71.4711 31.5394 71.3617 31.6003 71.2322C31.6612 71.1026 31.6851 70.9582 31.6692 70.8154Z" fill="#906DDB"/>
<path d="M38.3755 66.8649L37.7789 62.6012C37.7789 62.5452 37.7636 62.4904 37.7348 62.4429C37.7061 62.3953 37.6649 62.3568 37.6159 62.3318C37.5669 62.3068 37.5121 62.2962 37.4576 62.3013C37.4031 62.3063 37.351 62.3267 37.3072 62.3603L32.9702 64.9161C32.8535 64.9927 32.7598 65.1007 32.6995 65.2282C32.6391 65.3557 32.6145 65.4978 32.6282 65.6388L33.2249 69.9049C33.2249 69.9608 33.2401 70.0156 33.2689 70.0632C33.2977 70.1108 33.3389 70.1492 33.3878 70.1742C33.4368 70.1992 33.4916 70.2098 33.5462 70.2048C33.6007 70.1998 33.6528 70.1793 33.6966 70.1458L38.0336 67.5875C38.1506 67.5114 38.2446 67.4034 38.305 67.2758C38.3654 67.1482 38.3898 67.0059 38.3755 66.8649Z" fill="#EBEBEB"/>
<path d="M45.0832 62.9142L44.4866 58.6505C44.4866 58.5946 44.4713 58.5397 44.4425 58.4922C44.4137 58.4446 44.3726 58.4062 44.3236 58.3811C44.2746 58.3561 44.2198 58.3456 44.1653 58.3506C44.1108 58.3556 44.0587 58.376 44.0149 58.4096L39.6755 60.9702C39.5588 61.0468 39.4652 61.1548 39.4048 61.2823C39.3445 61.4099 39.3198 61.5519 39.3335 61.6929L39.9302 65.959C39.9302 66.0149 39.9454 66.0697 39.9742 66.1173C40.003 66.1649 40.0442 66.2033 40.0932 66.2283C40.1421 66.2533 40.1969 66.2639 40.2515 66.2589C40.306 66.2539 40.3581 66.2335 40.4019 66.1999L44.7389 63.6417C44.8572 63.5654 44.9521 63.4569 45.013 63.3283C45.0738 63.1997 45.0982 63.0562 45.0832 62.9142Z" fill="#EBEBEB"/>
<path d="M51.797 58.9662L51.2004 54.7C51.2004 54.6441 51.1851 54.5893 51.1563 54.5417C51.1275 54.4942 51.0864 54.4557 51.0374 54.4307C50.9884 54.4057 50.9336 54.3951 50.8791 54.4001C50.8246 54.4052 50.7725 54.4256 50.7287 54.4592L46.3728 57.0222C46.2557 57.0984 46.1618 57.2063 46.1014 57.3339C46.041 57.4616 46.0165 57.6039 46.0308 57.7449L46.6275 62.0086C46.6275 62.0645 46.6427 62.1193 46.6715 62.1669C46.7003 62.2145 46.7415 62.2529 46.7905 62.2779C46.8394 62.3029 46.8942 62.3135 46.9488 62.3085C47.0033 62.3035 47.0554 62.283 47.0992 62.2495L51.4362 59.6936C51.5571 59.6192 51.6551 59.5115 51.7189 59.3828C51.7827 59.2542 51.8098 59.1098 51.797 58.9662Z" fill="#EBEBEB"/>
<path d="M58.4974 55.0156L57.9007 50.7398C57.9007 50.6839 57.8855 50.6291 57.8567 50.5815C57.8279 50.534 57.7867 50.4955 57.7378 50.4705C57.6888 50.4455 57.634 50.4349 57.5794 50.4399C57.5249 50.445 57.4728 50.4654 57.429 50.4989L53.092 53.0572C52.975 53.1333 52.881 53.2413 52.8206 53.3689C52.7602 53.4965 52.7358 53.6388 52.7501 53.7798L53.3467 58.0436C53.3467 58.0995 53.362 58.1543 53.3908 58.2019C53.4195 58.2494 53.4607 58.2879 53.5097 58.3129C53.5587 58.3379 53.6135 58.3485 53.668 58.3434C53.7225 58.3384 53.7746 58.318 53.8184 58.2844L58.1649 55.7334C58.279 55.6561 58.3703 55.5483 58.4289 55.4218C58.4876 55.2953 58.5112 55.1548 58.4974 55.0156Z" fill="#EBEBEB"/>
<path d="M65.2052 51.0648L64.6085 46.7987C64.6085 46.7427 64.5932 46.6879 64.5645 46.6404C64.5357 46.5928 64.4945 46.5544 64.4455 46.5293C64.3966 46.5043 64.3417 46.4938 64.2872 46.4988C64.2327 46.5038 64.1806 46.5242 64.1368 46.5578L59.7998 49.116C59.6827 49.1922 59.5888 49.3001 59.5284 49.4277C59.468 49.5554 59.4435 49.6977 59.4578 49.8387L60.0521 54.112C60.0521 54.1679 60.0674 54.2228 60.0962 54.2703C60.1249 54.3179 60.1661 54.3563 60.2151 54.3813C60.2641 54.4064 60.3189 54.4169 60.3734 54.4119C60.4279 54.4069 60.48 54.3865 60.5238 54.3529L64.8608 51.7947C64.9793 51.7181 65.0743 51.6091 65.1352 51.48C65.1961 51.351 65.2203 51.2072 65.2052 51.0648Z" fill="#EBEBEB"/>
<path d="M71.9118 47.1266L71.3151 42.8604C71.3151 42.8045 71.2999 42.7497 71.2711 42.7021C71.2423 42.6546 71.2011 42.6161 71.1522 42.5911C71.1032 42.5661 71.0484 42.5555 70.9939 42.5605C70.9393 42.5656 70.8873 42.586 70.8435 42.6195L66.5064 45.1778C66.3896 45.2541 66.2957 45.3621 66.2354 45.4897C66.175 45.6173 66.1505 45.7595 66.1645 45.9004L66.7588 50.1666C66.7596 50.2221 66.7754 50.2764 66.8044 50.3234C66.8333 50.3704 66.8744 50.4085 66.923 50.4333C66.9717 50.4582 67.0261 50.4689 67.0803 50.4643C67.1345 50.4598 67.1864 50.4401 67.2305 50.4075L71.5675 47.8492C71.6848 47.7732 71.7791 47.6653 71.8399 47.5377C71.9007 47.4101 71.9256 47.2678 71.9118 47.1266Z" fill="#EBEBEB"/>
<path d="M30.5036 62.4688L29.9069 58.2075C29.9061 58.1519 29.8903 58.0977 29.8614 58.0506C29.8324 58.0036 29.7914 57.9656 29.7427 57.9407C29.6941 57.9159 29.6397 57.9052 29.5854 57.9097C29.5312 57.9143 29.4793 57.9339 29.4353 57.9666L25.0982 60.5248C24.9814 60.6012 24.8875 60.7091 24.8272 60.8367C24.7668 60.9643 24.7423 61.1065 24.7563 61.2475L25.3506 65.5136C25.3514 65.5691 25.3672 65.6234 25.3962 65.6704C25.4251 65.7175 25.4662 65.7555 25.5148 65.7803C25.5635 65.8052 25.6179 65.8159 25.6721 65.8114C25.7263 65.8068 25.7782 65.7871 25.8223 65.7545L30.1593 63.1963C30.2766 63.119 30.3708 63.0103 30.4315 62.8819C30.4922 62.7536 30.5172 62.6106 30.5036 62.4688Z" fill="#906DDB"/>
<path d="M37.2114 58.518L36.6147 54.2519C36.6138 54.1963 36.5981 54.1421 36.5691 54.0951C36.5402 54.048 36.4991 54.01 36.4505 53.9852C36.4018 53.9603 36.3474 53.9496 36.2932 53.9541C36.239 53.9587 36.187 53.9784 36.143 54.011L31.806 56.5692C31.6891 56.6456 31.5953 56.7536 31.5349 56.8812C31.4746 57.0087 31.45 57.1509 31.464 57.2919L32.0584 61.558C32.0592 61.6136 32.075 61.6678 32.1039 61.7149C32.1329 61.7619 32.1739 61.7999 32.2226 61.8248C32.2712 61.8496 32.3256 61.8603 32.3798 61.8558C32.4341 61.8512 32.486 61.8316 32.53 61.7989L36.867 59.2407C36.9836 59.1638 37.0773 59.0559 37.138 58.9285C37.1987 58.8011 37.2241 58.6591 37.2114 58.518Z" fill="#EBEBEB"/>
<path d="M43.9184 54.5676L43.3217 50.3015C43.3209 50.2459 43.3051 50.1917 43.2762 50.1446C43.2472 50.0976 43.2062 50.0596 43.1575 50.0347C43.1089 50.0099 43.0545 49.9992 43.0002 50.0037C42.946 50.0083 42.8941 50.0279 42.8501 50.0606L38.513 52.6188C38.3962 52.6952 38.3023 52.8031 38.242 52.9307C38.1816 53.0583 38.1571 53.2005 38.1711 53.3415L38.7654 57.6076C38.7662 57.6631 38.782 57.7174 38.811 57.7644C38.8399 57.8115 38.881 57.8495 38.9296 57.8743C38.9783 57.8992 39.0327 57.9099 39.0869 57.9053C39.1411 57.9008 39.193 57.8811 39.2371 57.8485L43.5741 55.2903C43.6906 55.2134 43.7843 55.1054 43.845 54.978C43.9057 54.8506 43.9311 54.7087 43.9184 54.5676Z" fill="#EBEBEB"/>
<path d="M50.6174 50.6171L50.0207 46.351C50.0199 46.2955 50.0041 46.2412 49.9752 46.1942C49.9462 46.1472 49.9052 46.1091 49.8565 46.0843C49.8079 46.0594 49.7535 46.0487 49.6993 46.0533C49.645 46.0578 49.5931 46.0775 49.5491 46.1101L45.2168 48.6732C45.1001 48.7497 45.0064 48.8578 44.9461 48.9853C44.8857 49.1128 44.8611 49.2549 44.8748 49.3958L45.4691 53.662C45.47 53.7175 45.4857 53.7718 45.5147 53.8188C45.5436 53.8658 45.5847 53.9039 45.6333 53.9287C45.682 53.9535 45.7364 53.9643 45.7906 53.9597C45.8448 53.9552 45.8968 53.9355 45.9408 53.9029L50.2778 51.3446C50.3944 51.267 50.4878 51.158 50.5477 51.0297C50.6076 50.9013 50.6318 50.7586 50.6174 50.6171Z" fill="#EBEBEB"/>
<path d="M57.3325 46.6664L56.7358 42.4027C56.7358 42.3468 56.7206 42.2919 56.6918 42.2444C56.663 42.1968 56.6218 42.1584 56.5729 42.1334C56.5239 42.1083 56.4691 42.0978 56.4145 42.1028C56.36 42.1078 56.3079 42.1282 56.2641 42.1618L51.9248 44.7176C51.8081 44.7942 51.7144 44.9022 51.6541 45.0297C51.5937 45.1572 51.5691 45.2993 51.5828 45.4403L52.1771 49.7064C52.178 49.762 52.1937 49.8162 52.2227 49.8632C52.2516 49.9103 52.2927 49.9483 52.3413 49.9731C52.39 49.998 52.4444 50.0087 52.4986 50.0041C52.5528 49.9996 52.6048 49.9799 52.6488 49.9473L56.9858 47.3842C57.1022 47.3083 57.1961 47.2012 57.2572 47.0747C57.3183 46.9482 57.3443 46.807 57.3325 46.6664Z" fill="#EBEBEB"/>
<path d="M64.0395 42.7157L63.4428 38.4544C63.4428 38.3985 63.4276 38.3437 63.3988 38.2961C63.37 38.2486 63.3288 38.2101 63.2798 38.1851C63.2309 38.1601 63.1761 38.1495 63.1215 38.1545C63.067 38.1596 63.0149 38.18 62.9711 38.2135L58.6365 40.7742C58.5194 40.8503 58.4254 40.9583 58.365 41.0859C58.3046 41.2136 58.2802 41.3558 58.2945 41.4968L58.8888 45.7606C58.8897 45.8161 58.9054 45.8704 58.9344 45.9174C58.9633 45.9644 59.0044 46.0024 59.053 46.0273C59.1017 46.0521 59.1561 46.0629 59.2103 46.0583C59.2645 46.0538 59.3165 46.0341 59.3605 46.0015L63.6975 43.4432C63.8146 43.3659 63.9084 43.257 63.9688 43.1287C64.0291 43.0003 64.0536 42.8574 64.0395 42.7157Z" fill="#EBEBEB"/>
<path d="M70.7464 38.7674L70.1498 34.5013C70.1498 34.4454 70.1345 34.3906 70.1057 34.343C70.0769 34.2954 70.0358 34.257 69.9868 34.232C69.9378 34.207 69.883 34.1964 69.8285 34.2014C69.774 34.2064 69.7219 34.2269 69.6781 34.2604L65.3387 36.8186C65.2223 36.8953 65.1289 37.0034 65.069 37.131C65.009 37.2585 64.9848 37.4006 64.9991 37.5413L65.5934 41.805C65.5943 41.8606 65.61 41.9148 65.639 41.9619C65.6679 42.0089 65.709 42.0469 65.7576 42.0718C65.8063 42.0966 65.8607 42.1073 65.9149 42.1028C65.9691 42.0982 66.0211 42.0786 66.0651 42.0459L70.4021 39.4901C70.5185 39.4131 70.612 39.305 70.6727 39.1777C70.7334 39.0503 70.7589 38.9085 70.7464 38.7674Z" fill="#EBEBEB"/>
<path d="M29.3361 54.1123L28.7418 49.8461C28.741 49.7906 28.7252 49.7363 28.6963 49.6893C28.6673 49.6423 28.6263 49.6043 28.5776 49.5794C28.5289 49.5546 28.4746 49.5438 28.4203 49.5484C28.3661 49.5529 28.3142 49.5726 28.2702 49.6052L23.9284 52.1852C23.8121 52.2621 23.7187 52.3702 23.6584 52.4976C23.5981 52.625 23.5732 52.7669 23.5865 52.9078L24.1831 57.1715C24.1831 57.2275 24.1984 57.2823 24.2271 57.3298C24.2559 57.3774 24.2971 57.4159 24.3461 57.4409C24.395 57.4659 24.4499 57.4765 24.5044 57.4714C24.5589 57.4664 24.611 57.446 24.6548 57.4124L28.9942 54.8349C29.1108 54.7584 29.2045 54.6504 29.2649 54.5228C29.3252 54.3953 29.3499 54.2532 29.3361 54.1123Z" fill="#906DDB"/>
<path d="M36.0438 50.1713L35.4495 45.9052C35.4487 45.8497 35.4329 45.7954 35.4039 45.7484C35.375 45.7013 35.3339 45.6633 35.2853 45.6385C35.2366 45.6136 35.1822 45.6029 35.128 45.6075C35.0738 45.612 35.0219 45.6317 34.9778 45.6643L30.6408 48.2226C30.5245 48.2995 30.4311 48.4076 30.3709 48.535C30.3106 48.6625 30.2856 48.8043 30.2989 48.9452L30.8955 53.2114C30.8964 53.2669 30.9121 53.3212 30.9411 53.3682C30.9701 53.4152 31.0111 53.4532 31.0597 53.4781C31.1084 53.5029 31.1628 53.5137 31.217 53.5091C31.2712 53.5045 31.3232 53.4849 31.3672 53.4522L35.7042 50.894C35.8206 50.8173 35.914 50.7092 35.9739 50.5817C36.0339 50.4541 36.0581 50.3121 36.0438 50.1713Z" fill="#EBEBEB"/>
<path d="M42.7512 46.2207L42.1569 41.9545C42.1561 41.899 42.1403 41.8447 42.1113 41.7977C42.0824 41.7507 42.0413 41.7127 41.9927 41.6878C41.944 41.663 41.8896 41.6522 41.8354 41.6568C41.7812 41.6613 41.7293 41.681 41.6852 41.7137L37.3482 44.2719C37.2321 44.349 37.1389 44.4571 37.0786 44.5845C37.0183 44.7119 36.9933 44.8537 37.0063 44.9945L37.6029 49.2607C37.6038 49.3162 37.6195 49.3705 37.6485 49.4175C37.6774 49.4645 37.7185 49.5026 37.7671 49.5274C37.8158 49.5522 37.8702 49.563 37.9244 49.5584C37.9786 49.5539 38.0306 49.5342 38.0746 49.5016L42.4116 46.9433C42.528 46.8667 42.6214 46.7585 42.6813 46.631C42.7413 46.5034 42.7655 46.3614 42.7512 46.2207Z" fill="#EBEBEB"/>
<path d="M49.4582 42.27L48.8639 38.0039C48.8631 37.9483 48.8473 37.894 48.8184 37.847C48.7894 37.8 48.7484 37.762 48.6997 37.7371C48.6511 37.7123 48.5967 37.7015 48.5424 37.7061C48.4882 37.7107 48.4363 37.7303 48.3923 37.763L44.0552 40.3212C43.9391 40.3983 43.8459 40.5065 43.7856 40.6338C43.7254 40.7612 43.7003 40.903 43.7133 41.0439L44.3099 45.31C44.3108 45.3655 44.3266 45.4198 44.3555 45.4668C44.3845 45.5139 44.4255 45.5519 44.4742 45.5767C44.5228 45.6016 44.5772 45.6123 44.6314 45.6077C44.6857 45.6032 44.7376 45.5835 44.7816 45.5509L49.1186 42.9926C49.2351 42.916 49.3284 42.8079 49.3884 42.6803C49.4483 42.5527 49.4725 42.4107 49.4582 42.27Z" fill="#EBEBEB"/>
<path d="M56.1645 38.3198L55.5702 34.0537C55.5694 33.9981 55.5536 33.9439 55.5247 33.8968C55.4957 33.8498 55.4547 33.8118 55.406 33.7869C55.3574 33.7621 55.303 33.7513 55.2487 33.7559C55.1945 33.7605 55.1426 33.7801 55.0986 33.8128L50.7615 36.371C50.6454 36.4481 50.5522 36.5563 50.4919 36.6836C50.4317 36.811 50.4066 36.9528 50.4196 37.0937L51.0162 41.3598C51.0171 41.4153 51.0329 41.4696 51.0618 41.5166C51.0908 41.5637 51.1318 41.6017 51.1805 41.6265C51.2291 41.6514 51.2835 41.6621 51.3377 41.6575C51.3919 41.653 51.4439 41.6333 51.4879 41.6007L55.8249 39.0424C55.9414 38.9658 56.0347 38.8577 56.0947 38.7301C56.1546 38.6025 56.1788 38.4605 56.1645 38.3198Z" fill="#EBEBEB"/>
<path d="M62.8813 34.3593L62.287 30.0932C62.2862 30.0377 62.2704 29.9834 62.2415 29.9364C62.2125 29.8893 62.1714 29.8513 62.1228 29.8265C62.0741 29.8016 62.0197 29.7909 61.9655 29.7955C61.9113 29.8 61.8594 29.8197 61.8154 29.8523L57.4571 32.4322C57.341 32.5094 57.2478 32.6175 57.1875 32.7449C57.1272 32.8722 57.1022 33.014 57.1151 33.1549L57.7118 37.421C57.7127 37.4766 57.7284 37.5308 57.7574 37.5779C57.7863 37.6249 57.8274 37.6629 57.876 37.6878C57.9247 37.7126 57.9791 37.7233 58.0333 37.7188C58.0875 37.7142 58.1395 37.6945 58.1835 37.6619L62.5299 35.082C62.6487 35.0071 62.7446 34.8997 62.8067 34.7719C62.8688 34.6442 62.8947 34.5013 62.8813 34.3593Z" fill="#EBEBEB"/>
<path d="M69.5795 30.4184L68.9852 26.1547C68.9843 26.0992 68.9685 26.0449 68.9396 25.9979C68.9106 25.9509 68.8696 25.9129 68.8209 25.888C68.7723 25.8632 68.7179 25.8524 68.6637 25.857C68.6095 25.8615 68.5575 25.8812 68.5135 25.9138L64.1765 28.4697C64.0602 28.5466 63.9668 28.6547 63.9065 28.7821C63.8462 28.9096 63.8213 29.0514 63.8345 29.1923L64.4312 33.4585C64.432 33.514 64.4478 33.5683 64.4767 33.6153C64.5057 33.6623 64.5467 33.7003 64.5954 33.7252C64.644 33.75 64.6984 33.7608 64.7527 33.7562C64.8069 33.7517 64.8588 33.732 64.9028 33.6993L69.2493 31.1363C69.3634 31.059 69.4545 30.9512 69.5128 30.8246C69.571 30.698 69.5941 30.5575 69.5795 30.4184Z" fill="#EBEBEB"/>
<path d="M28.1707 45.7728L27.574 41.5091C27.574 41.4532 27.5588 41.3984 27.53 41.3508C27.5012 41.3033 27.46 41.2648 27.4111 41.2398C27.3621 41.2148 27.3073 41.2042 27.2528 41.2092C27.1982 41.2142 27.1462 41.2347 27.1024 41.2682L22.7653 43.8241C22.6487 43.9006 22.555 44.0086 22.4946 44.1362C22.4343 44.2637 22.4096 44.4058 22.4234 44.5467L23.0248 48.8128C23.0248 48.8688 23.04 48.9236 23.0688 48.9711C23.0976 49.0187 23.1388 49.0572 23.1877 49.0822C23.2367 49.1072 23.2915 49.1178 23.346 49.1127C23.4006 49.1077 23.4526 49.0873 23.4964 49.0537L27.8335 46.4955C27.9496 46.4187 28.0427 46.3105 28.1022 46.1829C28.1618 46.0553 28.1855 45.9134 28.1707 45.7728Z" fill="#906DDB"/>
<path d="M34.8787 41.827L34.2821 37.5633C34.2821 37.5074 34.2668 37.4526 34.238 37.405C34.2093 37.3574 34.1681 37.319 34.1191 37.294C34.0701 37.269 34.0153 37.2584 33.9608 37.2634C33.9063 37.2684 33.8542 37.2889 33.8104 37.3224L29.4734 39.8807C29.3563 39.9568 29.2623 40.0648 29.2019 40.1924C29.1415 40.32 29.1171 40.4623 29.1314 40.6033L29.7281 44.867C29.7281 44.923 29.7433 44.9778 29.7721 45.0253C29.8009 45.0729 29.8421 45.1114 29.891 45.1364C29.94 45.1614 29.9948 45.172 30.0493 45.1669C30.1039 45.1619 30.156 45.1415 30.1998 45.1079L34.5368 42.5497C34.6538 42.4735 34.7478 42.3656 34.8082 42.238C34.8686 42.1103 34.893 41.968 34.8787 41.827Z" fill="#EBEBEB"/>
<path d="M41.5855 37.8739L40.9889 33.6078C40.9889 33.5518 40.9736 33.497 40.9448 33.4494C40.916 33.4019 40.8749 33.3634 40.8259 33.3384C40.7769 33.3134 40.7221 33.3028 40.6676 33.3079C40.6131 33.3129 40.561 33.3333 40.5172 33.3669L36.1802 35.9251C36.0631 36.0013 35.9691 36.1092 35.9087 36.2368C35.8483 36.3645 35.8239 36.5067 35.8382 36.6478L36.4349 40.9115C36.4349 40.9674 36.4501 41.0222 36.4789 41.0698C36.5077 41.1173 36.5489 41.1558 36.5978 41.1808C36.6468 41.2058 36.7016 41.2164 36.7561 41.2114C36.8107 41.2063 36.8627 41.1859 36.9065 41.1524L41.2436 38.5965C41.3602 38.52 41.4539 38.412 41.5143 38.2844C41.5746 38.1569 41.5993 38.0148 41.5855 37.8739Z" fill="#EBEBEB"/>
<path d="M48.2928 33.9232L47.6961 29.6571C47.6961 29.6011 47.6809 29.5463 47.6521 29.4988C47.6233 29.4512 47.5821 29.4128 47.5332 29.3877C47.4842 29.3627 47.4294 29.3522 47.3749 29.3572C47.3203 29.3622 47.2683 29.3826 47.2245 29.4162L42.8874 31.9744C42.7704 32.0506 42.6764 32.1585 42.616 32.2861C42.5556 32.4138 42.5312 32.5561 42.5455 32.6971L43.1398 36.9632C43.1406 37.0188 43.1564 37.073 43.1854 37.12C43.2143 37.1671 43.2554 37.2051 43.304 37.2299C43.3527 37.2548 43.4071 37.2655 43.4613 37.261C43.5155 37.2564 43.5674 37.2367 43.6115 37.2041L47.9485 34.6459C48.0656 34.5696 48.1597 34.4617 48.2205 34.3342C48.2813 34.2066 48.3063 34.0644 48.2928 33.9232Z" fill="#EBEBEB"/>
<path d="M55.0003 29.9728L54.4037 25.7066C54.4037 25.6507 54.3884 25.5959 54.3596 25.5483C54.3308 25.5008 54.2897 25.4623 54.2407 25.4373C54.1917 25.4123 54.1369 25.4017 54.0824 25.4067C54.0279 25.4118 53.9758 25.4322 53.932 25.4657L49.595 28.024C49.4779 28.1001 49.3839 28.2081 49.3235 28.3357C49.2631 28.4633 49.2387 28.6056 49.253 28.7466L49.8473 33.0128C49.8482 33.0683 49.8639 33.1226 49.8929 33.1696C49.9218 33.2166 49.9629 33.2546 50.0115 33.2795C50.0602 33.3043 50.1146 33.3151 50.1688 33.3105C50.223 33.306 50.275 33.2863 50.319 33.2536L54.656 30.6954C54.7733 30.6194 54.8676 30.5115 54.9284 30.3839C54.9892 30.2563 55.0141 30.114 55.0003 29.9728Z" fill="#EBEBEB"/>
<path d="M61.7018 26.0221L61.1052 21.7559C61.1052 21.7 61.0899 21.6452 61.0612 21.5976C61.0324 21.5501 60.9912 21.5116 60.9422 21.4866C60.8933 21.4616 60.8384 21.451 60.7839 21.4561C60.7294 21.4611 60.6773 21.4815 60.6335 21.5151L56.2965 24.0733C56.1796 24.1497 56.0858 24.2576 56.0254 24.3852C55.965 24.5128 55.9405 24.655 55.9545 24.796L56.5512 29.0597C56.552 29.1152 56.5678 29.1695 56.5968 29.2165C56.6257 29.2635 56.6668 29.3016 56.7154 29.3264C56.7641 29.3512 56.8185 29.362 56.8727 29.3574C56.9269 29.3529 56.9788 29.3332 57.0229 29.3006L61.3599 26.7423C61.4764 26.6662 61.5699 26.5586 61.6303 26.4315C61.6906 26.3043 61.7154 26.1627 61.7018 26.0221Z" fill="#EBEBEB"/>
<path d="M68.4142 22.0741L67.8176 17.8079C67.8176 17.752 67.8023 17.6972 67.7736 17.6496C67.7448 17.6021 67.7036 17.5636 67.6546 17.5386C67.6057 17.5136 67.5508 17.503 67.4963 17.5081C67.4418 17.5131 67.3897 17.5335 67.3459 17.5671L63.0089 20.1253C62.892 20.2017 62.7982 20.3096 62.7378 20.4372C62.6775 20.5648 62.6529 20.707 62.6669 20.848L63.2612 25.1141C63.2621 25.1696 63.2778 25.2239 63.3068 25.2709C63.3358 25.318 63.3768 25.356 63.4255 25.3808C63.4741 25.4057 63.5285 25.4164 63.5827 25.4118C63.6369 25.4073 63.6889 25.3876 63.7329 25.355L68.0699 22.7967C68.1872 22.7207 68.2815 22.6128 68.3423 22.4852C68.4031 22.3576 68.428 22.2153 68.4142 22.0741Z" fill="#EBEBEB"/>
<path d="M27.1403 38.2327L26.9894 37.1439C26.9894 37.088 26.9741 37.0331 26.9453 36.9856C26.9166 36.938 26.8754 36.8996 26.8264 36.8746C26.7774 36.8496 26.7226 36.839 26.6681 36.844C26.6136 36.849 26.5615 36.8694 26.5177 36.903L22.1783 39.466C22.0615 39.5424 21.9676 39.6504 21.9073 39.778C21.8469 39.9055 21.8223 40.0477 21.8364 40.1887L21.9849 41.2775C21.9858 41.3331 22.0015 41.3873 22.0305 41.4344C22.0595 41.4814 22.1005 41.5194 22.1492 41.5443C22.1978 41.5691 22.2522 41.5798 22.3064 41.5753C22.3606 41.5707 22.4126 41.551 22.4566 41.5184L26.7983 38.9505C26.9139 38.874 27.0068 38.7667 27.067 38.6402C27.1273 38.5137 27.1526 38.3728 27.1403 38.2327Z" fill="#E6E6E6"/>
<path d="M33.8473 34.2823L33.6964 33.1934C33.6964 33.1375 33.6812 33.0827 33.6524 33.0351C33.6236 32.9876 33.5824 32.9491 33.5334 32.9241C33.4845 32.8991 33.4297 32.8885 33.3751 32.8936C33.3206 32.8986 33.2685 32.919 33.2247 32.9526L28.8854 35.5156C28.7685 35.592 28.6747 35.6999 28.6143 35.8275C28.5539 35.9551 28.5294 36.0973 28.5434 36.2383L28.692 37.3271C28.6928 37.3826 28.7086 37.4369 28.7375 37.4839C28.7665 37.531 28.8075 37.569 28.8562 37.5938C28.9048 37.6187 28.9592 37.6294 29.0135 37.6248C29.0677 37.6203 29.1196 37.6006 29.1636 37.568L33.503 35.0097C33.6205 34.9327 33.7148 34.824 33.7756 34.6956C33.8364 34.5672 33.8612 34.4242 33.8473 34.2823Z" fill="#E6E6E6"/>
<path d="M40.5551 30.3317L40.4042 29.2429C40.4033 29.1873 40.3876 29.1331 40.3586 29.086C40.3296 29.039 40.2886 29.001 40.2399 28.9761C40.1913 28.9513 40.1369 28.9406 40.0827 28.9451C40.0285 28.9497 39.9765 28.9693 39.9325 29.002L35.5931 31.565C35.4763 31.6414 35.3824 31.7494 35.3221 31.8769C35.2617 32.0045 35.2371 32.1467 35.2512 32.2877L35.3997 33.3765C35.3997 33.4324 35.415 33.4872 35.4438 33.5348C35.4725 33.5824 35.5137 33.6208 35.5627 33.6458C35.6117 33.6708 35.6665 33.6814 35.721 33.6764C35.7755 33.6714 35.8276 33.6509 35.8714 33.6174L40.2108 31.0592C40.3283 30.9821 40.4226 30.8734 40.4834 30.745C40.5441 30.6166 40.569 30.4736 40.5551 30.3317Z" fill="#E6E6E6"/>
<path d="M47.2619 26.3834L47.111 25.2922C47.1101 25.2366 47.0943 25.1824 47.0654 25.1353C47.0364 25.0883 46.9954 25.0503 46.9467 25.0255C46.8981 25.0006 46.8437 24.9899 46.7895 24.9944C46.7353 24.999 46.6833 25.0187 46.6393 25.0513L42.2999 27.6143C42.183 27.6907 42.0892 27.7987 42.0288 27.9263C41.9685 28.0538 41.9439 28.196 41.9579 28.337L42.1065 29.4258C42.1065 29.4817 42.1218 29.5366 42.1505 29.5841C42.1793 29.6317 42.2205 29.6701 42.2695 29.6951C42.3184 29.7201 42.3733 29.7307 42.4278 29.7257C42.4823 29.7207 42.5344 29.7003 42.5782 29.6667L46.9176 27.1109C47.0347 27.0335 47.1287 26.9247 47.1894 26.7964C47.2502 26.6681 47.2752 26.5252 47.2619 26.3834Z" fill="#E6E6E6"/>
<path d="M53.9698 22.433L53.8188 21.3417C53.818 21.2862 53.8022 21.2319 53.7733 21.1849C53.7443 21.1379 53.7033 21.0999 53.6546 21.075C53.606 21.0502 53.5516 21.0394 53.4973 21.044C53.4431 21.0485 53.3912 21.0682 53.3472 21.1009L49.0078 23.6639C48.8911 23.7405 48.7974 23.8485 48.7371 23.976C48.6767 24.1035 48.6521 24.2456 48.6658 24.3866L48.8144 25.4754C48.8144 25.5313 48.8296 25.5861 48.8584 25.6337C48.8872 25.6813 48.9284 25.7197 48.9773 25.7447C49.0263 25.7697 49.0811 25.7803 49.1357 25.7753C49.1902 25.7703 49.2423 25.7498 49.2861 25.7163L53.6254 23.1604C53.7425 23.083 53.8366 22.9742 53.8973 22.8459C53.958 22.7177 53.9831 22.5748 53.9698 22.433Z" fill="#E6E6E6"/>
<path d="M60.6768 18.4825L60.5259 17.3936C60.5259 17.3377 60.5106 17.2829 60.4818 17.2353C60.453 17.1878 60.4119 17.1493 60.3629 17.1243C60.3139 17.0993 60.2591 17.0887 60.2046 17.0937C60.1501 17.0988 60.098 17.1192 60.0542 17.1528L55.7148 19.7134C55.5981 19.79 55.5045 19.898 55.4441 20.0255C55.3838 20.153 55.3591 20.2951 55.3728 20.4361L55.5214 21.5273C55.5223 21.5828 55.538 21.6371 55.567 21.6841C55.596 21.7311 55.637 21.7692 55.6856 21.794C55.7343 21.8189 55.7887 21.8296 55.8429 21.825C55.8971 21.8205 55.9491 21.8008 55.9931 21.7682L60.3325 19.2099C60.4498 19.1327 60.544 19.0239 60.6047 18.8956C60.6654 18.7673 60.6904 18.6243 60.6768 18.4825Z" fill="#E6E6E6"/>
<path d="M67.3813 14.532L67.2328 13.4432C67.2328 13.3873 67.2175 13.3325 67.1887 13.2849C67.1599 13.2373 67.1188 13.1989 67.0698 13.1739C67.0208 13.1489 66.966 13.1383 66.9115 13.1433C66.857 13.1483 66.8049 13.1688 66.7611 13.2023L62.4241 15.7605C62.307 15.8367 62.213 15.9446 62.1526 16.0723C62.0922 16.1999 62.0678 16.3422 62.0821 16.4832L62.2307 17.572C62.2315 17.6276 62.2473 17.6818 62.2762 17.7289C62.3052 17.7759 62.3463 17.8139 62.3949 17.8388C62.4436 17.8636 62.498 17.8743 62.5522 17.8698C62.6064 17.8652 62.6583 17.8455 62.7023 17.8129L67.0417 15.2547C67.158 15.1778 67.2512 15.0697 67.3111 14.9422C67.371 14.8147 67.3953 14.6727 67.3813 14.532Z" fill="#E6E6E6"/>
<path opacity="0.2" d="M22.0824 31.8013C22.061 31.4831 22.1254 31.1649 22.2684 30.8812C22.4114 30.5976 22.6276 30.3593 22.8936 30.1922C23.4219 29.8815 23.9148 30.0959 23.9974 30.674C24.0192 30.9926 23.9549 31.3113 23.8114 31.5951C23.6679 31.8789 23.4508 32.1169 23.1837 32.2831C22.6578 32.5939 22.1649 32.3795 22.0824 31.8013Z" fill="black"/>
<path opacity="0.2" d="M28.7964 27.8554C28.7746 27.537 28.8386 27.2186 28.9817 26.9349C29.1247 26.6512 29.3413 26.413 29.6077 26.2462C30.136 25.9331 30.6289 26.1475 30.7114 26.728C30.7331 27.0463 30.6687 27.3645 30.5252 27.6479C30.3817 27.9313 30.1646 28.1689 29.8978 28.3347C29.3695 28.6359 28.8766 28.4215 28.7964 27.8554Z" fill="black"/>
<path opacity="0.2" d="M35.4964 23.8927C35.4745 23.5744 35.5386 23.256 35.6816 22.9723C35.8247 22.6885 36.0412 22.4503 36.3076 22.2836C36.8359 21.9704 37.3312 22.1848 37.4114 22.7654C37.433 23.0834 37.3689 23.4014 37.2258 23.6847C37.0828 23.968 36.8663 24.2058 36.6001 24.3721C36.0718 24.6828 35.5766 24.4685 35.4964 23.8927Z" fill="black"/>
<path opacity="0.2" d="M48.9058 15.9844C48.8839 15.6661 48.948 15.3477 49.0911 15.064C49.2341 14.7802 49.4506 14.542 49.7171 14.3753C50.2453 14.0646 50.7382 14.279 50.8184 14.8571C50.8414 15.1756 50.7777 15.4944 50.6346 15.7783C50.4914 16.0623 50.2743 16.3003 50.0072 16.4662C49.4789 16.7746 48.986 16.5626 48.9058 15.9844Z" fill="black"/>
<path opacity="0.2" d="M55.6181 12.029C55.5958 11.7105 55.6596 11.3919 55.8027 11.1081C55.9458 10.8243 56.1626 10.5862 56.4294 10.4198C56.9577 10.1067 57.4506 10.3211 57.5331 10.9016C57.555 11.2202 57.4907 11.5389 57.3472 11.8227C57.2037 12.1065 56.9865 12.3445 56.7195 12.5107C56.1912 12.8191 55.6983 12.6047 55.6181 12.029Z" fill="black"/>
<path opacity="0.2" d="M62.3181 8.07584C62.2963 7.75748 62.3604 7.43909 62.5034 7.15536C62.6465 6.87163 62.863 6.63343 63.1294 6.46671C63.6577 6.15355 64.153 6.36794 64.2331 6.94848C64.2548 7.26649 64.1906 7.58447 64.0476 7.86778C63.9045 8.1511 63.6881 8.38887 63.4219 8.55521C62.8818 8.86595 62.4101 8.65156 62.3181 8.07584Z" fill="black"/>
<path d="M21.3885 25.2923C20.681 24.8707 19.9877 24.8105 19.4594 25.1212C18.9311 25.432 18.6387 26.0679 18.6387 26.9134C18.6433 27.3089 18.7004 27.7019 18.8085 28.0817L19.2283 27.8409C19.1529 27.5393 19.1133 27.2295 19.1103 26.9183C19.1103 26.2534 19.3179 25.7644 19.6952 25.5428C19.85 25.4545 20.025 25.4096 20.2023 25.4127C20.5368 25.429 20.8616 25.5327 21.1456 25.7138C22.4003 26.4558 23.4214 28.2624 23.4214 29.7415C23.4221 29.8469 23.4166 29.9523 23.4049 30.057C23.3991 30.2668 23.3448 30.4722 23.2465 30.6564C23.1481 30.8406 23.0084 30.9984 22.8389 31.1169C22.6227 31.2362 22.3733 31.277 22.1314 31.2326C22.0838 31.3883 22.0638 31.5514 22.0724 31.7143C22.1606 31.7286 22.2497 31.7359 22.3389 31.736C22.5987 31.7393 22.8545 31.6711 23.0795 31.5385C23.29 31.4036 23.4685 31.2225 23.6019 31.0083C23.7353 30.7941 23.8203 30.5523 23.8506 30.3003C23.8824 30.1174 23.8982 29.932 23.8978 29.7463C23.9002 28.0962 22.7729 26.1089 21.3885 25.2923Z" fill="#F5F5F5"/>
<path d="M28.1009 21.3369C27.3934 20.9154 26.7001 20.8552 26.1718 21.1659C25.6435 21.4767 25.3511 22.1126 25.3511 22.9581C25.3557 23.3536 25.4128 23.7466 25.5209 24.1264L25.9407 23.8855C25.8653 23.5839 25.8257 23.2742 25.8227 22.9629C25.8227 22.2981 26.0303 21.8091 26.4076 21.5875C26.5624 21.4992 26.7374 21.4543 26.9147 21.4574C27.2492 21.4737 27.574 21.5774 27.858 21.7585C29.1127 22.5004 30.1338 24.3071 30.1338 25.7861C30.1345 25.8916 30.129 25.9969 30.1173 26.1017C30.1115 26.3115 30.0572 26.5168 29.9589 26.7011C29.8605 26.8853 29.7208 27.0431 29.5513 27.1616C29.3351 27.2809 29.0857 27.3217 28.8438 27.2772C28.7962 27.433 28.7762 27.5961 28.7848 27.759C28.873 27.7733 28.9621 27.7806 29.0513 27.7807C29.3111 27.784 29.5669 27.7158 29.7919 27.5832C30.0024 27.4483 30.1809 27.2672 30.3143 27.053C30.4477 26.8388 30.5327 26.5969 30.563 26.345C30.5948 26.1621 30.6106 25.9767 30.6102 25.791C30.6126 24.1481 29.4853 22.1536 28.1009 21.3369Z" fill="#F5F5F5"/>
<path d="M34.8001 17.3841C34.0926 16.9625 33.3993 16.9023 32.871 17.213C32.3427 17.5238 32.0503 18.1597 32.0503 19.0052C32.0549 19.4007 32.112 19.7937 32.2201 20.1735L32.6399 19.9327C32.5645 19.6311 32.5249 19.3213 32.522 19.0101C32.522 18.3452 32.7295 17.8562 33.1068 17.6346C33.2617 17.5463 33.4366 17.5014 33.6139 17.5045C33.9484 17.5208 34.2732 17.6245 34.5572 17.8056C35.8119 18.5475 36.833 20.3542 36.833 21.8333C36.8337 21.9387 36.8282 22.0441 36.8165 22.1488C36.8108 22.3586 36.7565 22.564 36.6581 22.7482C36.5597 22.9324 36.4201 23.0902 36.2505 23.2087C36.0343 23.328 35.7849 23.3688 35.543 23.3244C35.4954 23.4801 35.4754 23.6432 35.4841 23.8061C35.5722 23.8204 35.6613 23.8277 35.7506 23.8278C36.0103 23.8311 36.2661 23.7629 36.4911 23.6303C36.7016 23.4954 36.8801 23.3143 37.0135 23.1001C37.1469 22.8859 37.2319 22.6441 37.2623 22.3921C37.294 22.2092 37.3098 22.0238 37.3094 21.8381C37.3118 20.1952 36.1845 18.2007 34.8001 17.3841Z" fill="#F5F5F5"/>
<path d="M48.2127 9.48757C47.5052 9.06602 46.8119 9.0058 46.2836 9.31654C45.7553 9.62729 45.4629 10.2632 45.4629 11.1088C45.4675 11.5042 45.5246 11.8973 45.6327 12.2771L46.0525 12.0362C45.9771 11.7346 45.9375 11.4248 45.9346 11.1136C45.9346 10.4487 46.1421 9.95971 46.5194 9.7381C46.6742 9.64979 46.8492 9.60491 47.0265 9.60802C47.361 9.62432 47.6858 9.72799 47.9698 9.90913C49.2245 10.6511 50.2456 12.4577 50.2456 13.9368C50.2463 14.0422 50.2408 14.1476 50.2291 14.2523C50.2234 14.4621 50.1691 14.6675 50.0707 14.8517C49.9723 15.0359 49.8327 15.1937 49.6631 15.3122C49.4469 15.4315 49.1975 15.4723 48.9556 15.4279C48.908 15.5836 48.888 15.7467 48.8967 15.9096C48.9848 15.9239 49.0739 15.9312 49.1632 15.9313C49.4229 15.9346 49.6787 15.8664 49.9037 15.7338C50.1142 15.5989 50.2927 15.4178 50.4261 15.2036C50.5595 14.9894 50.6445 14.7476 50.6749 14.4956C50.7066 14.3127 50.7224 14.1273 50.722 13.9416C50.7244 12.2987 49.5971 10.3042 48.2127 9.48757Z" fill="#F5F5F5"/>
<path d="M54.9242 5.53005C54.2167 5.1085 53.5233 5.04828 52.995 5.35902C52.4667 5.66977 52.1743 6.30571 52.1743 7.15123C52.1789 7.54672 52.236 7.93974 52.3441 8.31954L52.7639 8.07865C52.6885 7.77705 52.649 7.4673 52.646 7.15605C52.646 6.4912 52.8535 6.0022 53.2309 5.78058C53.3857 5.69227 53.5606 5.64739 53.7379 5.6505C54.0724 5.6668 54.3972 5.77047 54.6813 5.95161C55.9359 6.69354 56.9571 8.5002 56.9571 9.97926C56.9578 10.0847 56.9523 10.1901 56.9406 10.2948C56.9348 10.5046 56.8805 10.71 56.7821 10.8942C56.6837 11.0784 56.5441 11.2362 56.3746 11.3547C56.1583 11.474 55.9089 11.5148 55.667 11.4704C55.6194 11.6261 55.5995 11.7892 55.6081 11.9521C55.6962 11.9664 55.7853 11.9737 55.8746 11.9738C56.1343 11.9771 56.3901 11.9089 56.6151 11.7763C56.8257 11.6414 57.0041 11.4603 57.1375 11.2461C57.2709 11.0319 57.3559 10.7901 57.3863 10.5381C57.4181 10.3552 57.4338 10.1698 57.4335 9.98407C57.4358 8.34363 56.3085 6.34666 54.9242 5.53005Z" fill="#F5F5F5"/>
<path d="M61.6245 1.57693C60.917 1.15538 60.2237 1.09515 59.6954 1.4059C59.1671 1.71665 58.8723 2.35259 58.8723 3.19811C58.8769 3.59359 58.934 3.98661 59.0421 4.36641L59.4619 4.12552C59.3865 3.82393 59.3469 3.51417 59.344 3.20292C59.344 2.53807 59.5515 2.04907 59.9289 1.82745C60.0837 1.73915 60.2586 1.69427 60.4359 1.69737C60.7704 1.71367 61.0952 1.81735 61.3793 1.99848C62.6339 2.74042 63.6551 4.54708 63.6551 6.02613C63.6558 6.13156 63.6503 6.23694 63.6386 6.34169C63.6328 6.55145 63.5785 6.75683 63.4801 6.94104C63.3817 7.12526 63.2421 7.28308 63.0726 7.4016C62.8563 7.52087 62.6069 7.56164 62.365 7.51723C62.3174 7.67294 62.2975 7.8361 62.3061 7.999C62.3942 8.0133 62.4833 8.02055 62.5726 8.02068C62.8323 8.02399 63.0881 7.95575 63.3131 7.82315C63.5237 7.68828 63.7021 7.50717 63.8355 7.29299C63.9689 7.0788 64.0539 6.83694 64.0843 6.58499C64.1161 6.4021 64.1318 6.21669 64.1315 6.03095C64.1362 4.38809 63.0089 2.39354 61.6245 1.57693Z" fill="#F5F5F5"/>
<path d="M68.5929 64.2294L67.0081 67.0406C66.9039 67.2162 66.8724 67.427 66.9203 67.6264C66.9683 67.8259 67.0919 67.9977 67.2639 68.1041C67.4359 68.2104 67.6423 68.2427 67.8375 68.1937C68.0328 68.1446 68.201 68.0184 68.3051 67.8427L69.8994 65.0147C70.0527 64.7449 69.8876 64.3522 69.5291 64.1403C69.1707 63.9283 68.7462 63.9668 68.5929 64.2294Z" fill="#455A64"/>
<path d="M81.2064 59.2795L83.9586 60.8983C84.0432 60.9518 84.1374 60.9875 84.2357 61.0035C84.3339 61.0194 84.4343 61.0152 84.531 60.9912C84.6276 60.9671 84.7187 60.9236 84.7987 60.8633C84.8788 60.8029 84.9463 60.7269 84.9973 60.6396C85.0483 60.5524 85.0818 60.4556 85.0958 60.355C85.1099 60.2544 85.1041 60.1519 85.079 60.0536C85.0539 59.9553 85.0099 59.863 84.9495 59.7822C84.8892 59.7014 84.8137 59.6337 84.7274 59.583L81.9587 57.9667C81.6946 57.8101 81.3102 57.9787 81.1026 58.3449C80.8951 58.711 80.9423 59.1229 81.2064 59.2795Z" fill="#455A64"/>
<path d="M84.2556 46.6062H84.2415L77.5366 42.6532H77.5178C76.0462 41.7981 74.018 41.9306 71.7799 43.2458C67.2825 45.8956 63.6365 52.349 63.6365 57.6533C63.6365 60.3031 64.5444 62.1555 66.009 63.0275H66.0208L72.7256 66.9829H72.7421C74.2137 67.8429 76.2443 67.7056 78.4847 66.3927C82.9797 63.743 86.6257 57.2896 86.6257 51.9876C86.6257 49.3379 85.7201 47.4782 84.2556 46.6062Z" fill="#906DDB"/>
<path opacity="0.1" d="M72.6166 66.9035L66.0132 63.0156H65.9991C64.5345 62.1412 63.6289 60.2815 63.6289 57.6414C63.6289 55.2759 64.3553 52.6839 65.5557 50.304L72.2605 54.2569C71.0577 56.6369 70.3337 59.2289 70.3337 61.5944C70.3384 64.1719 71.2063 66.0074 72.6166 66.9035Z" fill="black"/>
<path opacity="0.4" d="M84.242 60.1772C87.422 54.5512 87.4222 48.4704 84.2424 46.5952C81.0626 44.72 75.9069 47.7606 72.7269 53.3866C69.5469 59.0125 69.5467 65.0934 72.7265 66.9686C75.9063 68.8437 81.062 65.8031 84.242 60.1772Z" fill="white"/>
<path d="M74.8451 65.8363C72.2697 65.8363 71.9915 62.8638 71.9915 61.5847C71.9915 56.9066 75.3427 50.9856 79.3024 48.6393C80.3117 48.0444 81.2834 47.7312 82.1135 47.7312C84.6889 47.7312 84.9671 50.7038 84.9671 51.9829C84.9671 56.6609 81.6159 62.5819 77.6562 64.9282C76.6445 65.5232 75.6729 65.8363 74.8451 65.8363Z" fill="#FAFAFA"/>
<path d="M76.6775 62.2035C76.665 62.2058 76.6523 62.2058 76.6398 62.2035C76.6103 62.1926 76.5862 62.1704 76.5726 62.1416C76.5589 62.1128 76.5568 62.0797 76.5667 62.0494L78.3708 56.786C78.3811 56.7556 78.4028 56.7307 78.4311 56.7167C78.4594 56.7027 78.492 56.7008 78.5217 56.7113C78.5515 56.7218 78.5758 56.744 78.5896 56.7729C78.6033 56.8018 78.6052 56.8351 78.5949 56.8655L76.7954 62.1216C76.7876 62.1468 76.7717 62.1685 76.7503 62.1834C76.7289 62.1982 76.7033 62.2053 76.6775 62.2035Z" fill="#906DDB"/>
<path d="M81.1875 58.3736C81.1396 58.3744 81.0921 58.3646 81.0484 58.3447L78.1311 57.0559V51.6504C78.1311 51.5546 78.1684 51.4627 78.2347 51.3949C78.3011 51.3271 78.391 51.2891 78.4849 51.2891C78.5787 51.2891 78.6687 51.3271 78.735 51.3949C78.8013 51.4627 78.8386 51.5546 78.8386 51.6504V56.5814L81.329 57.6822C81.4029 57.7158 81.4632 57.7742 81.5 57.8477C81.5368 57.9212 81.5478 58.0054 81.5313 58.0862C81.5147 58.167 81.4716 58.2396 81.4091 58.2919C81.3465 58.3441 81.2683 58.373 81.1875 58.3736Z" fill="#37474F"/>
<path d="M78.4848 55.6539C79.013 55.3408 79.4422 55.5937 79.4422 56.2176C79.4226 56.5555 79.3258 56.884 79.1595 57.1768C78.9932 57.4696 78.7622 57.7186 78.4848 57.9038C77.9541 58.217 77.5249 57.964 77.5249 57.3377C77.5452 57 77.6425 56.6719 77.8092 56.3795C77.9759 56.0871 78.2072 55.8386 78.4848 55.6539Z" fill="#906DDB"/>
<path d="M70.6919 51.7756C69.5363 53.8159 67.3595 54.7409 65.7228 53.775C64.7627 53.208 64.0625 52.2746 63.7761 51.1803C63.4897 50.0859 63.6407 48.9201 64.1958 47.9395C64.7509 46.9588 65.6647 46.2435 66.7361 45.951C67.8075 45.6585 68.9488 45.8127 69.9089 46.3797C71.5409 47.3674 71.8428 49.7329 70.6919 51.7756Z" fill="#455A64"/>
<path d="M65.724 53.7752C67.3607 54.7387 69.5375 53.8161 70.6931 51.7758C70.9512 51.3184 71.1427 50.8251 71.2614 50.3112C71.1954 50.4004 69.271 52.9056 66.8796 52.1998C64.4458 51.4771 63.9883 49.5669 64.1982 47.9385C63.923 48.424 63.7443 48.9602 63.672 49.5163C63.5998 50.0725 63.6356 50.6377 63.7773 51.1797C63.919 51.7217 64.1638 52.2299 64.4979 52.6753C64.8319 53.1206 65.2485 53.4944 65.724 53.7752Z" fill="#37474F"/>
<path d="M65.0512 47.5239L63.8107 46.8012C63.7261 46.7477 63.6319 46.712 63.5337 46.696C63.4354 46.6801 63.335 46.6842 63.2384 46.7083C63.1417 46.7324 63.0507 46.7759 62.9706 46.8362C62.8906 46.8966 62.8231 46.9726 62.7721 47.0598C62.7211 47.1471 62.6876 47.2439 62.6735 47.3445C62.6595 47.4451 62.6652 47.5475 62.6903 47.6459C62.7154 47.7442 62.7594 47.8365 62.8198 47.9173C62.8802 47.9981 62.9557 48.0658 63.0419 48.1165L64.2965 48.8584C64.563 49.015 64.9474 48.8464 65.155 48.4802C65.3625 48.1141 65.3153 47.6805 65.0512 47.5239Z" fill="#906DDB"/>
<path d="M83.5545 41.4126L84.262 40.148C84.3143 40.0616 84.3494 39.9654 84.365 39.865C84.3806 39.7646 84.3765 39.6621 84.3529 39.5634C84.3294 39.4646 84.2868 39.3717 84.2277 39.2899C84.1686 39.2081 84.0942 39.1392 84.0088 39.0871C83.9233 39.035 83.8286 39.0008 83.7301 38.9864C83.6316 38.9721 83.5313 38.9779 83.435 39.0036C83.3387 39.0292 83.2484 39.0742 83.1693 39.1358C83.0902 39.1975 83.0239 39.2746 82.9743 39.3627L82.2479 40.6442C82.0946 40.914 82.2479 41.3066 82.6182 41.5186C82.9885 41.7306 83.3988 41.6848 83.5545 41.4126Z" fill="#906DDB"/>
<path d="M77.5625 41.9354C77.8374 41.449 78.2033 41.0227 78.6395 40.6808C79.0756 40.3389 79.5735 40.0881 80.1045 39.9427C80.6356 39.7973 81.1895 39.7602 81.7346 39.8334C82.2797 39.9067 82.8053 40.0889 83.2815 40.3696C83.7577 40.6504 84.1751 41.0242 84.5098 41.4697C84.8445 41.9152 85.0901 42.4237 85.2324 42.9661C85.3748 43.5085 85.4111 44.0743 85.3394 44.6311C85.2677 45.1879 85.0893 45.7248 84.8145 46.2112L77.5625 41.9354Z" fill="#455A64"/>
<path d="M83.8945 40.825C84.1304 41.3284 84.7719 43.4603 83.8945 43.9902C83.0172 44.5202 78.9656 42.7617 78.9656 42.7617L84.8143 46.2112C85.3014 45.3451 85.4762 44.3321 85.3081 43.3482C85.1401 42.3642 84.64 41.4714 83.8945 40.825Z" fill="#37474F"/>
</svg>
