<svg width="120" height="105" viewBox="0 0 120 105" fill="none" xmlns="http://www.w3.org/2000/svg">
<path d="M101.402 93.3196C111.009 93.3196 118.797 89.5276 118.797 84.85C118.797 80.1723 111.009 76.3804 101.402 76.3804C91.795 76.3804 84.0068 80.1723 84.0068 84.85C84.0068 89.5276 91.795 93.3196 101.402 93.3196Z" fill="#E0E0E0"/>
<path d="M9.8396 92.0506C9.65811 91.9264 9.51694 91.7498 9.43406 91.5433C9.35118 91.3368 9.33035 91.1098 9.37422 90.8912L20.5245 40.4846C20.6587 39.9972 20.9615 39.576 21.3767 39.2994L87.7252 0.179189C87.9281 0.069608 88.1534 0.0104612 88.3829 0.00655463C88.6124 0.00264808 88.8395 0.0540921 89.0459 0.156707C89.2245 0.28176 89.3631 0.457866 89.4442 0.662971C89.5253 0.868075 89.5453 1.09306 89.5018 1.30976L78.3484 51.7164C78.2139 52.2045 77.9098 52.6259 77.493 52.9015L11.1603 92.0217C10.9579 92.1323 10.7328 92.1926 10.5033 92.1976C10.2738 92.2026 10.0464 92.1523 9.8396 92.0506Z" fill="#F0F0F0"/>
<path d="M21.8016 41.2299L10.6513 91.6557C10.5569 92.0861 10.7833 92.2595 11.1607 92.0379L77.5091 52.9177C77.9259 52.6421 78.23 52.2207 78.3644 51.7326L89.5022 1.30991C89.5965 0.876311 89.3701 0.706083 88.9928 0.9277L22.6443 40.0479C22.2335 40.3257 21.9343 40.7452 21.8016 41.2299Z" fill="#E6E6E6"/>
<path d="M90.3101 0.901997C90.1035 0.799875 89.8763 0.748979 89.6468 0.753444C89.4173 0.757909 89.1921 0.817609 88.9895 0.927692L22.641 40.0479C22.4485 40.1751 22.2937 40.3537 22.1934 40.5643C22.0931 40.7749 22.0511 41.0095 22.0718 41.2427L30.804 103.678C30.8466 103.914 30.9351 104.14 31.0641 104.341C31.1932 104.542 31.3602 104.715 31.5556 104.85C31.7614 104.953 31.9883 105.004 32.2174 105C32.4465 104.995 32.6713 104.935 32.8731 104.824L99.209 65.7137C99.402 65.5862 99.5571 65.4071 99.6574 65.1959C99.7577 64.9847 99.7995 64.7494 99.7782 64.5157L91.0742 2.07432C91.0303 1.83658 90.94 1.61029 90.8087 1.4089C90.6775 1.20751 90.5079 1.03513 90.3101 0.901997Z" fill="#F0F0F0"/>
<path d="M23.3607 41.9977L32.0804 104.433C32.0821 104.526 32.109 104.617 32.1582 104.695C32.2073 104.773 32.2768 104.836 32.3588 104.877C32.4409 104.918 32.5323 104.934 32.6231 104.925C32.7138 104.916 32.8002 104.881 32.8728 104.824L99.2087 65.7139C99.4017 65.5864 99.5567 65.4073 99.6571 65.1961C99.7574 64.9849 99.7992 64.7497 99.7778 64.5159L91.0739 2.07454C91.0728 1.98116 91.0462 1.88995 90.9973 1.81107C90.9484 1.73218 90.879 1.66872 90.7968 1.62776C90.7147 1.5868 90.623 1.56995 90.532 1.57908C90.441 1.58821 90.3543 1.62297 90.2815 1.67948L23.933 40.7997C23.7395 40.9268 23.5838 41.1057 23.4829 41.3169C23.3819 41.5282 23.3397 41.7636 23.3607 41.9977Z" fill="#FAFAFA"/>
<path d="M10.7104 91.3732L27.6906 81.3555L28.1843 84.9848L20.3986 89.5778C20.3986 89.5778 18.3232 90.3293 17.4994 90.5413C16.6755 90.7533 10.7104 91.3732 10.7104 91.3732Z" fill="#E0E0E0"/>
<path d="M28.1939 84.988L30.741 103.231L20.4082 89.581L28.1939 84.988Z" fill="#E6E6E6"/>
<path d="M30.4363 103.838L21.1758 91.553C21.0221 91.3698 20.8278 91.2267 20.609 91.1356C20.3903 91.0446 20.1534 91.0082 19.9181 91.0294L11.2582 92.3142C10.7705 92.3675 10.2781 92.2761 9.84001 92.0508C9.48782 91.8452 9.54757 91.6076 9.97207 91.5241L19.9243 89.568C20.1577 89.5322 20.3961 89.5586 20.6165 89.6447C20.8369 89.7308 21.0318 89.8737 21.1821 90.0595L31.7256 104.577C31.9834 104.933 31.9079 105.052 31.5558 104.844C31.1313 104.573 30.7531 104.234 30.4363 103.838Z" fill="#E0E0E0"/>
<path d="M89.5177 1.06262C89.5166 0.881643 89.4718 0.703748 89.3873 0.544655C89.3029 0.385563 89.1813 0.250173 89.0335 0.150454C88.8266 0.0493262 88.5995 -0.00101473 88.3702 0.00344648C88.1409 0.00790769 87.9157 0.0670482 87.7128 0.17615L21.3643 39.2963C21.162 39.4258 20.9859 39.5937 20.8455 39.791C20.6896 39.9961 20.5753 40.2308 20.509 40.4815L18.9368 47.6022L20.2134 48.3505L87.9298 8.42736L89.502 1.30993C89.517 1.22842 89.5233 1.14551 89.5209 1.06262H89.5177Z" fill="#906DDB"/>
<path opacity="0.2" d="M89.5018 1.30991C89.5961 0.876311 89.3697 0.706083 88.9924 0.9277L22.6439 40.0479C22.2295 40.324 21.9269 40.7438 21.7917 41.2299L20.2195 48.3505L87.9295 8.42734L89.5018 1.30991Z" fill="black"/>
<path opacity="0.1" d="M22.1353 40.5424C21.9792 40.7457 21.8658 40.9797 21.802 41.2297L20.2298 48.3504L18.9531 47.5988L20.5254 40.4781C20.5916 40.2275 20.706 39.9927 20.8618 39.7876L22.1353 40.5424Z" fill="black"/>
<path opacity="0.4" d="M89.517 1.05944C89.4855 0.818556 89.2811 0.73826 88.9887 0.927759L22.6402 40.0447C22.4365 40.1737 22.2601 40.3429 22.1214 40.5426L20.8447 39.7878C20.9851 39.5906 21.1613 39.4227 21.3636 39.2932L87.712 0.172976C87.915 0.0638743 88.1401 0.00473385 88.3694 0.000272641C88.5987 -0.00418857 88.8259 0.0461536 89.0327 0.147282C89.1806 0.247 89.3021 0.38239 89.3866 0.541483C89.471 0.700575 89.5158 0.878471 89.517 1.05944Z" fill="white"/>
<path d="M91.1406 2.67172L91.0745 2.07432C91.0697 2.04509 91.0635 2.01614 91.0557 1.9876C91.057 1.97909 91.057 1.97041 91.0557 1.9619C90.9487 1.5297 90.6903 1.15258 90.3293 0.901997C90.1227 0.799875 89.8954 0.748979 89.6659 0.753444C89.4365 0.757909 89.2113 0.817609 89.0086 0.927692L22.6601 40.0479C22.4593 40.1749 22.3004 40.3607 22.2042 40.5811C22.1059 40.7862 22.0667 41.0156 22.091 41.2427L23.3488 50.1877L24.6254 50.9424L92.3103 11.0225L91.1406 2.67172Z" fill="#906DDB"/>
<path opacity="0.1" d="M24.6122 50.9395L23.3356 50.1847L22.0778 41.2398C22.0535 41.0127 22.0928 40.7833 22.191 40.5781L23.4708 41.3297C23.3703 41.5341 23.3299 41.7639 23.3544 41.9913L24.6122 50.9395Z" fill="black"/>
<path opacity="0.4" d="M91.0368 1.9619C91.0188 1.88099 90.9811 1.806 90.9273 1.74384C90.8735 1.68168 90.8053 1.63435 90.7289 1.6062C90.6524 1.57804 90.5703 1.56998 90.4901 1.58275C90.4098 1.59552 90.3339 1.62871 90.2695 1.67926L23.921 40.7995C23.7194 40.9256 23.5604 41.1116 23.4651 41.3326L22.2104 40.5811C22.3075 40.3604 22.4661 40.1738 22.6664 40.0447L89.0149 0.927692C89.2175 0.817609 89.4427 0.757909 89.6722 0.753444C89.9017 0.748979 90.129 0.799875 90.3356 0.901997C90.6879 1.15623 90.9373 1.53313 91.0368 1.9619Z" fill="white"/>
<path d="M42.2256 94.087L41.4332 88.3989C41.4321 88.3248 41.4111 88.2524 41.3724 88.1897C41.3338 88.127 41.2791 88.0763 41.2142 88.0432C41.1494 88.0101 41.0768 87.9958 41.0046 88.0019C40.9323 88.0079 40.863 88.0342 40.8043 88.0777L35.0216 91.4886C34.8658 91.5905 34.7407 91.7344 34.6602 91.9045C34.5797 92.0746 34.547 92.2642 34.5657 92.4522L35.3549 98.1532C35.3549 98.2278 35.3753 98.3009 35.4136 98.3643C35.452 98.4277 35.5069 98.479 35.5722 98.5123C35.6375 98.5456 35.7106 98.5598 35.7833 98.5531C35.856 98.5464 35.9254 98.5191 35.9838 98.4744L41.7665 95.0634C41.9252 94.9613 42.0525 94.8155 42.1337 94.6427C42.2149 94.47 42.2468 94.2774 42.2256 94.087Z" fill="#906DDB"/>
<path d="M51.1673 88.8198L50.3717 83.1349C50.3717 83.0603 50.3514 82.9872 50.313 82.9238C50.2747 82.8604 50.2198 82.8091 50.1545 82.7758C50.0892 82.7424 50.0161 82.7283 49.9434 82.735C49.8707 82.7417 49.8012 82.769 49.7429 82.8137L43.9602 86.2215C43.8046 86.3235 43.6797 86.4676 43.5992 86.6376C43.5188 86.8076 43.4859 86.9971 43.5042 87.185L44.2998 92.8732C44.2998 92.9477 44.3201 93.0208 44.3585 93.0842C44.3968 93.1477 44.4517 93.1989 44.517 93.2323C44.5823 93.2656 44.6554 93.2797 44.7281 93.273C44.8008 93.2663 44.8703 93.2391 44.9287 93.1944L50.7113 89.7834C50.8674 89.6818 50.9927 89.5379 51.0733 89.3677C51.1538 89.1976 51.1864 89.0078 51.1673 88.8198Z" fill="#EBEBEB"/>
<path d="M60.1109 83.5523L59.3153 77.8673C59.3153 77.7927 59.295 77.7196 59.2566 77.6562C59.2182 77.5928 59.1633 77.5415 59.098 77.5082C59.0328 77.4749 58.9597 77.4607 58.887 77.4674C58.8143 77.4741 58.7448 77.5014 58.6864 77.5461L52.9006 80.9603C52.745 81.0624 52.6201 81.2064 52.5397 81.3764C52.4592 81.5465 52.4263 81.7359 52.4446 81.9239L53.2402 87.612C53.2402 87.6866 53.2605 87.7597 53.2989 87.8231C53.3373 87.8865 53.3922 87.9378 53.4575 87.9711C53.5228 88.0045 53.5958 88.0186 53.6685 88.0119C53.7412 88.0052 53.8107 87.9779 53.8691 87.9332L59.6518 84.5222C59.8095 84.4206 59.9361 84.2758 60.0172 84.1043C60.0984 83.9329 60.1308 83.7416 60.1109 83.5523Z" fill="#EBEBEB"/>
<path d="M69.0627 78.2881L68.2671 72.6C68.2671 72.5254 68.2468 72.4523 68.2084 72.3889C68.1701 72.3255 68.1152 72.2742 68.0499 72.2409C67.9846 72.2075 67.9115 72.1934 67.8388 72.2001C67.7661 72.2068 67.6966 72.2341 67.6382 72.2788L61.8304 75.6962C61.6743 75.7977 61.549 75.9417 61.4685 76.1118C61.388 76.282 61.3554 76.4717 61.3744 76.6597L62.17 82.3447C62.17 82.4193 62.1903 82.4923 62.2287 82.5558C62.2671 82.6192 62.322 82.6704 62.3873 82.7038C62.4526 82.7371 62.5257 82.7512 62.5984 82.7446C62.6711 82.7379 62.7405 82.7106 62.7989 82.6659L68.5816 79.2581C68.7428 79.1588 68.8734 79.0152 68.9585 78.8437C69.0436 78.6722 69.0797 78.4796 69.0627 78.2881Z" fill="#EBEBEB"/>
<path d="M77.9965 73.0207L77.201 67.3197C77.201 67.2451 77.1806 67.172 77.1423 67.1086C77.1039 67.0452 77.049 66.9939 76.9837 66.9606C76.9184 66.9272 76.8453 66.9131 76.7726 66.9198C76.6999 66.9265 76.6305 66.9538 76.5721 66.9985L70.7894 70.4095C70.6333 70.511 70.508 70.655 70.4275 70.8251C70.3469 70.9953 70.3144 71.185 70.3334 71.373L71.129 77.058C71.129 77.1325 71.1493 77.2056 71.1877 77.2691C71.2261 77.3325 71.281 77.3837 71.3463 77.4171C71.4115 77.4504 71.4846 77.4645 71.5573 77.4578C71.63 77.4511 71.6995 77.4239 71.7579 77.3792L77.5531 73.9778C77.7054 73.8747 77.8271 73.731 77.9053 73.5623C77.9834 73.3936 78.015 73.2064 77.9965 73.0207Z" fill="#EBEBEB"/>
<path d="M86.9401 67.7532L86.1446 62.0651C86.1446 61.9905 86.1242 61.9174 86.0859 61.854C86.0475 61.7906 85.9926 61.7393 85.9273 61.706C85.862 61.6726 85.7889 61.6585 85.7162 61.6652C85.6435 61.6719 85.5741 61.6991 85.5157 61.7439L79.733 65.1548C79.5769 65.2564 79.4516 65.4003 79.3711 65.5705C79.2905 65.7407 79.258 65.9304 79.277 66.1184L80.0694 71.8162C80.0694 71.8908 80.0898 71.9638 80.1281 72.0273C80.1665 72.0907 80.2214 72.142 80.2867 72.1753C80.352 72.2086 80.4251 72.2227 80.4978 72.2161C80.5705 72.2094 80.6399 72.1821 80.6983 72.1374L86.481 68.7264C86.639 68.6242 86.7657 68.4789 86.8468 68.3069C86.928 68.1349 86.9603 67.9431 86.9401 67.7532Z" fill="#EBEBEB"/>
<path d="M95.8826 62.502L95.087 56.8138C95.087 56.7393 95.0667 56.6662 95.0283 56.6028C94.9899 56.5393 94.935 56.4881 94.8697 56.4547C94.8044 56.4214 94.7313 56.4073 94.6586 56.414C94.5859 56.4207 94.5165 56.4479 94.4581 56.4926L88.6754 59.9036C88.5196 60.0054 88.3945 60.1494 88.314 60.3195C88.2335 60.4896 88.2008 60.6792 88.2195 60.8672L89.0119 66.5553C89.013 66.6294 89.034 66.7018 89.0726 66.7645C89.1113 66.8272 89.166 66.8779 89.2308 66.911C89.2957 66.9441 89.3682 66.9584 89.4405 66.9523C89.5128 66.9463 89.5821 66.92 89.6408 66.8765L95.4235 63.4656C95.5799 63.3641 95.7056 63.2204 95.7867 63.0502C95.8677 62.8801 95.9009 62.6903 95.8826 62.502Z" fill="#EBEBEB"/>
<path d="M40.6716 82.9583L39.8761 77.2765C39.8749 77.2025 39.8539 77.1301 39.8153 77.0674C39.7767 77.0047 39.722 76.954 39.6571 76.9209C39.5922 76.8878 39.5197 76.8735 39.4474 76.8795C39.3751 76.8856 39.3059 76.9118 39.2472 76.9554L33.4645 80.3663C33.3087 80.4681 33.1836 80.6121 33.1031 80.7822C33.0226 80.9523 32.9898 81.1419 33.0085 81.3299L33.8009 87.018C33.8021 87.0921 33.8231 87.1645 33.8617 87.2272C33.9003 87.2899 33.955 87.3406 34.0199 87.3737C34.0848 87.4068 34.1573 87.4211 34.2296 87.4151C34.3019 87.409 34.3711 87.3827 34.4298 87.3392L40.2125 83.9283C40.3689 83.8253 40.4945 83.6803 40.5755 83.5092C40.6565 83.338 40.6898 83.1474 40.6716 82.9583Z" fill="#906DDB"/>
<path d="M49.6152 77.6908L48.8197 72.0026C48.8185 71.9285 48.7975 71.8562 48.7589 71.7935C48.7203 71.7308 48.6656 71.6801 48.6007 71.647C48.5358 71.6138 48.4633 71.5995 48.391 71.6056C48.3187 71.6117 48.2495 71.6379 48.1908 71.6814L42.4081 75.0924C42.2523 75.1942 42.1272 75.3382 42.0467 75.5083C41.9662 75.6784 41.9335 75.868 41.9521 76.056L42.7445 81.7441C42.7457 81.8182 42.7667 81.8905 42.8053 81.9532C42.8439 82.016 42.8986 82.0666 42.9635 82.0998C43.0284 82.1329 43.1009 82.1472 43.1732 82.1411C43.2455 82.1351 43.3147 82.1088 43.3734 82.0653L49.1561 78.6543C49.3115 78.5519 49.4365 78.4079 49.5174 78.238C49.5983 78.0682 49.6322 77.8789 49.6152 77.6908Z" fill="#EBEBEB"/>
<path d="M58.5579 72.4235L57.7623 66.7353C57.7612 66.6612 57.7402 66.5889 57.7015 66.5262C57.6629 66.4634 57.6082 66.4128 57.5433 66.3796C57.4785 66.3465 57.4059 66.3322 57.3337 66.3383C57.2614 66.3444 57.1921 66.3706 57.1334 66.4141L51.3507 69.8251C51.1949 69.9269 51.0698 70.0709 50.9893 70.241C50.9088 70.4111 50.8761 70.6006 50.8948 70.7886L51.6872 76.4768C51.6883 76.5509 51.7093 76.6232 51.7479 76.6859C51.7865 76.7486 51.8413 76.7993 51.9061 76.8324C51.971 76.8656 52.0435 76.8799 52.1158 76.8738C52.1881 76.8677 52.2574 76.8415 52.3161 76.798L58.0988 73.387C58.2541 73.2845 58.3791 73.1406 58.46 72.9707C58.541 72.8008 58.5748 72.6116 58.5579 72.4235Z" fill="#EBEBEB"/>
<path d="M67.4899 67.1561L66.6943 61.4679C66.6932 61.3939 66.6722 61.3215 66.6336 61.2588C66.5949 61.1961 66.5402 61.1454 66.4754 61.1123C66.4105 61.0792 66.338 61.0649 66.2657 61.0709C66.1934 61.077 66.1241 61.1032 66.0654 61.1468L60.289 64.5642C60.1335 64.6662 60.0085 64.8103 59.9281 64.9803C59.8476 65.1503 59.8147 65.3398 59.8331 65.5277L60.6255 71.2159C60.6266 71.29 60.6476 71.3623 60.6862 71.425C60.7248 71.4877 60.7796 71.5384 60.8444 71.5715C60.9093 71.6047 60.9818 71.619 61.0541 71.6129C61.1264 71.6068 61.1957 71.5806 61.2544 71.5371L67.0371 68.1261C67.1926 68.0226 67.3171 67.8773 67.397 67.7061C67.4769 67.535 67.509 67.3447 67.4899 67.1561Z" fill="#EBEBEB"/>
<path d="M76.4432 61.8884L75.6476 56.2035C75.6476 56.1289 75.6273 56.0558 75.5889 55.9924C75.5505 55.929 75.4956 55.8777 75.4303 55.8444C75.365 55.811 75.2919 55.7969 75.2192 55.8036C75.1465 55.8103 75.0771 55.8376 75.0187 55.8823L69.2329 59.2901C69.0773 59.3921 68.9524 59.5362 68.8719 59.7062C68.7915 59.8762 68.7586 60.0657 68.7769 60.2536L69.5693 65.9418C69.5705 66.0159 69.5915 66.0882 69.6301 66.1509C69.6687 66.2136 69.7234 66.2643 69.7883 66.2974C69.8532 66.3306 69.9257 66.3449 69.998 66.3388C70.0703 66.3327 70.1395 66.3065 70.1982 66.263L75.9809 62.8456C76.1361 62.7443 76.2612 62.6016 76.3427 62.4328C76.4242 62.2641 76.4589 62.0759 76.4432 61.8884Z" fill="#EBEBEB"/>
<path d="M85.386 56.6211L84.5904 50.9393C84.5904 50.8648 84.5701 50.7917 84.5317 50.7283C84.4933 50.6648 84.4384 50.6136 84.3731 50.5802C84.3078 50.5469 84.2347 50.5328 84.162 50.5395C84.0893 50.5462 84.0199 50.5734 83.9615 50.6181L78.182 54.0323C78.0259 54.1339 77.9006 54.2778 77.82 54.448C77.7395 54.6182 77.7069 54.8079 77.726 54.9959L78.5184 60.6808C78.5195 60.7549 78.5406 60.8272 78.5792 60.8899C78.6178 60.9527 78.6725 61.0033 78.7374 61.0365C78.8023 61.0696 78.8748 61.0839 78.9471 61.0778C79.0194 61.0718 79.0886 61.0455 79.1473 61.002L84.93 57.591C85.0861 57.4879 85.2112 57.3428 85.2917 57.1716C85.3721 57.0005 85.4048 56.81 85.386 56.6211Z" fill="#EBEBEB"/>
<path d="M94.3286 51.3567L93.533 45.6686C93.533 45.594 93.5127 45.5209 93.4743 45.4575C93.4359 45.3941 93.381 45.3428 93.3157 45.3095C93.2504 45.2761 93.1773 45.262 93.1046 45.2687C93.0319 45.2754 92.9625 45.3027 92.9041 45.3474L87.1183 48.7584C86.963 48.8606 86.8386 49.0047 86.7586 49.1748C86.6787 49.3449 86.6465 49.5343 86.6655 49.7219L87.4579 55.4069C87.459 55.4809 87.48 55.5533 87.5186 55.616C87.5572 55.6787 87.612 55.7294 87.6768 55.7625C87.7417 55.7956 87.8142 55.8099 87.8865 55.8039C87.9588 55.7978 88.0281 55.7716 88.0868 55.7281L93.8695 52.3203C94.0246 52.2176 94.1493 52.0735 94.2302 51.9037C94.3111 51.7339 94.3451 51.5448 94.3286 51.3567Z" fill="#EBEBEB"/>
<path d="M39.1149 71.8165L38.3225 66.1283C38.3214 66.0543 38.3004 65.9819 38.2618 65.9192C38.2231 65.8565 38.1684 65.8058 38.1035 65.7727C38.0387 65.7396 37.9662 65.7253 37.8939 65.7313C37.8216 65.7374 37.7523 65.7636 37.6936 65.8072L31.9046 69.247C31.7496 69.3496 31.6251 69.4938 31.5447 69.6637C31.4643 69.8336 31.4311 70.0227 31.4487 70.2106L32.2442 75.8956C32.2442 75.9701 32.2646 76.0432 32.3029 76.1066C32.3413 76.17 32.3962 76.2213 32.4615 76.2546C32.5268 76.288 32.5999 76.3021 32.6726 76.2954C32.7453 76.2887 32.8147 76.2615 32.8731 76.2167L38.659 72.7801C38.8145 72.678 38.9394 72.534 39.0199 72.3639C39.1004 72.1939 39.1332 72.0044 39.1149 71.8165Z" fill="#906DDB"/>
<path d="M48.0583 66.5616L47.2659 60.8735C47.2648 60.7994 47.2438 60.7271 47.2052 60.6643C47.1666 60.6016 47.1118 60.551 47.047 60.5178C46.9821 60.4847 46.9096 60.4704 46.8373 60.4765C46.765 60.4825 46.6957 60.5088 46.637 60.5523L40.8543 63.9633C40.6993 64.0659 40.5748 64.21 40.4944 64.3799C40.414 64.5498 40.3808 64.739 40.3984 64.9268L41.1939 70.615C41.1951 70.689 41.2161 70.7614 41.2547 70.8241C41.2933 70.8868 41.348 70.9375 41.4129 70.9706C41.4778 71.0037 41.5503 71.0181 41.6226 71.012C41.6949 71.0059 41.7641 70.9797 41.8228 70.9362L47.6055 67.5252C47.7608 67.423 47.8853 67.2788 47.9652 67.1087C48.0451 66.9387 48.0774 66.7493 48.0583 66.5616Z" fill="#EBEBEB"/>
<path d="M57.0018 61.2943L56.2094 55.6061C56.2082 55.5321 56.1872 55.4597 56.1486 55.397C56.11 55.3343 56.0553 55.2836 55.9904 55.2505C55.9255 55.2174 55.853 55.2031 55.7807 55.2091C55.7084 55.2152 55.6392 55.2414 55.5805 55.2849L49.7978 58.6959C49.643 58.7988 49.5187 58.9429 49.4383 59.1128C49.3579 59.2826 49.3246 59.4717 49.3418 59.6595L50.1374 65.3476C50.1385 65.4217 50.1595 65.494 50.1981 65.5568C50.2368 65.6195 50.2915 65.6702 50.3564 65.7033C50.4212 65.7364 50.4938 65.7507 50.566 65.7446C50.6383 65.7386 50.7076 65.7123 50.7663 65.6688L56.549 62.2579C56.7042 62.1556 56.8287 62.0115 56.9086 61.8414C56.9885 61.6713 57.0208 61.482 57.0018 61.2943Z" fill="#EBEBEB"/>
<path d="M65.9444 56.0267L65.152 50.3386C65.1509 50.2645 65.1298 50.1921 65.0912 50.1294C65.0526 50.0667 64.9979 50.016 64.933 49.9829C64.8682 49.9498 64.7956 49.9355 64.7233 49.9415C64.6511 49.9476 64.5818 49.9739 64.5231 50.0174L58.7404 53.4283C58.5856 53.5312 58.4613 53.6754 58.3809 53.8452C58.3006 54.015 58.2672 54.2041 58.2845 54.3919L59.08 60.0801C59.0811 60.1541 59.1022 60.2265 59.1408 60.2892C59.1794 60.3519 59.2341 60.4026 59.299 60.4357C59.3638 60.4688 59.4364 60.4831 59.5087 60.4771C59.5809 60.471 59.6502 60.4448 59.7089 60.4012L65.4916 56.9903C65.6468 56.888 65.7713 56.7439 65.8512 56.5738C65.9312 56.4037 65.9634 56.2144 65.9444 56.0267Z" fill="#EBEBEB"/>
<path d="M74.8861 50.7596L74.0936 45.0715C74.0925 44.9974 74.0715 44.9251 74.0329 44.8623C73.9943 44.7996 73.9396 44.7489 73.8747 44.7158C73.8098 44.6827 73.7373 44.6684 73.665 44.6745C73.5927 44.6805 73.5234 44.7068 73.4648 44.7503L67.6821 48.1613C67.5273 48.2641 67.4029 48.4083 67.3226 48.5781C67.2422 48.7479 67.2089 48.937 67.2261 49.1248L68.0217 54.813C68.0228 54.887 68.0438 54.9594 68.0824 55.0221C68.121 55.0848 68.1758 55.1355 68.2406 55.1686C68.3055 55.2017 68.378 55.2161 68.4503 55.21C68.5226 55.2039 68.5919 55.1777 68.6506 55.1342L74.4332 51.7232C74.5885 51.621 74.713 51.4768 74.7929 51.3067C74.8728 51.1366 74.9051 50.9473 74.8861 50.7596Z" fill="#EBEBEB"/>
<path d="M83.8419 45.4791L83.0494 39.7909C83.0483 39.7169 83.0273 39.6445 82.9887 39.5818C82.9501 39.5191 82.8953 39.4684 82.8305 39.4353C82.7656 39.4022 82.6931 39.3879 82.6208 39.3939C82.5485 39.4 82.4792 39.4262 82.4206 39.4698L76.6096 42.9096C76.4548 43.0125 76.3304 43.1567 76.2501 43.3265C76.1697 43.4963 76.1363 43.6854 76.1536 43.8732L76.9492 49.5614C76.9503 49.6354 76.9713 49.7078 77.0099 49.7705C77.0485 49.8332 77.1033 49.8839 77.1681 49.917C77.233 49.9501 77.3055 49.9644 77.3778 49.9584C77.4501 49.9523 77.5194 49.9261 77.578 49.8825L83.3733 46.4427C83.5317 46.3428 83.6596 46.1996 83.7424 46.0293C83.8252 45.859 83.8596 45.6684 83.8419 45.4791Z" fill="#EBEBEB"/>
<path d="M92.7727 40.2247L91.9803 34.5397C91.9792 34.4657 91.9581 34.3933 91.9195 34.3306C91.8809 34.2679 91.8262 34.2172 91.7613 34.1841C91.6965 34.151 91.6239 34.1366 91.5516 34.1427C91.4794 34.1488 91.4101 34.175 91.3514 34.2185L85.5687 37.6263C85.4136 37.7289 85.2891 37.873 85.2087 38.0429C85.1283 38.2128 85.0951 38.402 85.1128 38.5899L85.9083 44.278C85.9094 44.3521 85.9305 44.4244 85.9691 44.4871C86.0077 44.5499 86.0624 44.6005 86.1273 44.6337C86.1921 44.6668 86.2647 44.6811 86.337 44.675C86.4092 44.6689 86.4785 44.6427 86.5372 44.5992L92.3325 41.1818C92.4846 41.0787 92.6061 40.935 92.6838 40.7662C92.7614 40.5974 92.7922 40.4101 92.7727 40.2247Z" fill="#EBEBEB"/>
<path d="M37.5609 60.697L36.7653 55.0121C36.7653 54.9375 36.745 54.8644 36.7066 54.801C36.6682 54.7376 36.6133 54.6863 36.548 54.653C36.4827 54.6196 36.4096 54.6055 36.3369 54.6122C36.2642 54.6189 36.1948 54.6462 36.1364 54.6909L30.3537 58.0987C30.1982 58.2007 30.0732 58.3448 29.9928 58.5148C29.9123 58.6848 29.8794 58.8743 29.8978 59.0622L30.6996 64.7504C30.6996 64.8249 30.7199 64.898 30.7583 64.9614C30.7967 65.0249 30.8516 65.0761 30.9169 65.1095C30.9822 65.1428 31.0553 65.1569 31.128 65.1502C31.2007 65.1435 31.2701 65.1163 31.3285 65.0716L37.1112 61.6606C37.2661 61.5582 37.3902 61.4139 37.4696 61.2438C37.5489 61.0737 37.5806 60.8844 37.5609 60.697Z" fill="#906DDB"/>
<path d="M46.5048 55.436L45.7093 49.7511C45.7093 49.6765 45.6889 49.6034 45.6506 49.54C45.6122 49.4766 45.5573 49.4253 45.492 49.392C45.4267 49.3586 45.3536 49.3445 45.2809 49.3512C45.2082 49.3579 45.1388 49.3852 45.0804 49.4299L39.2977 52.8409C39.1416 52.9424 39.0163 53.0864 38.9358 53.2565C38.8552 53.4267 38.8227 53.6164 38.8417 53.8044L39.6373 59.4894C39.6373 59.5639 39.6576 59.637 39.696 59.7005C39.7344 59.7639 39.7893 59.8151 39.8546 59.8485C39.9198 59.8818 39.9929 59.8959 40.0656 59.8892C40.1383 59.8825 40.2078 59.8553 40.2662 59.8106L46.0489 56.3996C46.2049 56.298 46.3303 56.1541 46.4108 55.9839C46.4913 55.8138 46.5239 55.6241 46.5048 55.436Z" fill="#EBEBEB"/>
<path d="M55.4474 50.1653L54.6519 44.4772C54.6519 44.4026 54.6316 44.3295 54.5932 44.2661C54.5548 44.2027 54.4999 44.1514 54.4346 44.1181C54.3693 44.0847 54.2962 44.0706 54.2235 44.0773C54.1508 44.084 54.0814 44.1112 54.023 44.156L48.2403 47.567C48.0842 47.6685 47.9589 47.8124 47.8784 47.9826C47.7979 48.1528 47.7653 48.3425 47.7844 48.5305L48.5799 54.2155C48.5799 54.29 48.6002 54.3631 48.6386 54.4265C48.677 54.49 48.7319 54.5412 48.7972 54.5746C48.8625 54.6079 48.9356 54.622 49.0083 54.6153C49.081 54.6086 49.1504 54.5814 49.2088 54.5366L54.9915 51.1289C55.1471 51.0268 55.272 50.8828 55.3524 50.7127C55.4329 50.5427 55.4658 50.3533 55.4474 50.1653Z" fill="#EBEBEB"/>
<path d="M64.3903 44.8978L63.5948 39.2096C63.5948 39.135 63.5744 39.0619 63.5361 38.9985C63.4977 38.9351 63.4428 38.8838 63.3775 38.8505C63.3122 38.8171 63.2391 38.803 63.1664 38.8097C63.0937 38.8164 63.0243 38.8437 62.9659 38.8884L57.1832 42.2994C57.0271 42.4009 56.9018 42.5448 56.8213 42.715C56.7407 42.8852 56.7082 43.0749 56.7272 43.2629L57.5196 48.9511C57.5208 49.0252 57.5418 49.0975 57.5804 49.1602C57.619 49.2229 57.6737 49.2736 57.7386 49.3067C57.8035 49.3399 57.876 49.3542 57.9483 49.3481C58.0206 49.342 58.0898 49.3158 58.1485 49.2723L63.9312 45.8613C64.0874 45.7596 64.2129 45.6158 64.2939 45.4457C64.375 45.2757 64.4083 45.086 64.3903 44.8978Z" fill="#EBEBEB"/>
<path d="M73.3339 39.6304L72.5384 33.9423C72.5384 33.8677 72.518 33.7946 72.4797 33.7312C72.4413 33.6678 72.3864 33.6165 72.3211 33.5832C72.2558 33.5498 72.1827 33.5357 72.11 33.5424C72.0373 33.5491 71.9679 33.5763 71.9095 33.6211L66.1268 37.032C65.9707 37.1336 65.8454 37.2775 65.7649 37.4477C65.6843 37.6179 65.6518 37.8076 65.6708 37.9956L66.4632 43.6838C66.4644 43.7578 66.4854 43.8302 66.524 43.8929C66.5626 43.9556 66.6173 44.0063 66.6822 44.0394C66.7471 44.0725 66.8196 44.0868 66.8919 44.0808C66.9642 44.0747 67.0334 44.0485 67.0921 44.0049L72.8748 40.594C73.0312 40.4926 73.157 40.3488 73.238 40.1786C73.3191 40.0085 73.3523 39.8187 73.3339 39.6304Z" fill="#EBEBEB"/>
<path d="M82.2693 34.3628L81.4737 28.6747C81.4737 28.6001 81.4534 28.527 81.415 28.4636C81.3767 28.4002 81.3217 28.3489 81.2565 28.3156C81.1912 28.2822 81.1181 28.2681 81.0454 28.2748C80.9727 28.2815 80.9032 28.3088 80.8448 28.3535L75.0621 31.7645C74.9063 31.8663 74.7812 32.0103 74.7007 32.1804C74.6202 32.3505 74.5875 32.54 74.6062 32.728L75.4017 38.413C75.4029 38.487 75.4239 38.5594 75.4625 38.6221C75.5011 38.6848 75.5558 38.7355 75.6207 38.7686C75.6856 38.8017 75.7581 38.8161 75.8304 38.81C75.9027 38.8039 75.9719 38.7777 76.0306 38.7342L81.8133 35.3232C81.9686 35.2216 82.0934 35.0782 82.1739 34.9087C82.2544 34.7392 82.2874 34.5503 82.2693 34.3628Z" fill="#EBEBEB"/>
<path d="M91.219 29.0987L90.4234 23.4105C90.4234 23.336 90.4031 23.2629 90.3647 23.1994C90.3264 23.136 90.2714 23.0848 90.2062 23.0514C90.1409 23.0181 90.0678 23.004 89.9951 23.0107C89.9224 23.0174 89.8529 23.0446 89.7945 23.0893L84.0119 26.5003C83.856 26.6021 83.7309 26.7461 83.6504 26.9162C83.5699 27.0863 83.5372 27.2759 83.5559 27.4639L84.3483 33.152C84.3494 33.2261 84.3705 33.2984 84.4091 33.3611C84.4477 33.4239 84.5024 33.4745 84.5673 33.5077C84.6321 33.5408 84.7047 33.5551 84.777 33.549C84.8492 33.5429 84.9185 33.5167 84.9772 33.4732L90.7599 30.0622C90.9163 29.9608 91.042 29.817 91.1231 29.6469C91.2042 29.4768 91.2374 29.287 91.219 29.0987Z" fill="#EBEBEB"/>
<path d="M36.1872 50.6438L35.9859 49.192C35.9859 49.1174 35.9656 49.0444 35.9272 48.9809C35.8888 48.9175 35.8339 48.8663 35.7686 48.8329C35.7033 48.7996 35.6302 48.7855 35.5575 48.7921C35.4848 48.7988 35.4154 48.8261 35.357 48.8708L29.5712 52.2882C29.4154 52.39 29.2902 52.534 29.2098 52.7041C29.1293 52.8742 29.0965 53.0638 29.1152 53.2518L29.3133 54.7035C29.3145 54.7776 29.3355 54.8499 29.3741 54.9126C29.4127 54.9754 29.4674 55.026 29.5323 55.0592C29.5972 55.0923 29.6697 55.1066 29.742 55.1005C29.8143 55.0945 29.8835 55.0682 29.9422 55.0247L35.7312 51.6009C35.8853 51.4988 36.0091 51.3557 36.0895 51.1871C36.1698 51.0184 36.2036 50.8306 36.1872 50.6438Z" fill="#E6E6E6"/>
<path d="M45.1298 45.3764L44.9285 43.9247C44.9285 43.8501 44.9082 43.777 44.8698 43.7136C44.8315 43.6502 44.7766 43.5989 44.7113 43.5656C44.646 43.5322 44.5729 43.5181 44.5002 43.5248C44.4275 43.5315 44.358 43.5588 44.2996 43.6035L38.5138 47.0209C38.358 47.1227 38.2329 47.2667 38.1524 47.4368C38.0719 47.6069 38.0392 47.7965 38.0579 47.9844L38.256 49.4362C38.2571 49.5103 38.2781 49.5826 38.3167 49.6453C38.3553 49.708 38.4101 49.7587 38.4749 49.7918C38.5398 49.825 38.6123 49.8393 38.6846 49.8332C38.7569 49.8271 38.8262 49.8009 38.8849 49.7574L44.6707 46.3464C44.8273 46.2437 44.9531 46.0987 45.0341 45.9275C45.1152 45.7564 45.1483 45.5656 45.1298 45.3764Z" fill="#E6E6E6"/>
<path d="M54.0734 40.1089L53.8721 38.6572C53.871 38.5831 53.85 38.5107 53.8114 38.448C53.7728 38.3853 53.718 38.3346 53.6532 38.3015C53.5883 38.2684 53.5158 38.2541 53.4435 38.2602C53.3712 38.2662 53.3019 38.2925 53.2432 38.336L47.4574 41.7534C47.3016 41.8552 47.1765 41.9992 47.096 42.1693C47.0155 42.3394 46.9828 42.5289 47.0015 42.7169L47.1996 44.1687C47.1996 44.2432 47.2199 44.3163 47.2583 44.3797C47.2966 44.4432 47.3515 44.4944 47.4168 44.5278C47.4821 44.5611 47.5552 44.5752 47.6279 44.5685C47.7006 44.5618 47.7701 44.5346 47.8285 44.4899L53.6143 41.0789C53.7709 40.9762 53.8967 40.8312 53.9778 40.66C54.0588 40.4888 54.0919 40.2981 54.0734 40.1089Z" fill="#E6E6E6"/>
<path d="M63.016 34.8445L62.8148 33.3896C62.8136 33.3155 62.7926 33.2432 62.754 33.1805C62.7154 33.1177 62.6607 33.0671 62.5958 33.0339C62.5309 33.0008 62.4584 32.9865 62.3861 32.9926C62.3138 32.9987 62.2446 33.0249 62.1859 33.0684L56.4 36.4858C56.2442 36.5876 56.1191 36.7316 56.0386 36.9017C55.9581 37.0718 55.9254 37.2614 55.9441 37.4493L56.1422 38.9011C56.1422 38.9757 56.1625 39.0487 56.2009 39.1122C56.2393 39.1756 56.2942 39.2268 56.3595 39.2602C56.4248 39.2935 56.4978 39.3077 56.5705 39.301C56.6432 39.2943 56.7127 39.267 56.7711 39.2223L62.5569 35.8145C62.7131 35.7113 62.8384 35.5662 62.9194 35.3952C63.0004 35.2241 63.0338 35.0337 63.016 34.8445Z" fill="#E6E6E6"/>
<path d="M71.9597 29.5775L71.7584 28.1225C71.7573 28.0484 71.7363 27.9761 71.6977 27.9134C71.6591 27.8507 71.6043 27.8 71.5395 27.7668C71.4746 27.7337 71.4021 27.7194 71.3298 27.7255C71.2575 27.7316 71.1882 27.7578 71.1295 27.8013L65.3437 31.2187C65.1881 31.3208 65.0632 31.4648 64.9828 31.6348C64.9023 31.8049 64.8694 31.9943 64.8878 32.1823L65.0859 33.634C65.0859 33.7086 65.1062 33.7816 65.1446 33.8451C65.1829 33.9085 65.2378 33.9598 65.3031 33.9931C65.3684 34.0264 65.4415 34.0406 65.5142 34.0339C65.5869 34.0272 65.6564 33.9999 65.7148 33.9552L71.5006 30.5474C71.6567 30.4442 71.7821 30.2991 71.8631 30.1281C71.944 29.957 71.9774 29.7666 71.9597 29.5775Z" fill="#E6E6E6"/>
<path d="M80.9023 24.31L80.7011 22.8583C80.7011 22.7837 80.6807 22.7106 80.6424 22.6472C80.604 22.5838 80.5491 22.5325 80.4838 22.4992C80.4185 22.4658 80.3454 22.4517 80.2727 22.4584C80.2 22.4651 80.1306 22.4923 80.0722 22.5371L74.2863 25.9513C74.1308 26.0534 74.0059 26.1974 73.9254 26.3674C73.8449 26.5374 73.8121 26.7269 73.8304 26.9148L74.0285 28.3698C74.0296 28.4439 74.0506 28.5162 74.0892 28.5789C74.1279 28.6416 74.1826 28.6923 74.2474 28.7254C74.3123 28.7586 74.3849 28.7729 74.4571 28.7668C74.5294 28.7607 74.5987 28.7345 74.6574 28.691L80.4432 25.28C80.5996 25.177 80.7252 25.032 80.8062 24.8609C80.8872 24.6898 80.9204 24.4992 80.9023 24.31Z" fill="#E6E6E6"/>
<path d="M89.8419 19.0427L89.6438 17.5909C89.6438 17.5164 89.6235 17.4433 89.5851 17.3799C89.5468 17.3164 89.4918 17.2652 89.4266 17.2318C89.3613 17.1985 89.2882 17.1844 89.2155 17.1911C89.1428 17.1978 89.0733 17.225 89.0149 17.2697L83.2322 20.6807C83.0762 20.7823 82.9509 20.9262 82.8703 21.0964C82.7898 21.2666 82.7572 21.4563 82.7763 21.6443L82.9744 23.096C82.9755 23.1701 82.9965 23.2424 83.0352 23.3051C83.0738 23.3679 83.1285 23.4185 83.1934 23.4517C83.2582 23.4848 83.3308 23.4991 83.403 23.493C83.4753 23.487 83.5446 23.4607 83.6033 23.4172L89.3891 20.0062C89.5441 19.9037 89.6684 19.7596 89.7483 19.5895C89.8282 19.4195 89.8606 19.2303 89.8419 19.0427Z" fill="#E6E6E6"/>
<path opacity="0.2" d="M29.4431 42.0683C29.4146 41.6439 29.5004 41.2197 29.6911 40.8415C29.8817 40.4633 30.17 40.1456 30.5248 39.9228C31.2291 39.5085 31.8863 39.7943 31.9964 40.5652C32.0256 40.99 31.9398 41.4149 31.7485 41.7933C31.5571 42.1717 31.2676 42.489 30.9115 42.7107C30.2103 43.125 29.5531 42.8391 29.4431 42.0683Z" fill="black"/>
<path opacity="0.2" d="M38.3952 36.8072C38.3661 36.3827 38.4515 35.9582 38.6423 35.5799C38.833 35.2016 39.1217 34.884 39.4769 34.6617C40.1813 34.2441 40.8385 34.53 40.9485 35.304C40.9775 35.7284 40.8916 36.1527 40.7003 36.5306C40.5089 36.9084 40.2195 37.2252 39.8637 37.4463C39.1593 37.8478 38.5021 37.562 38.3952 36.8072Z" fill="black"/>
<path opacity="0.2" d="M47.3286 31.5237C47.2994 31.0992 47.3849 30.6747 47.5756 30.2964C47.7663 29.9181 48.055 29.6005 48.4103 29.3782C49.1146 28.9607 49.775 29.2465 49.8819 30.0206C49.9108 30.4446 49.8252 30.8686 49.6345 31.2463C49.4438 31.6241 49.1552 31.9411 48.8002 32.1629C48.0958 32.5772 47.4355 32.2914 47.3286 31.5237Z" fill="black"/>
<path opacity="0.2" d="M65.2077 20.9792C65.1786 20.5547 65.264 20.1302 65.4548 19.7519C65.6455 19.3736 65.9342 19.056 66.2894 18.8337C66.9938 18.4193 67.651 18.7052 67.7579 19.476C67.7885 19.9007 67.7036 20.3258 67.5128 20.7043C67.3219 21.0829 67.0324 21.4003 66.6762 21.6215C65.9718 22.0327 65.3146 21.75 65.2077 20.9792Z" fill="black"/>
<path opacity="0.2" d="M74.1577 15.7054C74.1278 15.2808 74.213 14.856 74.4038 14.4776C74.5946 14.0991 74.8837 13.7816 75.2394 13.5599C75.9438 13.1423 76.6009 13.4282 76.711 14.2022C76.7402 14.6271 76.6544 15.0519 76.4631 15.4303C76.2718 15.8087 75.9822 16.1261 75.6262 16.3477C74.9218 16.7589 74.2646 16.473 74.1577 15.7054Z" fill="black"/>
<path opacity="0.2" d="M83.091 10.4346C83.0619 10.0101 83.1473 9.58562 83.3381 9.20731C83.5288 8.82901 83.8175 8.51141 84.1727 8.28911C84.8771 7.87157 85.5374 8.15742 85.6444 8.93147C85.6733 9.35548 85.5877 9.77946 85.3969 10.1572C85.2062 10.535 84.9176 10.852 84.5627 11.0738C83.8426 11.4881 83.2137 11.2022 83.091 10.4346Z" fill="black"/>
<path d="M28.518 33.3897C27.5747 32.8276 26.6502 32.7473 25.9458 33.1616C25.2415 33.576 24.8516 34.4239 24.8516 35.5513C24.8577 36.0786 24.9339 36.6026 25.078 37.109L25.6377 36.7878C25.5372 36.3857 25.4844 35.9727 25.4805 35.5577C25.4805 34.6712 25.7572 34.0192 26.2603 33.7237C26.4667 33.606 26.7 33.5461 26.9364 33.5503C27.3823 33.572 27.8154 33.7102 28.1941 33.9518C29.867 34.941 31.2286 37.3499 31.2286 39.322C31.2295 39.4625 31.2221 39.603 31.2066 39.7427C31.1989 40.0224 31.1265 40.2962 30.9953 40.5418C30.8641 40.7875 30.6779 40.9979 30.4519 41.1559C30.1636 41.3149 29.831 41.3693 29.5085 41.3101C29.4451 41.5177 29.4184 41.7353 29.4299 41.9524C29.5475 41.9715 29.6663 41.9812 29.7852 41.9814C30.1316 41.9858 30.4726 41.8948 30.7726 41.718C31.0534 41.5382 31.2913 41.2967 31.4692 41.0111C31.647 40.7255 31.7604 40.403 31.8009 40.0671C31.8432 39.8232 31.8643 39.576 31.8637 39.3284C31.8669 37.1283 30.3638 34.4785 28.518 33.3897Z" fill="#F5F5F5"/>
<path d="M37.4677 28.116C36.5244 27.5539 35.5999 27.4736 34.8955 27.888C34.1912 28.3023 33.8013 29.1502 33.8013 30.2776C33.8074 30.8049 33.8836 31.3289 34.0277 31.8353L34.5874 31.5141C34.4869 31.112 34.4341 30.699 34.4302 30.284C34.4302 29.3975 34.7069 28.7455 35.21 28.45C35.4164 28.3323 35.6497 28.2725 35.8861 28.2766C36.332 28.2983 36.7651 28.4366 37.1439 28.6781C38.8167 29.6673 40.1783 32.0762 40.1783 34.0483C40.1792 34.1888 40.1719 34.3293 40.1563 34.469C40.1486 34.7487 40.0762 35.0225 39.945 35.2682C39.8138 35.5138 39.6276 35.7242 39.4016 35.8822C39.1133 36.0413 38.7807 36.0956 38.4582 36.0364C38.3948 36.244 38.3681 36.4616 38.3796 36.6788C38.4972 36.6978 38.616 36.7075 38.735 36.7077C39.0813 36.7121 39.4223 36.6211 39.7223 36.4443C40.0031 36.2645 40.241 36.023 40.4189 35.7374C40.5968 35.4518 40.7101 35.1293 40.7506 34.7934C40.7929 34.5496 40.814 34.3023 40.8135 34.0547C40.8166 31.8642 39.3135 29.2048 37.4677 28.116Z" fill="#F5F5F5"/>
<path d="M46.4003 22.8455C45.457 22.2834 44.5325 22.2031 43.8282 22.6175C43.1238 23.0318 42.7339 23.8797 42.7339 25.0071C42.74 25.5344 42.8162 26.0584 42.9603 26.5648L43.52 26.2436C43.4195 25.8415 43.3667 25.4285 43.3628 25.0135C43.3628 24.127 43.6395 23.475 44.1426 23.1795C44.349 23.0618 44.5823 23.0019 44.8187 23.0061C45.2647 23.0278 45.6977 23.166 46.0765 23.4076C47.7493 24.3968 49.1109 26.8057 49.1109 28.7778C49.1118 28.9183 49.1045 29.0588 49.0889 29.1985C49.0812 29.4782 49.0088 29.752 48.8776 29.9976C48.7465 30.2433 48.5602 30.4537 48.3342 30.6117C48.0459 30.7708 47.7133 30.8251 47.3909 30.7659C47.3274 30.9735 47.3007 31.1911 47.3122 31.4083C47.4298 31.4273 47.5486 31.437 47.6676 31.4372C48.0139 31.4416 48.355 31.3506 48.6549 31.1738C48.9357 30.994 49.1736 30.7525 49.3515 30.4669C49.5294 30.1813 49.6427 29.8588 49.6832 29.5229C49.7256 29.2791 49.7466 29.0318 49.7461 28.7842C49.7492 26.5937 48.2462 23.9343 46.4003 22.8455Z" fill="#F5F5F5"/>
<path d="M64.2836 12.3169C63.3403 11.7549 62.4158 11.6746 61.7115 12.0889C61.0071 12.5032 60.6172 13.3511 60.6172 14.4785C60.6233 15.0058 60.6995 15.5298 60.8436 16.0362L61.4033 15.7151C61.3028 15.3129 61.25 14.8999 61.2461 14.4849C61.2461 13.5985 61.5228 12.9464 62.0259 12.651C62.2323 12.5332 62.4656 12.4734 62.702 12.4775C63.148 12.4993 63.581 12.6375 63.9598 12.879C65.6326 13.8682 66.9942 16.2771 66.9942 18.2492C66.9951 18.3898 66.9878 18.5303 66.9722 18.6699C66.9645 18.9496 66.8921 19.2235 66.7609 19.4691C66.6298 19.7147 66.4435 19.9251 66.2175 20.0832C65.9292 20.2422 65.5966 20.2965 65.2742 20.2373C65.2107 20.4449 65.1841 20.6625 65.1956 20.8797C65.3131 20.8988 65.4319 20.9084 65.5509 20.9086C65.8972 20.913 66.2383 20.822 66.5382 20.6452C66.819 20.4654 67.0569 20.2239 67.2348 19.9383C67.4127 19.6528 67.526 19.3303 67.5665 18.9943C67.6089 18.7505 67.6299 18.5033 67.6294 18.2556C67.6325 16.0651 66.1295 13.4057 64.2836 12.3169Z" fill="#F5F5F5"/>
<path d="M73.2324 7.04007C72.289 6.478 71.3646 6.39771 70.6602 6.81203C69.9558 7.22636 69.5659 8.07429 69.5659 9.20164C69.5721 9.72896 69.6482 10.253 69.7923 10.7594L70.352 10.4382C70.2516 10.0361 70.1988 9.62306 70.1948 9.20806C70.1948 8.3216 70.4715 7.66959 70.9746 7.3741C71.1811 7.25637 71.4143 7.19653 71.6507 7.20066C72.0967 7.2224 72.5298 7.36063 72.9085 7.60214C74.5814 8.59139 75.9429 11.0003 75.9429 12.9723C75.9439 13.1129 75.9365 13.2534 75.9209 13.3931C75.9132 13.6728 75.8408 13.9466 75.7096 14.1922C75.5785 14.4378 75.3923 14.6483 75.1662 14.8063C74.878 14.9653 74.5454 15.0197 74.2229 14.9605C74.1594 15.1681 74.1328 15.3856 74.1443 15.6028C74.2618 15.6219 74.3806 15.6316 74.4996 15.6317C74.8459 15.6361 75.187 15.5452 75.487 15.3684C75.7677 15.1885 76.0057 14.9471 76.1835 14.6615C76.3614 14.3759 76.4747 14.0534 76.5152 13.7175C76.5576 13.4736 76.5786 13.2264 76.5781 12.9788C76.5812 10.7915 75.0782 8.12889 73.2324 7.04007Z" fill="#F5F5F5"/>
<path d="M82.1659 1.76932C81.2226 1.20725 80.2981 1.12695 79.5938 1.54128C78.8894 1.95561 78.4963 2.80353 78.4963 3.93089C78.5025 4.45821 78.5786 4.98223 78.7227 5.48863L79.2825 5.16745C79.182 4.76532 79.1292 4.35231 79.1252 3.93731C79.1252 3.05085 79.402 2.39884 79.9051 2.10335C80.1115 1.98561 80.3447 1.92577 80.5811 1.92991C81.0271 1.95164 81.4602 2.08988 81.8389 2.33139C83.5118 3.32064 84.8733 5.72952 84.8733 7.70159C84.8743 7.84216 84.8669 7.98267 84.8513 8.12234C84.8436 8.40201 84.7712 8.67585 84.6401 8.92147C84.5089 9.1671 84.3227 9.37752 84.0967 9.53555C83.8084 9.69458 83.4758 9.74894 83.1533 9.68972C83.0898 9.89734 83.0632 10.1149 83.0747 10.3321C83.1922 10.3512 83.311 10.3608 83.43 10.361C83.7763 10.3654 84.1174 10.2744 84.4174 10.0976C84.6981 9.91779 84.9361 9.67631 85.114 9.39073C85.2918 9.10515 85.4051 8.78267 85.4456 8.44673C85.488 8.20289 85.509 7.95567 85.5085 7.70801C85.5148 5.51754 84.0118 2.85813 82.1659 1.76932Z" fill="#F5F5F5"/>
<path d="M91.4572 85.3059L89.3441 89.0541C89.2053 89.2883 89.1632 89.5693 89.2272 89.8353C89.2912 90.1012 89.456 90.3303 89.6853 90.4721C89.9147 90.6139 90.1898 90.6569 90.4501 90.5915C90.7105 90.5262 90.9348 90.3579 91.0736 90.1236L93.1993 86.3529C93.4037 85.9932 93.1836 85.4697 92.7056 85.187C92.2276 84.9044 91.6616 84.9558 91.4572 85.3059Z" fill="#455A64"/>
<path d="M108.275 78.7058L111.945 80.8642C112.058 80.9355 112.183 80.9832 112.314 81.0045C112.445 81.0257 112.579 81.0202 112.708 80.9881C112.837 80.956 112.958 80.898 113.065 80.8175C113.172 80.7371 113.262 80.6357 113.33 80.5194C113.398 80.403 113.442 80.274 113.461 80.1399C113.48 80.0057 113.472 79.8691 113.439 79.738C113.405 79.6069 113.346 79.4839 113.266 79.3761C113.185 79.2684 113.085 79.1781 112.97 79.1105L109.278 76.9554C108.926 76.7466 108.413 76.9715 108.137 77.4597C107.86 77.9479 107.923 78.4971 108.275 78.7058Z" fill="#455A64"/>
<path d="M112.341 61.8081H112.322L103.382 56.5375H103.357C101.395 55.3973 98.6906 55.5739 95.7065 57.3276C89.71 60.8606 84.8486 69.4651 84.8486 76.5376C84.8486 80.0706 86.0593 82.5405 88.012 83.7032H88.0277L96.9674 88.977H96.9895C98.9516 90.1237 101.659 89.9406 104.646 88.1902C110.64 84.6571 115.501 76.0526 115.501 68.9833C115.501 65.4503 114.294 62.9708 112.341 61.8081Z" fill="#906DDB"/>
<path opacity="0.1" d="M96.822 88.8713L88.0174 83.6874H87.9986C86.0459 82.5215 84.8384 80.042 84.8384 76.5218C84.8384 73.3678 85.8069 69.9118 87.4074 66.7385L96.3472 72.0092C94.7435 75.1825 93.7781 78.6384 93.7781 81.7924C93.7844 85.2291 94.9416 87.6765 96.822 88.8713Z" fill="black"/>
<path opacity="0.4" d="M112.323 79.9028C116.563 72.4016 116.563 64.2938 112.323 61.7935C108.083 59.2933 101.209 63.3474 96.9692 70.8487C92.7292 78.3499 92.729 86.4578 96.9687 88.958C101.208 91.4582 108.083 87.4041 112.323 79.9028Z" fill="white"/>
<path d="M99.7933 87.4485C96.3596 87.4485 95.9885 83.4851 95.9885 81.7796C95.9885 75.5422 100.457 67.6475 105.736 64.5192C107.082 63.7259 108.378 63.3083 109.485 63.3083C112.918 63.3083 113.289 67.2718 113.289 68.9772C113.289 75.2146 108.821 83.1093 103.542 86.2377C102.193 87.031 100.897 87.4485 99.7933 87.4485Z" fill="#FAFAFA"/>
<path d="M102.237 82.6049C102.22 82.608 102.203 82.608 102.186 82.6049C102.147 82.5903 102.115 82.5607 102.097 82.5223C102.079 82.4839 102.076 82.4398 102.089 82.3993L104.494 75.3815C104.508 75.341 104.537 75.3078 104.575 75.2891C104.613 75.2704 104.656 75.2678 104.696 75.2819C104.735 75.2959 104.768 75.3255 104.786 75.3641C104.804 75.4026 104.807 75.447 104.793 75.4874L102.394 82.4957C102.384 82.5292 102.362 82.5582 102.334 82.578C102.305 82.5978 102.271 82.6073 102.237 82.6049Z" fill="#906DDB"/>
<path d="M108.25 77.498C108.186 77.4992 108.123 77.486 108.065 77.4595L104.175 75.7411V68.5338C104.175 68.406 104.224 68.2835 104.313 68.1931C104.401 68.1028 104.521 68.052 104.646 68.052C104.772 68.052 104.892 68.1028 104.98 68.1931C105.068 68.2835 105.118 68.406 105.118 68.5338V75.1084L108.439 76.5762C108.537 76.621 108.618 76.6989 108.667 76.7969C108.716 76.8949 108.73 77.0071 108.708 77.1148C108.686 77.2226 108.629 77.3194 108.545 77.3891C108.462 77.4588 108.358 77.4972 108.25 77.498Z" fill="#37474F"/>
<path d="M104.647 73.8718C105.351 73.4543 105.923 73.7915 105.923 74.6234C105.897 75.0739 105.768 75.5119 105.546 75.9023C105.324 76.2928 105.016 76.6247 104.647 76.8717C103.939 77.2892 103.367 76.952 103.367 76.1169C103.394 75.6666 103.524 75.2291 103.746 74.8392C103.968 74.4494 104.276 74.1181 104.647 73.8718Z" fill="#906DDB"/>
<path d="M94.2559 68.7007C92.7151 71.4211 89.8127 72.6545 87.6305 71.3666C86.3503 70.6106 85.4166 69.3661 85.0348 67.9069C84.653 66.4478 84.8543 64.8934 85.5944 63.5859C86.3346 62.2783 87.5529 61.3246 88.9815 60.9346C90.41 60.5446 91.9318 60.7502 93.2119 61.5062C95.3879 62.8231 95.7904 65.9771 94.2559 68.7007Z" fill="#455A64"/>
<path d="M87.632 71.3668C89.8143 72.6515 92.7166 71.4214 94.2574 68.7009C94.6016 68.0911 94.8569 67.4332 95.0153 66.7481C94.9272 66.867 92.3613 70.2073 89.1728 69.2662C85.9277 68.3027 85.3177 65.7557 85.5975 63.5845C85.2307 64.2319 84.9923 64.9468 84.8961 65.6883C84.7998 66.4298 84.8475 67.1834 85.0364 67.9061C85.2253 68.6288 85.5518 69.3064 85.9972 69.9002C86.4425 70.494 86.998 70.9923 87.632 71.3668Z" fill="#37474F"/>
<path d="M86.735 63.0318L85.081 62.0682C84.9682 61.9969 84.8426 61.9492 84.7116 61.9279C84.5805 61.9067 84.4467 61.9122 84.3178 61.9443C84.1889 61.9764 84.0676 62.0344 83.9608 62.1149C83.8541 62.1953 83.7641 62.2967 83.6961 62.413C83.6281 62.5294 83.5834 62.6584 83.5647 62.7925C83.546 62.9267 83.5536 63.0633 83.5871 63.1944C83.6205 63.3256 83.6792 63.4486 83.7597 63.5563C83.8402 63.664 83.9409 63.7543 84.0558 63.8219L85.7287 64.8111C86.084 65.0199 86.5966 64.7951 86.8733 64.3069C87.15 63.8187 87.0871 63.2405 86.735 63.0318Z" fill="#906DDB"/>
<path d="M111.406 54.8836L112.349 53.1974C112.419 53.0822 112.466 52.9539 112.487 52.8201C112.508 52.6863 112.502 52.5495 112.471 52.4179C112.439 52.2862 112.383 52.1623 112.304 52.0533C112.225 51.9442 112.126 51.8523 112.012 51.7828C111.898 51.7134 111.772 51.6678 111.64 51.6486C111.509 51.6295 111.375 51.6373 111.247 51.6715C111.118 51.7057 110.998 51.7656 110.893 51.8479C110.787 51.9301 110.699 52.0329 110.633 52.1503L109.664 53.859C109.46 54.2187 109.664 54.7423 110.158 55.0249C110.651 55.3076 111.199 55.2465 111.406 54.8836Z" fill="#906DDB"/>
<path d="M103.417 55.5806C103.783 54.9321 104.271 54.3637 104.853 53.9078C105.434 53.4519 106.098 53.1175 106.806 52.9237C107.514 52.7298 108.253 52.6803 108.98 52.778C109.706 52.8756 110.407 53.1186 111.042 53.4929C111.677 53.8672 112.233 54.3656 112.68 54.9596C113.126 55.5537 113.454 56.2316 113.643 56.9549C113.833 57.6781 113.882 58.4325 113.786 59.1749C113.69 59.9172 113.453 60.6331 113.086 61.2816L103.417 55.5806Z" fill="#455A64"/>
<path d="M111.859 54.0999C112.174 54.7711 113.029 57.6136 111.859 58.3202C110.69 59.0268 105.287 56.6822 105.287 56.6822L113.086 61.2815C113.735 60.1268 113.968 58.7761 113.744 57.4641C113.52 56.1522 112.853 54.9618 111.859 54.0999Z" fill="#37474F"/>
</svg>
