<svg width="25" height="24" viewBox="0 0 25 24" fill="none" xmlns="http://www.w3.org/2000/svg">
<path fill-rule="evenodd" clip-rule="evenodd" d="M5.5175 12.4117C5.79796 11.0094 7.0292 10 8.45924 10H11.3998C11.9598 10 12.2398 10 12.4537 9.89102C12.6419 9.79515 12.7948 9.64218 12.8907 9.45403C12.9997 9.24014 12.9997 8.96013 12.9998 8.40011L12.9998 7.5C12.9998 4.46724 15.4671 2 18.4998 2C19.6842 2 20.7824 2.3763 21.681 3.01564C21.7158 3.04035 21.7502 3.06545 21.7843 3.09094C21.8196 3.11728 21.8545 3.14403 21.8891 3.17119C22.1843 3.40278 22.4552 3.66385 22.6976 3.94992C23.1279 4.45797 23.0692 4.78335 22.5215 4.92604C22.3031 4.98293 22.1939 5.01138 22.1381 5.05372C22.0816 5.09668 22.0541 5.13225 22.0268 5.19781C21.9998 5.26243 21.9998 5.35066 21.9998 5.52713V9.25C21.9998 9.66421 21.664 10 21.2498 10H21.1179C20.7786 10 20.5513 10 20.1483 9.64079C20.1014 9.59893 20.052 9.55219 19.9998 9.5L18.5702 8.30614C18.546 8.28795 18.5242 8.27117 18.5043 8.25585C18.3703 8.15264 18.3229 8.11609 18.1998 8.1653C18.0734 8.21587 17.9942 8.69298 17.9943 8.91796C17.9943 8.94696 17.9956 8.97177 17.9984 8.99093C17.9988 8.99411 17.9993 8.99714 17.9998 9L19.6299 18.0049C19.6798 18.2808 19.7048 18.4187 19.7773 18.5141C19.8589 18.6216 19.992 18.696 20.1263 18.7093C20.2456 18.721 20.3702 18.6724 20.6195 18.575C20.6246 18.5731 20.6297 18.5711 20.6347 18.5691C20.8917 18.4685 21.1652 18.4815 21.3995 18.5838C21.6342 18.6863 21.8297 18.8784 21.9305 19.1356C22.1318 19.6499 21.8782 20.2299 21.3639 20.4313C21.3585 20.4334 21.3531 20.4355 21.3477 20.4376C21.0441 20.5562 20.7348 20.6679 20.4198 20.7729C19.8911 20.9491 19.3463 21.1063 18.7854 21.2445C18.5948 21.2914 18.4024 21.3362 18.2081 21.3787C17.9162 21.4427 17.6202 21.5016 17.32 21.5557C15.6722 21.8523 13.8986 22 11.9996 22C10.1007 22 8.32731 21.8523 6.67973 21.5558C6.37033 21.5001 6.06537 21.4392 5.76484 21.373C5.57964 21.3322 5.39613 21.2894 5.21431 21.2446C4.65802 21.1076 4.11754 20.9519 3.59287 20.7774C3.27318 20.6711 2.95937 20.5579 2.65143 20.4376C2.64605 20.4355 2.64067 20.4334 2.63528 20.4313C2.12103 20.23 1.86731 19.6499 2.06866 19.1356C2.17616 18.8611 2.39161 18.6608 2.64736 18.5644C2.87064 18.4803 3.12463 18.4752 3.36432 18.5691C3.36938 18.5711 3.37451 18.5731 3.37958 18.575C3.65041 18.6808 3.78583 18.7336 3.91532 18.7155C4.03226 18.6991 4.1485 18.6355 4.22538 18.5459C4.31051 18.4466 4.34032 18.2976 4.39994 17.9995L5.5175 12.4117ZM2.65634 16.5194L3.55634 12.0194C4.02376 9.6823 6.07584 8 8.45924 8H10.9998L10.9998 7.5C10.9999 3.36273 14.3625 0 18.4998 0C20.7953 0 22.8515 1.03732 24.2237 2.65727C24.4382 2.91053 24.7151 3.29054 24.8676 3.7791C25.0398 4.33083 25.0635 5.09348 24.5949 5.79864C24.4189 6.06357 24.2096 6.26363 23.9998 6.41504V9.25C23.9998 10.7688 22.7686 12 21.2498 12H21.1179C21.1082 12 21.0971 12.0001 21.0845 12.0002C20.9866 12.0008 20.8017 12.0021 20.5704 11.9725L21.3946 16.5259C22.4404 16.6658 23.3808 17.3543 23.7928 18.4064C24.3969 19.9493 23.6358 21.6896 22.0931 22.2936C19.1334 23.4524 15.7538 24 11.9996 24C8.24536 24 4.8657 23.4524 1.90608 22.2936C0.363313 21.6896 -0.397783 19.9493 0.206336 18.4064C0.6251 17.3369 1.58989 16.6432 2.65634 16.5194ZM6.99983 19C6.99983 19.1778 6.99983 19.2667 7.04266 19.3634C7.07834 19.4439 7.15586 19.5343 7.23004 19.5819C7.3191 19.6389 7.41767 19.6541 7.61482 19.6845C8.97762 19.8947 10.4391 20.0002 11.9996 20.0002C13.5603 20.0002 15.022 19.8947 16.385 19.6844C16.582 19.6541 16.6805 19.6389 16.7695 19.5818C16.8438 19.5343 16.9213 19.4438 16.957 19.3632C16.9998 19.2665 16.9998 19.1777 16.9998 19C16.9998 16.2386 14.7613 14 11.9998 14C9.23841 14 6.99983 16.2386 6.99983 19ZM14.78 17.8706C14.3339 16.7735 13.2572 16 11.9998 16C10.7425 16 9.66577 16.7735 9.21966 17.8707C10.0975 17.9564 11.0237 18.0002 11.9996 18.0002C12.9756 18.0002 13.902 17.9564 14.78 17.8706Z" fill="black"/>
</svg>
