<svg width="79" height="84" viewBox="0 0 79 84" fill="none" xmlns="http://www.w3.org/2000/svg">
<path d="M50.1622 7.43659L50.5103 3.62207L18.8274 21.382L22.3106 22.8125L23.6663 25.1089L55.3491 7.34615L50.1622 7.43659ZM28.2245 20.9546C27.7192 21.2286 27.3488 21.0285 27.3965 20.5051C27.4468 20.2059 27.5623 19.9207 27.7352 19.6687C27.908 19.4168 28.1342 19.2039 28.3985 19.0446C28.9037 18.7705 29.2742 18.9623 29.2405 19.494C29.1889 19.7945 29.0714 20.0806 28.896 20.3327C28.7207 20.5848 28.4916 20.7969 28.2245 20.9546ZM43.0807 12.7035C42.5755 12.9775 42.2022 12.7802 42.2387 12.2541C42.2898 11.955 42.4055 11.6701 42.5783 11.4182C42.7511 11.1664 42.9769 10.9534 43.2407 10.7935C43.7487 10.5194 44.122 10.7113 44.0827 11.2429C44.0332 11.542 43.9181 11.8272 43.7451 12.0788C43.5722 12.3305 43.3455 12.5426 43.0807 12.7007V12.7035Z" fill="#263238"/>
<path d="M50.1626 7.43659L55.3495 7.3489L48.1333 11.3963L50.5106 3.62207L50.1626 7.43659Z" fill="#37474F"/>
<path opacity="0.15" d="M50.1626 7.43659L49.9493 10.3742L48.1333 11.3963L50.5106 3.62207L50.1626 7.43659Z" fill="black"/>
<path d="M23.6782 25.109L13.8994 68.9101L51.5102 47.7796L55.3583 7.35449L23.6782 25.109ZM32.8199 24.2869C32.3343 24.5609 31.947 24.3307 31.947 23.7882C31.9629 23.4922 32.0503 23.2041 32.202 22.9474C32.3537 22.6908 32.5654 22.4727 32.8199 22.3111C33.3026 22.0371 33.6928 22.2618 33.6928 22.8099C33.6741 23.1046 33.5842 23.3908 33.4306 23.6451C33.2769 23.8994 33.0638 24.1147 32.8086 24.2732L32.8199 24.2869ZM47.5358 15.97C47.053 16.2441 46.6601 16.0139 46.6601 15.4713C46.6766 15.1752 46.7645 14.887 46.9167 14.6303C47.0688 14.3737 47.281 14.1557 47.5358 13.9943C48.0157 13.7202 48.4087 13.9449 48.4087 14.493C48.3927 14.789 48.3053 15.077 48.1536 15.3337C48.0019 15.5904 47.7902 15.8084 47.5358 15.97Z" fill="#455A64"/>
<path d="M23.6669 25.1089L13.8993 68.9046L0.25 58.9436L18.828 21.3821L22.3084 22.8125L23.6669 25.1089Z" fill="#37474F"/>
<path opacity="0.15" d="M23.6669 25.1089L13.8993 68.9046L0.25 58.9436L18.828 21.3821L22.3084 22.8125L23.6669 25.1089Z" fill="black"/>
<path d="M0.25 58.9434L9.71444 58.2227L13.8993 68.9044L0.25 58.9434Z" fill="#263238"/>
<path d="M9.71387 58.2228L22.3107 22.8152L23.6663 25.1088L13.8988 68.9045L9.71387 58.2228Z" fill="#37474F"/>
<path d="M56.3723 9.56842V7.6228L24.6558 25.4979L30.3198 26.435L30.7268 28.1888L30.1318 83.25L61.8483 65.3722L62.4574 10.3083L56.3723 9.56842ZM35.6022 25.5801C35.1194 25.8541 34.7265 25.6239 34.7265 25.0786C34.7429 24.7828 34.8309 24.4951 34.9831 24.2388C35.1353 23.9826 35.3474 23.7652 35.6022 23.6043C36.0849 23.3303 36.4751 23.555 36.4751 24.103C36.4607 24.3978 36.3755 24.6851 36.2262 24.9417C36.077 25.1983 35.8681 25.417 35.6162 25.5801H35.6022ZM50.3658 17.2194C49.883 17.4934 49.4929 17.2632 49.4929 16.7179C49.5093 16.4221 49.5969 16.1341 49.7485 15.8775C49.9002 15.6209 50.1117 15.4028 50.3658 15.2409C50.8486 14.9668 51.2387 15.1943 51.2387 15.7423C51.2245 16.0371 51.1394 16.3245 50.9902 16.5811C50.8409 16.8378 50.6318 17.0564 50.3798 17.2194H50.3658Z" fill="#906DDB"/>
<path opacity="0.3" d="M56.3723 9.56842V7.6228L24.6558 25.4979L30.3198 26.435L30.7268 28.1888L30.1318 83.25L61.8483 65.3722L62.4574 10.3083L56.3723 9.56842ZM35.6022 25.5801C35.1194 25.8541 34.7265 25.6239 34.7265 25.0786C34.7429 24.7828 34.8309 24.4951 34.9831 24.2388C35.1353 23.9826 35.3474 23.7652 35.6022 23.6043C36.0849 23.3303 36.4751 23.555 36.4751 24.103C36.4607 24.3978 36.3755 24.6851 36.2262 24.9417C36.077 25.1983 35.8681 25.417 35.6162 25.5801H35.6022ZM50.3658 17.2194C49.883 17.4934 49.4929 17.2632 49.4929 16.7179C49.5093 16.4221 49.5969 16.1341 49.7485 15.8775C49.9002 15.6209 50.1117 15.4028 50.3658 15.2409C50.8486 14.9668 51.2387 15.1943 51.2387 15.7423C51.2245 16.0371 51.1394 16.3245 50.9902 16.5811C50.8409 16.8378 50.6318 17.0564 50.3798 17.2194H50.3658Z" fill="black"/>
<path d="M30.7269 28.1862L30.1318 83.25L61.8484 65.3722L62.4574 10.3083L30.7269 28.1862ZM39.5065 28.7342C39.0265 29.0082 38.6335 28.7781 38.6335 28.2355C38.6502 27.9397 38.7378 27.6519 38.8895 27.3953C39.0411 27.1387 39.2525 26.9205 39.5065 26.7584C39.9892 26.4844 40.3822 26.7119 40.3822 27.2572C40.3664 27.5535 40.2787 27.8419 40.1265 28.0987C39.9742 28.3554 39.7617 28.5733 39.5065 28.7342ZM54.2701 20.3735C53.7873 20.6476 53.3972 20.4174 53.3972 19.872C53.4136 19.5762 53.5012 19.2883 53.6528 19.0317C53.8045 18.775 54.0159 18.5569 54.2701 18.395C54.7557 18.121 55.143 18.3484 55.143 18.8965C55.1284 19.1927 55.0416 19.4813 54.8897 19.7382C54.7379 19.9951 54.5255 20.2129 54.2701 20.3735Z" fill="#906DDB"/>
<path d="M14.0012 73.2507L23.0727 71.76L30.1177 83.2474L14.0012 73.2507Z" fill="#906DDB"/>
<path opacity="0.3" d="M14.0012 73.2507L23.0727 71.76L30.1177 83.2474L14.0012 73.2507Z" fill="black"/>
<path d="M23.0728 71.7599L30.3198 26.4324L30.7268 28.1862L30.1178 83.2473L23.0728 71.7599Z" fill="#906DDB"/>
<path opacity="0.1" d="M23.0728 71.7599L30.3198 26.4324L30.7268 28.1862L30.1178 83.2473L23.0728 71.7599Z" fill="black"/>
<path d="M24.6585 25.4978L30.3198 26.4323L23.0727 71.7598L14.0012 73.2505L24.6585 25.4978Z" fill="#906DDB"/>
<path opacity="0.2" d="M24.6585 25.4978L30.3198 26.4323L23.0727 71.7598L14.0012 73.2505L24.6585 25.4978Z" fill="black"/>
<path opacity="0.5" d="M56.3723 7.62012L54.3823 14.8518L62.4406 10.3111L56.3723 9.56574V7.62012Z" fill="#906DDB"/>
<path opacity="0.5" d="M56.3721 9.56567V13.7309L62.4403 10.311L56.3721 9.56567Z" fill="#906DDB"/>
<path d="M78.9986 64.712L67.8445 13.7586L64.6448 13.4298L62.9551 11.0073L64.4034 56.4828L78.9986 64.712Z" fill="#906DDB"/>
<path opacity="0.4" d="M78.9986 64.712L67.8445 13.7586L64.6448 13.4298L62.9551 11.0073L64.4034 56.4828L78.9986 64.712Z" fill="white"/>
<path opacity="0.2" d="M64.6448 13.4297L64.5774 15.6L62.6323 16.6962L62.9551 11.01L64.6448 13.4297Z" fill="#906DDB"/>
<path d="M32.3792 28.2438L33.8274 73.7166L64.3988 56.4828L62.9533 11.01L32.3792 28.2438ZM41.504 29.2084C41.0212 29.4825 40.6311 29.2523 40.6311 28.7069C40.6475 28.4111 40.735 28.1232 40.8867 27.8666C41.0384 27.61 41.2498 27.3918 41.504 27.2299C41.9867 26.9559 42.3797 27.1833 42.3797 27.7314C42.3642 28.0274 42.277 28.3157 42.1252 28.5724C41.9735 28.8292 41.7615 29.0472 41.5068 29.2084H41.504ZM56.2676 20.8477C55.7848 21.1218 55.3947 20.8916 55.3947 20.3463C55.4111 20.0508 55.4987 19.7633 55.6504 19.5071C55.802 19.2509 56.0135 19.0333 56.2676 18.872C56.7504 18.5979 57.1433 18.8226 57.1405 19.3707C57.1255 19.6666 57.0389 19.9547 56.8876 20.2115C56.7363 20.4683 56.5248 20.6863 56.2704 20.8477H56.2676Z" fill="#906DDB"/>
<path opacity="0.2" d="M32.3792 28.2438L33.8274 73.7166L64.3988 56.4828L62.9533 11.01L32.3792 28.2438ZM41.504 29.2084C41.0212 29.4825 40.6311 29.2523 40.6311 28.7069C40.6475 28.4111 40.735 28.1232 40.8867 27.8666C41.0384 27.61 41.2498 27.3918 41.504 27.2299C41.9867 26.9559 42.3797 27.1833 42.3797 27.7314C42.3642 28.0274 42.277 28.3157 42.1252 28.5724C41.9735 28.8292 41.7615 29.0472 41.5068 29.2084H41.504ZM56.2676 20.8477C55.7848 21.1218 55.3947 20.8916 55.3947 20.3463C55.4111 20.0508 55.4987 19.7633 55.6504 19.5071C55.802 19.2509 56.0135 19.0333 56.2676 18.872C56.7504 18.5979 57.1433 18.8226 57.1405 19.3707C57.1255 19.6666 57.0389 19.9547 56.8876 20.2115C56.7363 20.4683 56.5248 20.6863 56.2704 20.8477H56.2676Z" fill="white"/>
<path d="M32.3823 28.241L35.8852 28.6411L37.2717 30.9922L48.4258 81.9456L33.8278 73.7192L32.3823 28.241Z" fill="#906DDB"/>
<path opacity="0.55" d="M32.3823 28.241L35.8852 28.6411L37.2717 30.9922L48.4258 81.9456L33.8278 73.7192L32.3823 28.241Z" fill="white"/>
<path opacity="0.2" d="M41.1254 71.3351L35.8852 28.6411L32.3823 28.241L33.8278 73.7192L41.1254 71.3351Z" fill="#906DDB"/>
<path opacity="0.4" d="M48.4247 81.9457L41.1243 71.3352L33.8267 73.7193L48.4247 81.9457Z" fill="#906DDB"/>
<path d="M67.8462 13.7583L37.272 30.9921L48.4261 81.9455L79.0003 64.7117L67.8462 13.7583ZM47.1125 32.0992C47.0238 32.1605 46.9199 32.1972 46.8116 32.2056C46.7033 32.2139 46.5948 32.1936 46.4973 32.1468C46.3999 32.0999 46.3172 32.0282 46.258 31.9393C46.1988 31.8504 46.1653 31.7475 46.161 31.6416C46.1282 31.3772 46.1712 31.1092 46.2852 30.8673C46.3991 30.6254 46.5796 30.4191 46.8066 30.2714C47.2472 30.0193 47.6739 30.2276 47.7581 30.7373C47.7909 31.0005 47.7479 31.2673 47.6338 31.5079C47.5198 31.7485 47.3392 31.9533 47.1125 32.0992ZM62.0838 23.7139C61.6712 23.9605 61.2222 23.755 61.0846 23.2562C61.0182 23.008 61.0301 22.7459 61.1188 22.5044C61.2074 22.2629 61.3687 22.0531 61.5814 21.9025C61.994 21.6531 62.4431 21.8559 62.5835 22.3601C62.65 22.6086 62.6378 22.871 62.5487 23.1126C62.4595 23.3543 62.2974 23.5639 62.0838 23.7139Z" fill="#906DDB"/>
<path opacity="0.7" d="M67.8462 13.7583L37.272 30.9921L48.4261 81.9455L79.0003 64.7117L67.8462 13.7583ZM47.1125 32.0992C47.0238 32.1605 46.9199 32.1972 46.8116 32.2056C46.7033 32.2139 46.5948 32.1936 46.4973 32.1468C46.3999 32.0999 46.3172 32.0282 46.258 31.9393C46.1988 31.8504 46.1653 31.7475 46.161 31.6416C46.1282 31.3772 46.1712 31.1092 46.2852 30.8673C46.3991 30.6254 46.5796 30.4191 46.8066 30.2714C47.2472 30.0193 47.6739 30.2276 47.7581 30.7373C47.7909 31.0005 47.7479 31.2673 47.6338 31.5079C47.5198 31.7485 47.3392 31.9533 47.1125 32.0992ZM62.0838 23.7139C61.6712 23.9605 61.2222 23.755 61.0846 23.2562C61.0182 23.008 61.0301 22.7459 61.1188 22.5044C61.2074 22.2629 61.3687 22.0531 61.5814 21.9025C61.994 21.6531 62.4431 21.8559 62.5835 22.3601C62.65 22.6086 62.6378 22.871 62.5487 23.1126C62.4595 23.3543 62.2974 23.5639 62.0838 23.7139Z" fill="white"/>
<path d="M46.9569 31.502C46.8989 31.5018 46.8424 31.484 46.7951 31.4512C46.7479 31.4183 46.7122 31.3719 46.6931 31.3185L40.7455 14.7533C39.9967 12.6657 40.0176 10.3884 40.8046 8.31429C41.5917 6.24017 43.0955 4.49927 45.0567 3.39193C46.073 2.81937 47.2061 2.47253 48.3753 2.37607C49.5445 2.27962 50.7212 2.43592 51.8215 2.83386C52.9218 3.2318 53.9187 3.86161 54.7414 4.67846C55.5641 5.49531 56.1923 6.47913 56.5813 7.55994L62.0517 22.7824C62.0763 22.8511 62.0719 22.9265 62.0395 22.992C62.0072 23.0575 61.9495 23.1078 61.8791 23.1318C61.8088 23.1558 61.7315 23.1515 61.6644 23.1199C61.5973 23.0883 61.5458 23.0319 61.5212 22.9632L56.0508 7.7408C55.6891 6.73613 55.1051 5.82162 54.3403 5.06231C53.5755 4.30301 52.6488 3.71756 51.6259 3.34763C50.6031 2.9777 49.5093 2.83236 48.4224 2.92195C47.3355 3.01155 46.2822 3.33387 45.3374 3.866C43.4901 4.91036 42.0736 6.55089 41.3318 8.5051C40.5899 10.4593 40.5692 12.6049 41.2732 14.5724L47.2235 31.1376C47.2359 31.1718 47.2412 31.208 47.2392 31.2442C47.2371 31.2804 47.2277 31.3158 47.2115 31.3484C47.1954 31.3811 47.1727 31.4102 47.1449 31.4342C47.1171 31.4583 47.0847 31.4767 47.0495 31.4883C47.0198 31.4985 46.9884 31.5031 46.9569 31.502Z" fill="#F0F0F0"/>
<path d="M41.4957 28.1642C41.4281 28.1649 41.3624 28.1418 41.3108 28.0989C41.2592 28.0561 41.2252 27.9966 41.2151 27.9312L39.2503 15.2902C38.8727 12.937 39.2363 10.5274 40.2929 8.38054C41.3495 6.23368 43.0493 4.45091 45.167 3.26842C46.0765 2.75608 47.1002 2.46805 48.1494 2.42931C49.1987 2.39057 50.2418 2.60228 51.1882 3.0461C52.1347 3.48992 52.9561 4.15244 53.581 4.97622C54.206 5.8 54.6157 6.76018 54.7746 7.7735L56.5513 19.1979C56.5568 19.2338 56.555 19.2705 56.546 19.3059C56.537 19.3412 56.521 19.3744 56.4988 19.4037C56.4767 19.4329 56.4488 19.4577 56.4169 19.4764C56.385 19.4952 56.3496 19.5076 56.3127 19.513C56.2758 19.5184 56.2382 19.5167 56.2021 19.5079C56.1659 19.4991 56.1319 19.4834 56.1019 19.4618C56.0719 19.4402 56.0466 19.413 56.0274 19.3818C56.0082 19.3506 55.9954 19.3161 55.9899 19.2801L54.216 7.85571C54.0704 6.93089 53.6961 6.05468 53.1254 5.303C52.5547 4.55132 51.8048 3.94685 50.9408 3.54195C50.0768 3.13706 49.1248 2.94395 48.1671 2.97938C47.2094 3.0148 46.275 3.27768 45.4449 3.74524C43.4278 4.87291 41.8086 6.57156 40.8013 8.61674C39.794 10.6619 39.446 12.9574 39.8033 15.1997L41.768 27.8408C41.7736 27.8764 41.7719 27.9128 41.7631 27.9478C41.7542 27.9828 41.7384 28.0157 41.7165 28.0448C41.6946 28.0738 41.6671 28.0983 41.6354 28.1169C41.6038 28.1355 41.5687 28.1479 41.5322 28.1532L41.4957 28.1642Z" fill="#E0E0E0"/>
<path d="M54.2296 15.9287L53.685 16.2356L53.1826 8.28872C53.1236 7.40703 52.8358 6.5545 52.3462 5.8114C51.8566 5.0683 51.1813 4.45907 50.384 4.04107C49.5867 3.62307 48.6935 3.41005 47.7886 3.42206C46.8837 3.43408 45.9968 3.67073 45.2114 4.10974C43.1526 5.26072 41.4659 6.95261 40.343 8.99303C39.2202 11.0334 38.7062 13.3405 38.8597 15.6519L39.3958 24.2867L38.8512 24.5936L38.2899 15.6766C38.1298 13.2624 38.6664 10.8527 39.8388 8.72129C41.0112 6.58991 42.7724 4.82229 44.9223 3.61923C45.7907 3.13322 46.7716 2.87115 47.7725 2.85772C48.7734 2.84429 49.7614 3.07995 50.6431 3.54249C51.5249 4.00502 52.2715 4.67918 52.8126 5.50141C53.3536 6.32365 53.6713 7.26687 53.7356 8.24214L54.2296 15.9287Z" fill="#F0F0F0"/>
<path d="M35.5641 24.4456H35.5164C35.4801 24.4393 35.4454 24.4261 35.4143 24.4067C35.3832 24.3874 35.3563 24.3622 35.3352 24.3327C35.3141 24.3031 35.2992 24.2699 35.2912 24.2347C35.2833 24.1995 35.2825 24.1632 35.289 24.1277L36.7401 15.8849C37.182 13.3535 38.1911 10.9486 39.6952 8.84206C41.1993 6.73549 43.1613 4.97922 45.4411 3.6987C46.1698 3.2867 47.0036 3.08603 47.8449 3.12019C48.6862 3.15436 49.5001 3.42195 50.1911 3.89161C50.8822 4.36126 51.4219 5.01352 51.7468 5.77192C52.0717 6.53032 52.1685 7.36344 52.0258 8.17363L50.6757 15.8465C50.6635 15.9192 50.6221 15.9841 50.5608 16.027C50.4995 16.0699 50.4232 16.0873 50.3488 16.0753C50.2743 16.0633 50.2078 16.023 50.1639 15.9631C50.1199 15.9032 50.1021 15.8288 50.1144 15.7561L51.4645 8.07498C51.589 7.36791 51.5047 6.64084 51.2213 5.97887C50.938 5.3169 50.4674 4.74744 49.8645 4.33715C49.2617 3.92686 48.5517 3.69273 47.8175 3.66216C47.0833 3.63159 46.3554 3.80586 45.719 4.16455C43.5129 5.40701 41.6146 7.10909 40.1592 9.14958C38.7038 11.1901 37.7271 13.5188 37.2987 15.9698L35.8476 24.2127C35.8374 24.2785 35.803 24.3384 35.7508 24.3813C35.6986 24.4242 35.6323 24.447 35.5641 24.4456Z" fill="#E0E0E0"/>
<path d="M50.8835 4.34265L48.7251 11.9333L48.029 12.3252L50.3418 4.19468C50.4432 3.83958 50.4341 3.46302 50.3154 3.11305C50.1967 2.76307 49.9739 2.45555 49.6755 2.22973C49.377 2.00391 49.0164 1.87002 48.6397 1.84515C48.2629 1.82028 47.8871 1.90557 47.5603 2.09012C41.0759 5.72927 36.3257 11.7211 34.3432 18.7622L33.9053 20.2995L33.2036 20.6804L33.793 18.606C35.8154 11.4307 40.6571 5.32489 47.2655 1.61604C47.689 1.37672 48.176 1.26605 48.6642 1.29816C49.1524 1.33028 49.6197 1.50372 50.0065 1.79634C50.3932 2.08896 50.6819 2.48749 50.8356 2.94103C50.9893 3.39457 51.0011 3.88255 50.8694 4.34265H50.8835Z" fill="#F0F0F0"/>
<path d="M28.3121 20.2667C28.2583 20.2665 28.2057 20.2513 28.1606 20.2228C28.0981 20.1835 28.0542 20.1216 28.0384 20.0507C28.0226 19.9798 28.0363 19.9057 28.0763 19.8446L29.6566 17.4578C34.168 10.6534 40.2661 4.98888 47.4515 0.928266C47.7196 0.778376 48.0314 0.720582 48.3371 0.764125C48.6428 0.807668 48.9247 0.950036 49.1378 1.16846C49.3508 1.38688 49.4827 1.66874 49.5123 1.96897C49.5419 2.2692 49.4676 2.57045 49.3012 2.82456L43.3761 11.7854C43.3341 11.8423 43.2713 11.8814 43.2007 11.8944C43.1301 11.9075 43.057 11.8937 42.9966 11.8557C42.9361 11.8178 42.8929 11.7586 42.8757 11.6905C42.8586 11.6223 42.8689 11.5504 42.9045 11.4894L48.8296 2.52861C48.9287 2.37783 48.9731 2.19894 48.9557 2.0206C48.9383 1.84226 48.8601 1.67479 48.7336 1.54499C48.6071 1.4152 48.4397 1.33059 48.2581 1.30473C48.0766 1.27886 47.8914 1.31324 47.7322 1.40234C40.626 5.41976 34.5952 11.0232 30.1337 17.7538L28.5479 20.1324C28.5235 20.1725 28.4891 20.2059 28.4478 20.2294C28.4066 20.2529 28.3599 20.2657 28.3121 20.2667Z" fill="#E0E0E0"/>
<path d="M68.6525 41.9397C67.6393 37.2127 64.462 34.4368 60.7402 34.4368C59.2101 34.4621 57.7141 34.8818 56.4037 35.6535C51.0344 38.6815 47.815 46.401 49.2184 52.8983C50.2345 57.6226 53.4117 60.4012 57.1335 60.4012C58.6636 60.3759 60.1596 59.9562 61.47 59.1845C66.8281 56.1565 70.0475 48.437 68.6525 41.9397ZM66.031 51.2404C64.8128 54.1615 62.8874 56.4771 60.6139 57.7568C59.5612 58.3858 58.3562 58.73 57.1223 58.7543C54.0797 58.7543 51.6771 56.3812 50.8576 52.5612C50.2513 49.7359 50.5965 46.5517 51.8287 43.5949C53.0609 40.6381 54.9723 38.3609 57.2458 37.0784C58.3002 36.4514 59.5059 36.1082 60.7402 36.0837C63.7827 36.0837 66.1825 38.4568 67.0021 42.2768C67.6084 45.1021 67.2631 48.2836 66.031 51.2404ZM57.7678 42.0082C55.2979 43.4003 53.8187 46.9408 54.4587 49.9387C55.0986 52.9366 57.6219 54.2218 60.0918 52.8297C62.5618 51.4377 64.0438 47.8972 63.401 44.8993C62.7583 41.9014 60.2378 40.6162 57.7678 42.0082Z" fill="white"/>
</svg>
