<svg width="96" height="72" viewBox="0 0 96 72" fill="none" xmlns="http://www.w3.org/2000/svg">
<rect width="96" height="72" fill="white"/>
<path d="M56.1299 8.34922L56.4083 5.29761L31.062 19.5056L33.8486 20.6499L34.9331 22.487L60.2794 8.27687L56.1299 8.34922ZM38.5797 19.1636C38.1755 19.3828 37.8791 19.2228 37.9173 18.8041C37.9576 18.5647 38.05 18.3365 38.1883 18.1349C38.3265 17.9334 38.5075 17.7631 38.7189 17.6356C39.1231 17.4164 39.4195 17.5698 39.3925 17.9951C39.3512 18.2356 39.2572 18.4644 39.1169 18.6661C38.9766 18.8678 38.7934 19.0375 38.5797 19.1636ZM50.4647 12.5627C50.0605 12.7819 49.7619 12.6241 49.791 12.2032C49.8319 11.964 49.9245 11.736 50.0628 11.5345C50.201 11.333 50.3816 11.1627 50.5927 11.0347C50.9991 10.8155 51.2977 10.969 51.2663 11.3943C51.2267 11.6336 51.1345 11.8617 50.9962 12.063C50.8578 12.2643 50.6765 12.434 50.4647 12.5605V12.5627Z" fill="#263238"/>
<path d="M56.13 8.34922L60.2796 8.27907L54.5066 11.517L56.4085 5.29761L56.13 8.34922Z" fill="#37474F"/>
<path opacity="0.15" d="M56.13 8.34922L55.9594 10.6993L54.5066 11.517L56.4085 5.29761L56.13 8.34922Z" fill="black"/>
<path d="M34.9427 22.487L27.1196 57.528L57.2082 40.6235L60.2867 8.28345L34.9427 22.487ZM42.256 21.8294C41.8675 22.0486 41.5577 21.8644 41.5577 21.4304C41.5704 21.1936 41.6403 20.9632 41.7617 20.7578C41.8831 20.5525 42.0524 20.378 42.256 20.2488C42.6422 20.0295 42.9543 20.2093 42.9543 20.6477C42.9394 20.8835 42.8675 21.1125 42.7446 21.3159C42.6216 21.5194 42.4511 21.6916 42.247 21.8184L42.256 21.8294ZM54.0287 15.1759C53.6425 15.3951 53.3282 15.211 53.3282 14.7769C53.3413 14.54 53.4117 14.3095 53.5334 14.1041C53.6552 13.8988 53.8249 13.7244 54.0287 13.5953C54.4127 13.376 54.727 13.5558 54.727 13.9943C54.7143 14.231 54.6444 14.4615 54.523 14.6668C54.4017 14.8722 54.2323 15.0466 54.0287 15.1759Z" fill="#455A64"/>
<path d="M34.9335 22.4871L27.1194 57.5236L16.2 49.5548L31.0624 19.5056L33.8467 20.65L34.9335 22.4871Z" fill="#37474F"/>
<path opacity="0.15" d="M34.9335 22.4871L27.1194 57.5236L16.2 49.5548L31.0624 19.5056L33.8467 20.65L34.9335 22.4871Z" fill="black"/>
<path d="M16.2 49.5546L23.7715 48.978L27.1194 57.5234L16.2 49.5546Z" fill="#263238"/>
<path d="M23.771 48.9782L33.8484 20.6521L34.933 22.487L27.1189 57.5236L23.771 48.9782Z" fill="#37474F"/>
<path d="M61.0978 10.0545V8.49805L35.7246 22.7981L40.2559 23.5478L40.5814 24.9509L40.1054 68.9998L65.4786 54.6975L65.9659 10.6464L61.0978 10.0545ZM44.4817 22.8639C44.0955 23.0831 43.7812 22.8989 43.7812 22.4627C43.7943 22.2261 43.8647 21.9959 43.9865 21.7909C44.1082 21.5859 44.2779 21.4119 44.4817 21.2832C44.868 21.064 45.1801 21.2438 45.1801 21.6822C45.1686 21.918 45.1004 22.1479 44.981 22.3531C44.8616 22.5584 44.6944 22.7334 44.493 22.8639H44.4817ZM56.2926 16.1753C55.9064 16.3945 55.5943 16.2104 55.5943 15.7741C55.6074 15.5374 55.6775 15.3071 55.7988 15.1018C55.9202 14.8965 56.0893 14.722 56.2926 14.5925C56.6789 14.3733 56.991 14.5552 56.991 14.9937C56.9796 15.2295 56.9115 15.4594 56.7921 15.6647C56.6728 15.87 56.5055 16.0449 56.3039 16.1753H56.2926Z" fill="#906DDB"/>
<path opacity="0.3" d="M61.0978 10.0545V8.49805L35.7246 22.7981L40.2559 23.5478L40.5814 24.9509L40.1054 68.9998L65.4786 54.6975L65.9659 10.6464L61.0978 10.0545ZM44.4817 22.8639C44.0955 23.0831 43.7812 22.8989 43.7812 22.4627C43.7943 22.2261 43.8647 21.9959 43.9865 21.7909C44.1082 21.5859 44.2779 21.4119 44.4817 21.2832C44.868 21.064 45.1801 21.2438 45.1801 21.6822C45.1686 21.918 45.1004 22.1479 44.981 22.3531C44.8616 22.5584 44.6944 22.7334 44.493 22.8639H44.4817ZM56.2926 16.1753C55.9064 16.3945 55.5943 16.2104 55.5943 15.7741C55.6074 15.5374 55.6775 15.3071 55.7988 15.1018C55.9202 14.8965 56.0893 14.722 56.2926 14.5925C56.6789 14.3733 56.991 14.5552 56.991 14.9937C56.9796 15.2295 56.9115 15.4594 56.7921 15.6647C56.6728 15.87 56.5055 16.0449 56.3039 16.1753H56.2926Z" fill="black"/>
<path d="M40.5815 24.9487L40.1055 68.9998L65.4787 54.6976L65.966 10.6465L40.5815 24.9487ZM47.6052 25.3872C47.2212 25.6064 46.9068 25.4223 46.9068 24.9882C46.9201 24.7516 46.9903 24.5213 47.1116 24.316C47.2329 24.1107 47.402 23.9362 47.6052 23.8066C47.9914 23.5873 48.3057 23.7693 48.3057 24.2056C48.2931 24.4426 48.223 24.6733 48.1012 24.8787C47.9794 25.0842 47.8094 25.2584 47.6052 25.3872ZM59.4161 18.6986C59.0299 18.9178 58.7177 18.7337 58.7177 18.2974C58.7309 18.0608 58.8009 17.8304 58.9222 17.6251C59.0436 17.4198 59.2128 17.2454 59.4161 17.1158C59.8045 16.8966 60.1144 17.0785 60.1144 17.517C60.1027 17.754 60.0333 17.9849 59.9118 18.1904C59.7903 18.3959 59.6204 18.5701 59.4161 18.6986Z" fill="#906DDB"/>
<path d="M27.2009 61.0004L34.4581 59.8079L40.0941 68.9978L27.2009 61.0004Z" fill="#906DDB"/>
<path opacity="0.3" d="M27.2009 61.0004L34.4581 59.8079L40.0941 68.9978L27.2009 61.0004Z" fill="black"/>
<path d="M34.4583 59.8079L40.2559 23.5459L40.5815 24.9489L40.0943 68.9978L34.4583 59.8079Z" fill="#906DDB"/>
<path opacity="0.1" d="M34.4583 59.8079L40.2559 23.5459L40.5815 24.9489L40.0943 68.9978L34.4583 59.8079Z" fill="black"/>
<path d="M35.7268 22.7981L40.2558 23.5457L34.4581 59.8077L27.2009 61.0003L35.7268 22.7981Z" fill="#906DDB"/>
<path opacity="0.2" d="M35.7268 22.7981L40.2558 23.5457L34.4581 59.8077L27.2009 61.0003L35.7268 22.7981Z" fill="black"/>
<path opacity="0.5" d="M61.0979 8.49609L59.5059 14.2814L65.9525 10.6489L61.0979 10.0526V8.49609Z" fill="#906DDB"/>
<path opacity="0.5" d="M61.0977 10.0525V13.3847L65.9523 10.6488L61.0977 10.0525Z" fill="#906DDB"/>
<path d="M79.1988 54.1695L70.2755 13.4068L67.7158 13.1438L66.364 11.2058L67.5227 47.5862L79.1988 54.1695Z" fill="#906DDB"/>
<path opacity="0.4" d="M79.1988 54.1695L70.2755 13.4068L67.7158 13.1438L66.364 11.2058L67.5227 47.5862L79.1988 54.1695Z" fill="white"/>
<path opacity="0.2" d="M67.7159 13.1438L67.662 14.88L66.106 15.7569L66.3642 11.208L67.7159 13.1438Z" fill="#906DDB"/>
<path d="M41.9033 24.9951L43.062 61.3733L67.5191 47.5862L66.3627 11.208L41.9033 24.9951ZM49.2032 25.7667C48.817 25.986 48.5048 25.8018 48.5048 25.3656C48.518 25.1289 48.588 24.8986 48.7094 24.6933C48.8307 24.488 48.9999 24.3135 49.2032 24.1839C49.5894 23.9647 49.9037 24.1467 49.9037 24.5851C49.8913 24.822 49.8216 25.0525 49.7002 25.258C49.5788 25.4634 49.4092 25.6377 49.2054 25.7667H49.2032ZM61.0141 19.0782C60.6279 19.2974 60.3158 19.1133 60.3158 18.677C60.3289 18.4406 60.3989 18.2106 60.5203 18.0057C60.6416 17.8007 60.8108 17.6266 61.0141 17.4976C61.4003 17.2783 61.7146 17.4581 61.7124 17.8966C61.7004 18.1332 61.6311 18.3638 61.5101 18.5692C61.3891 18.7746 61.2198 18.9491 61.0163 19.0782H61.0141Z" fill="#906DDB"/>
<path opacity="0.2" d="M41.9033 24.9951L43.062 61.3733L67.5191 47.5862L66.3627 11.208L41.9033 24.9951ZM49.2032 25.7667C48.817 25.986 48.5048 25.8018 48.5048 25.3656C48.518 25.1289 48.588 24.8986 48.7094 24.6933C48.8307 24.488 48.9999 24.3135 49.2032 24.1839C49.5894 23.9647 49.9037 24.1467 49.9037 24.5851C49.8913 24.822 49.8216 25.0525 49.7002 25.258C49.5788 25.4634 49.4092 25.6377 49.2054 25.7667H49.2032ZM61.0141 19.0782C60.6279 19.2974 60.3158 19.1133 60.3158 18.677C60.3289 18.4406 60.3989 18.2106 60.5203 18.0057C60.6416 17.8007 60.8108 17.6266 61.0141 17.4976C61.4003 17.2783 61.7146 17.4581 61.7124 17.8966C61.7004 18.1332 61.6311 18.3638 61.5101 18.5692C61.3891 18.7746 61.2198 18.9491 61.0163 19.0782H61.0141Z" fill="white"/>
<path d="M41.9058 24.9927L44.708 25.3127L45.8173 27.1937L54.7406 67.9564L43.0622 61.3753L41.9058 24.9927Z" fill="#906DDB"/>
<path opacity="0.55" d="M41.9058 24.9927L44.708 25.3127L45.8173 27.1937L54.7406 67.9564L43.0622 61.3753L41.9058 24.9927Z" fill="white"/>
<path opacity="0.2" d="M48.9002 59.468L44.708 25.3127L41.9058 24.9927L43.0622 61.3753L48.9002 59.468Z" fill="#906DDB"/>
<path opacity="0.4" d="M54.7397 67.9564L48.8994 59.468L43.0613 61.3753L54.7397 67.9564Z" fill="#906DDB"/>
<path d="M70.277 13.4065L45.8176 27.1936L54.7409 67.9563L79.2003 54.1692L70.277 13.4065ZM53.6901 28.0792C53.6191 28.1282 53.536 28.1576 53.4493 28.1643C53.3627 28.171 53.2759 28.1547 53.1979 28.1173C53.12 28.0798 53.0538 28.0224 53.0065 27.9513C52.9591 27.8802 52.9323 27.7979 52.9289 27.7131C52.9026 27.5016 52.937 27.2872 53.0282 27.0937C53.1194 26.9002 53.2638 26.7351 53.4453 26.617C53.7978 26.4153 54.1392 26.5819 54.2065 26.9897C54.2328 27.2002 54.1983 27.4137 54.1071 27.6062C54.0159 27.7987 53.8714 27.9625 53.6901 28.0792ZM65.6671 21.3709C65.337 21.5682 64.9778 21.4038 64.8678 21.0048C64.8146 20.8062 64.8241 20.5966 64.8951 20.4034C64.966 20.2102 65.095 20.0423 65.2652 19.9219C65.5953 19.7224 65.9545 19.8846 66.0668 20.288C66.12 20.4868 66.1103 20.6966 66.039 20.89C65.9676 21.0833 65.838 21.251 65.6671 21.3709Z" fill="#906DDB"/>
<path opacity="0.7" d="M70.277 13.4065L45.8176 27.1936L54.7409 67.9563L79.2003 54.1692L70.277 13.4065ZM53.6901 28.0792C53.6191 28.1282 53.536 28.1576 53.4493 28.1643C53.3627 28.171 53.2759 28.1547 53.1979 28.1173C53.12 28.0798 53.0538 28.0224 53.0065 27.9513C52.9591 27.8802 52.9323 27.7979 52.9289 27.7131C52.9026 27.5016 52.937 27.2872 53.0282 27.0937C53.1194 26.9002 53.2638 26.7351 53.4453 26.617C53.7978 26.4153 54.1392 26.5819 54.2065 26.9897C54.2328 27.2002 54.1983 27.4137 54.1071 27.6062C54.0159 27.7987 53.8714 27.9625 53.6901 28.0792ZM65.6671 21.3709C65.337 21.5682 64.9778 21.4038 64.8678 21.0048C64.8146 20.8062 64.8241 20.5966 64.8951 20.4034C64.966 20.2102 65.095 20.0423 65.2652 19.9219C65.5953 19.7224 65.9545 19.8846 66.0668 20.288C66.12 20.4868 66.1103 20.6966 66.039 20.89C65.9676 21.0833 65.838 21.251 65.6671 21.3709Z" fill="white"/>
<path d="M53.5655 27.6015C53.5191 27.6013 53.4738 27.5871 53.436 27.5608C53.3982 27.5345 53.3697 27.4974 53.3544 27.4546L48.5964 14.2025C47.9973 12.5324 48.014 10.7106 48.6437 9.05129C49.2733 7.39199 50.4764 5.99927 52.0453 5.1134C52.8584 4.65535 53.7648 4.37788 54.7002 4.30071C55.6356 4.22355 56.5769 4.34859 57.4571 4.66694C58.3374 4.9853 59.135 5.48914 59.7931 6.14262C60.4513 6.7961 60.9538 7.58316 61.265 8.44781L65.6413 20.6258C65.661 20.6807 65.6575 20.741 65.6316 20.7934C65.6057 20.8459 65.5595 20.8861 65.5032 20.9053C65.447 20.9245 65.3852 20.921 65.3315 20.8957C65.2778 20.8705 65.2366 20.8254 65.2169 20.7704L60.8406 8.5925C60.5513 7.78876 60.084 7.05715 59.4722 6.4497C58.8604 5.84226 58.119 5.3739 57.3007 5.07796C56.4824 4.78201 55.6074 4.66574 54.7379 4.73742C53.8684 4.80909 53.0257 5.06695 52.2699 5.49265C50.792 6.32814 49.6588 7.64056 49.0654 9.20393C48.4719 10.7673 48.4553 12.4838 49.0185 14.0578L53.7788 27.3099C53.7887 27.3373 53.7929 27.3663 53.7913 27.3952C53.7896 27.4242 53.7821 27.4525 53.7692 27.4786C53.7562 27.5047 53.7381 27.528 53.7159 27.5472C53.6936 27.5665 53.6677 27.5812 53.6396 27.5905C53.6158 27.5986 53.5907 27.6023 53.5655 27.6015Z" fill="#F0F0F0"/>
<path d="M49.1966 24.9313C49.1424 24.9319 49.0899 24.9134 49.0486 24.8792C49.0074 24.8449 48.9802 24.7973 48.9721 24.745L47.4003 14.6321C47.0982 12.7496 47.389 10.8219 48.2343 9.10444C49.0796 7.38694 50.4394 5.96073 52.1336 5.01474C52.8612 4.60486 53.6801 4.37444 54.5195 4.34345C55.3589 4.31245 56.1934 4.48183 56.9506 4.83688C57.7078 5.19193 58.3649 5.72195 58.8648 6.38098C59.3648 7.04 59.6925 7.80814 59.8197 8.6188L61.241 17.7583C61.2454 17.7871 61.244 17.8164 61.2368 17.8447C61.2296 17.8729 61.2168 17.8995 61.1991 17.9229C61.1813 17.9463 61.1591 17.9661 61.1335 17.9811C61.108 17.9961 61.0796 18.0061 61.0502 18.0104C61.0207 18.0147 60.9906 18.0133 60.9617 18.0063C60.9327 17.9993 60.9055 17.9867 60.8815 17.9694C60.8575 17.9521 60.8373 17.9304 60.8219 17.9054C60.8065 17.8805 60.7964 17.8528 60.7919 17.8241L59.3728 8.68456C59.2564 7.94471 58.9569 7.24375 58.5003 6.6424C58.0437 6.04106 57.4439 5.55748 56.7527 5.23356C56.0615 4.90965 55.2998 4.75516 54.5337 4.7835C53.7675 4.81184 53.02 5.02214 52.3559 5.39619C50.7422 6.29833 49.4469 7.65725 48.641 9.29339C47.8352 10.9295 47.5568 12.7659 47.8426 14.5598L49.4144 24.6726C49.4189 24.7012 49.4175 24.7302 49.4105 24.7582C49.4034 24.7862 49.3907 24.8126 49.3732 24.8358C49.3557 24.859 49.3336 24.8786 49.3083 24.8935C49.283 24.9084 49.255 24.9183 49.2258 24.9226L49.1966 24.9313Z" fill="#E0E0E0"/>
<path d="M59.3837 15.1428L58.9481 15.3883L58.5462 9.03078C58.499 8.32543 58.2687 7.64341 57.877 7.04893C57.4853 6.45444 56.9452 5.96706 56.3073 5.63266C55.6694 5.29826 54.9549 5.12784 54.231 5.13745C53.507 5.14707 52.7975 5.33639 52.1692 5.6876C50.5222 6.60838 49.1728 7.96189 48.2745 9.59423C47.3762 11.2266 46.9651 13.0722 47.0878 14.9214L47.5167 21.8291L47.0811 22.0747L46.632 14.9411C46.5039 13.0097 46.9332 11.0819 47.8712 9.37684C48.8091 7.67173 50.218 6.25763 51.9379 5.29519C52.6327 4.90638 53.4174 4.69672 54.2181 4.68598C55.0188 4.67524 55.8092 4.86377 56.5146 5.23379C57.22 5.60382 57.8173 6.14315 58.2502 6.80094C58.683 7.45872 58.9371 8.2133 58.9885 8.99351L59.3837 15.1428Z" fill="#F0F0F0"/>
<path d="M44.4513 21.9564H44.4131C44.3841 21.9514 44.3563 21.9408 44.3315 21.9253C44.3066 21.9098 44.2851 21.8897 44.2682 21.866C44.2513 21.8424 44.2394 21.8158 44.233 21.7877C44.2267 21.7595 44.2261 21.7304 44.2313 21.7021L45.3921 15.1078C45.7457 13.0827 46.5529 11.1588 47.7562 9.47355C48.9595 7.7883 50.5291 6.38328 52.3529 5.35886C52.9359 5.02926 53.6029 4.86872 54.276 4.89606C54.949 4.92339 55.6001 5.13746 56.153 5.51319C56.7058 5.88891 57.1375 6.41072 57.3975 7.01744C57.6574 7.62416 57.7349 8.29066 57.6207 8.9388L56.5406 15.0771C56.5308 15.1352 56.4977 15.1872 56.4487 15.2215C56.3996 15.2559 56.3386 15.2698 56.2791 15.2602C56.2195 15.2506 56.1663 15.2183 56.1311 15.1704C56.096 15.1225 56.0817 15.0629 56.0916 15.0048L57.1716 8.85988C57.2713 8.29423 57.2038 7.71257 56.9771 7.183C56.7504 6.65343 56.3739 6.19785 55.8917 5.86962C55.4094 5.54139 54.8414 5.35409 54.254 5.32963C53.6667 5.30518 53.0844 5.44459 52.5752 5.73154C50.8104 6.72551 49.2917 8.08718 48.1274 9.71956C46.9631 11.352 46.1817 13.2149 45.839 15.1758L44.6781 21.77C44.6699 21.8227 44.6424 21.8707 44.6007 21.9049C44.5589 21.9392 44.5058 21.9575 44.4513 21.9564Z" fill="#E0E0E0"/>
<path d="M56.7069 5.87403L54.9802 11.9466L54.4233 12.26L56.2735 5.75564C56.3547 5.47157 56.3473 5.17032 56.2524 4.89034C56.1575 4.61036 55.9792 4.36434 55.7405 4.18369C55.5017 4.00303 55.2132 3.89592 54.9118 3.87602C54.6104 3.85613 54.3098 3.92436 54.0483 4.072C48.8608 6.98332 45.0607 11.7768 43.4746 17.4096L43.1243 18.6395L42.563 18.9442L43.0345 17.2847C44.6524 11.5445 48.5258 6.65982 53.8125 3.69273C54.1513 3.50128 54.5409 3.41274 54.9314 3.43843C55.322 3.46412 55.6959 3.60288 56.0053 3.83698C56.3147 4.07107 56.5456 4.38989 56.6686 4.75273C56.7916 5.11556 56.801 5.50594 56.6957 5.87403H56.7069Z" fill="#F0F0F0"/>
<path d="M38.6496 18.6133C38.6066 18.6132 38.5645 18.601 38.5284 18.5783C38.4784 18.5468 38.4433 18.4973 38.4307 18.4406C38.418 18.3839 38.429 18.3246 38.461 18.2757L39.7252 16.3663C43.3344 10.9227 48.2129 6.3911 53.9612 3.14261C54.1756 3.0227 54.4251 2.97647 54.6696 3.0113C54.9142 3.04613 55.1397 3.16003 55.3102 3.33477C55.4806 3.5095 55.5861 3.73499 55.6098 3.97517C55.6335 4.21536 55.574 4.45636 55.4409 4.65965L50.7008 11.8283C50.6672 11.8739 50.617 11.9051 50.5605 11.9156C50.504 11.926 50.4456 11.9149 50.3972 11.8846C50.3488 11.8542 50.3142 11.8069 50.3005 11.7524C50.2868 11.6979 50.2951 11.6403 50.3236 11.5915L55.0637 4.42289C55.1429 4.30226 55.1784 4.15915 55.1645 4.01648C55.1506 3.87381 55.088 3.73983 54.9868 3.63599C54.8857 3.53216 54.7517 3.46447 54.6065 3.44378C54.4612 3.42309 54.313 3.45059 54.1857 3.52187C48.5007 6.73581 43.6761 11.2185 40.1069 16.603L38.8383 18.5059C38.8188 18.538 38.7912 18.5647 38.7582 18.5835C38.7252 18.6023 38.6878 18.6126 38.6496 18.6133Z" fill="#E0E0E0"/>
<path d="M70.9221 35.9516C70.1115 32.17 67.5697 29.9492 64.5923 29.9492C63.3682 29.9695 62.1714 30.3053 61.1231 30.9226C56.8276 33.345 54.2521 39.5206 55.3748 44.7184C56.1877 48.4978 58.7295 50.7208 61.7069 50.7208C62.931 50.7005 64.1278 50.3647 65.1761 49.7474C69.4626 47.325 72.0381 41.1494 70.9221 35.9516ZM68.8249 43.3921C67.8504 45.729 66.31 47.5815 64.4912 48.6053C63.6491 49.1084 62.685 49.3838 61.6979 49.4032C59.2639 49.4032 57.3418 47.5048 56.6861 44.4488C56.2011 42.1885 56.4773 39.6412 57.4631 37.2757C58.4488 34.9103 59.9779 33.0885 61.7967 32.0625C62.6403 31.561 63.6048 31.2864 64.5923 31.2668C67.0263 31.2668 68.9461 33.1652 69.6018 36.2212C70.0868 38.4815 69.8106 41.0267 68.8249 43.3921ZM62.2144 36.0064C60.2384 37.1201 59.0551 39.9525 59.567 42.3508C60.079 44.7491 62.0976 45.7773 64.0736 44.6636C66.0495 43.5499 67.2351 40.7176 66.7209 38.3192C66.2067 35.9209 64.1903 34.8927 62.2144 36.0064Z" fill="white"/>
</svg>
